RecursiveMonoVar-StrictBlack.ufo
<glyph name="exclam" format="1">
  <advance width="600"/>
  <unicode hex="0021"/>
  <outline>
    <contour>
      <point x="364" y="306" type="line"/>
      <point x="378" y="372"/>
      <point x="392" y="436"/>
      <point x="407" y="502" type="curve"/>
      <point x="407" y="689" type="line" smooth="yes"/>
      <point x="407" y="696"/>
      <point x="402" y="700"/>
      <point x="396" y="700" type="curve" smooth="yes"/>
      <point x="308" y="700"/>
      <point x="240" y="700"/>
      <point x="193" y="700" type="curve"/>
      <point x="193" y="662"/>
      <point x="193" y="627"/>
      <point x="193" y="590" type="curve" smooth="yes"/>
      <point x="193" y="502" type="line"/>
      <point x="233" y="313"/>
      <point x="234" y="312"/>
      <point x="238" y="308" type="curve" smooth="yes"/>
      <point x="240" y="306"/>
      <point x="242" y="306"/>
      <point x="246" y="306" type="curve"/>
    </contour>
    <contour>
      <point x="412" y="-12" type="curve"/>
      <point x="412" y="202" type="line" smooth="yes"/>
      <point x="412" y="208"/>
      <point x="407" y="214"/>
      <point x="401" y="214" type="curve" smooth="yes"/>
      <point x="328" y="214"/>
      <point x="262" y="214"/>
      <point x="188" y="214" type="curve"/>
      <point x="188" y="0" type="line" smooth="yes"/>
      <point x="188" y="-6"/>
      <point x="193" y="-12"/>
      <point x="199" y="-12" type="curve" smooth="yes"/>
      <point x="272" y="-12"/>
      <point x="338" y="-12"/>
    </contour>
  </outline>
</glyph>
<glyph name="quotedbl" format="1">
  <advance width="600"/>
  <unicode hex="0022"/>
  <outline>
    <contour>
      <point x="240" y="450" type="curve"/>
      <point x="262" y="737" type="line" smooth="yes"/>
      <point x="264" y="746"/>
      <point x="258" y="750"/>
      <point x="252" y="750" type="curve" smooth="yes"/>
      <point x="199" y="750"/>
      <point x="140" y="750"/>
      <point x="74" y="750" type="curve"/>
      <point x="78" y="714"/>
      <point x="80" y="683"/>
      <point x="82" y="648" type="curve" smooth="yes"/>
      <point x="98" y="461" type="line" smooth="yes"/>
      <point x="98" y="454"/>
      <point x="104" y="450"/>
      <point x="110" y="450" type="curve" smooth="yes"/>
      <point x="154" y="450"/>
      <point x="195" y="450"/>
    </contour>
    <contour>
      <point x="502" y="450" type="curve"/>
      <point x="524" y="737" type="line" smooth="yes"/>
      <point x="526" y="746"/>
      <point x="520" y="750"/>
      <point x="514" y="750" type="curve" smooth="yes"/>
      <point x="461" y="750"/>
      <point x="402" y="750"/>
      <point x="336" y="750" type="curve"/>
      <point x="360" y="461" type="line"/>
      <point x="360" y="454"/>
      <point x="366" y="450"/>
      <point x="372" y="450" type="curve" smooth="yes"/>
      <point x="416" y="450"/>
      <point x="457" y="450"/>
    </contour>
  </outline>
</glyph>
<glyph name="dollar" format="1">
  <advance width="600"/>
  <unicode hex="0024"/>
  <outline>
    <contour>
      <point x="326" y="721" type="curve" smooth="yes"/>
      <point x="156" y="721"/>
      <point x="53" y="637"/>
      <point x="53" y="514" type="curve" smooth="yes"/>
      <point x="53" y="472" type="line" smooth="yes"/>
      <point x="53" y="454"/>
      <point x="119" y="432"/>
      <point x="218" y="432" type="curve"/>
      <point x="218" y="465"/>
      <point x="218" y="483"/>
      <point x="218" y="516" type="curve" smooth="yes"/>
      <point x="218" y="535"/>
      <point x="244" y="558"/>
      <point x="312" y="558" type="curve" smooth="yes"/>
      <point x="395" y="558"/>
      <point x="453" y="539"/>
      <point x="506" y="512" type="curve"/>
      <point x="528" y="512" type="line"/>
      <point x="528" y="546"/>
      <point x="528" y="609"/>
      <point x="528" y="676" type="curve" smooth="yes"/>
      <point x="528" y="678"/>
      <point x="527" y="682"/>
      <point x="525" y="684" type="curve" smooth="yes"/>
      <point x="500" y="709"/>
      <point x="418" y="721"/>
    </contour>
    <contour>
      <point x="388" y="412" type="curve" smooth="yes"/>
      <point x="290" y="440" type="line" smooth="yes"/>
      <point x="229" y="458"/>
      <point x="218" y="468"/>
      <point x="218" y="492" type="curve" smooth="yes"/>
      <point x="218" y="512"/>
      <point x="218" y="532"/>
      <point x="218" y="563" type="curve"/>
      <point x="130" y="566"/>
      <point x="53" y="564"/>
      <point x="53" y="472" type="curve" smooth="yes"/>
      <point x="53" y="403"/>
      <point x="88" y="334"/>
      <point x="226" y="296" type="curve" smooth="yes"/>
      <point x="318" y="270" type="line" smooth="yes"/>
      <point x="387" y="249"/>
      <point x="393" y="238"/>
      <point x="393" y="216" type="curve" smooth="yes"/>
      <point x="393" y="191"/>
      <point x="393" y="129"/>
      <point x="393" y="88" type="curve"/>
      <point x="468" y="88"/>
      <point x="552" y="154"/>
      <point x="552" y="224" type="curve"/>
      <point x="552" y="314"/>
      <point x="519" y="374"/>
    </contour>
    <contour>
      <point x="289" y="-21" type="curve" smooth="yes"/>
      <point x="452" y="-21"/>
      <point x="552" y="58"/>
      <point x="552" y="174" type="curve" smooth="yes"/>
      <point x="552" y="224" type="line" smooth="yes"/>
      <point x="552" y="243"/>
      <point x="489" y="270"/>
      <point x="393" y="270" type="curve"/>
      <point x="393" y="236"/>
      <point x="393" y="215"/>
      <point x="393" y="189" type="curve" smooth="yes"/>
      <point x="393" y="166"/>
      <point x="368" y="146"/>
      <point x="287" y="146" type="curve" smooth="yes"/>
      <point x="196" y="146"/>
      <point x="136" y="170"/>
      <point x="76" y="202" type="curve"/>
      <point x="54" y="202" type="line"/>
      <point x="54" y="168"/>
      <point x="54" y="102"/>
      <point x="54" y="36" type="curve" smooth="yes"/>
      <point x="54" y="34"/>
      <point x="55" y="30"/>
      <point x="57" y="28" type="curve" smooth="yes"/>
      <point x="88" y="-3"/>
      <point x="174" y="-21"/>
    </contour>
    <contour>
      <point x="379" y="466" type="line"/>
      <point x="431" y="778" type="line" smooth="yes"/>
      <point x="432" y="788"/>
      <point x="427" y="792"/>
      <point x="421" y="792" type="curve" smooth="yes"/>
      <point x="367" y="792"/>
      <point x="347" y="792"/>
      <point x="292" y="792" type="curve"/>
      <point x="292" y="757"/>
      <point x="292" y="722"/>
      <point x="292" y="688" type="curve"/>
      <point x="292" y="502" type="line" smooth="yes"/>
      <point x="292" y="494"/>
      <point x="294" y="490"/>
      <point x="303" y="487" type="curve" smooth="yes"/>
    </contour>
    <contour>
      <point x="236" y="239" type="line"/>
      <point x="179" y="-76" type="line" smooth="yes"/>
      <point x="176" y="-87"/>
      <point x="183" y="-91"/>
      <point x="189" y="-91" type="curve" smooth="yes"/>
      <point x="245" y="-91"/>
      <point x="266" y="-91"/>
      <point x="324" y="-91" type="curve"/>
      <point x="324" y="-61"/>
      <point x="324" y="-22"/>
      <point x="324" y="8" type="curve"/>
      <point x="324" y="204" type="line" smooth="yes"/>
      <point x="324" y="215"/>
      <point x="320" y="217"/>
      <point x="312" y="219" type="curve" smooth="yes"/>
    </contour>
  </outline>
</glyph>
<glyph name="percent" format="1">
  <advance width="600"/>
  <unicode hex="0025"/>
  <outline>
    <contour>
      <point x="136" y="640" type="curve"/>
      <point x="170" y="640"/>
      <point x="194" y="615"/>
      <point x="194" y="570" type="curve" smooth="yes"/>
      <point x="194" y="536" type="line" smooth="yes"/>
      <point x="194" y="504"/>
      <point x="182" y="493"/>
      <point x="152" y="493" type="curve" smooth="yes"/>
      <point x="130" y="493"/>
      <point x="122" y="496"/>
      <point x="100" y="502" type="curve"/>
      <point x="90" y="454"/>
      <point x="112" y="358"/>
      <point x="164" y="358" type="curve" smooth="yes"/>
      <point x="258" y="358"/>
      <point x="322" y="420"/>
      <point x="322" y="516" type="curve" smooth="yes"/>
      <point x="322" y="560" type="line" smooth="yes"/>
      <point x="322" y="650"/>
      <point x="256" y="710"/>
      <point x="168" y="710" type="curve" smooth="yes"/>
      <point x="144" y="710"/>
      <point x="126" y="690"/>
    </contour>
    <contour>
      <point x="180" y="454" type="curve"/>
      <point x="153" y="454"/>
      <point x="138" y="472"/>
      <point x="138" y="498" type="curve" smooth="yes"/>
      <point x="138" y="536" type="line" smooth="yes"/>
      <point x="138" y="566"/>
      <point x="152" y="584"/>
      <point x="180" y="584" type="curve" smooth="yes"/>
      <point x="207" y="584"/>
      <point x="214" y="582"/>
      <point x="240" y="576" type="curve"/>
      <point x="252" y="620"/>
      <point x="217" y="710"/>
      <point x="168" y="710" type="curve" smooth="yes"/>
      <point x="76" y="710"/>
      <point x="11" y="646"/>
      <point x="11" y="552" type="curve" smooth="yes"/>
      <point x="11" y="508" type="line" smooth="yes"/>
      <point x="11" y="414"/>
      <point x="72" y="358"/>
      <point x="164" y="358" type="curve" smooth="yes"/>
      <point x="178" y="358"/>
      <point x="191" y="386"/>
    </contour>
    <contour>
      <point x="404" y="272" type="curve"/>
      <point x="436" y="272"/>
      <point x="461" y="247"/>
      <point x="461" y="202" type="curve" smooth="yes"/>
      <point x="461" y="168" type="line" smooth="yes"/>
      <point x="461" y="136"/>
      <point x="448" y="125"/>
      <point x="419" y="125" type="curve" smooth="yes"/>
      <point x="396" y="125"/>
      <point x="389" y="128"/>
      <point x="367" y="134" type="curve"/>
      <point x="356" y="86"/>
      <point x="380" y="-10"/>
      <point x="432" y="-10" type="curve" smooth="yes"/>
      <point x="524" y="-10"/>
      <point x="589" y="52"/>
      <point x="589" y="148" type="curve" smooth="yes"/>
      <point x="589" y="192" type="line" smooth="yes"/>
      <point x="589" y="282"/>
      <point x="524" y="342"/>
      <point x="434" y="342" type="curve" smooth="yes"/>
      <point x="412" y="342"/>
      <point x="392" y="322"/>
    </contour>
    <contour>
      <point x="447" y="86" type="curve"/>
      <point x="420" y="86"/>
      <point x="406" y="104"/>
      <point x="406" y="130" type="curve" smooth="yes"/>
      <point x="406" y="168" type="line" smooth="yes"/>
      <point x="406" y="198"/>
      <point x="419" y="216"/>
      <point x="447" y="216" type="curve" smooth="yes"/>
      <point x="474" y="216"/>
      <point x="481" y="214"/>
      <point x="506" y="208" type="curve"/>
      <point x="518" y="252"/>
      <point x="484" y="342"/>
      <point x="434" y="342" type="curve" smooth="yes"/>
      <point x="343" y="342"/>
      <point x="278" y="278"/>
      <point x="278" y="184" type="curve" smooth="yes"/>
      <point x="278" y="140" type="line" smooth="yes"/>
      <point x="278" y="46"/>
      <point x="339" y="-10"/>
      <point x="432" y="-10" type="curve" smooth="yes"/>
      <point x="445" y="-10"/>
      <point x="458" y="18"/>
    </contour>
    <contour>
      <point x="354" y="398" type="curve"/>
      <point x="384" y="398"/>
      <point x="416" y="398"/>
      <point x="454" y="398" type="curve" smooth="yes"/>
      <point x="459" y="398"/>
      <point x="462" y="399"/>
      <point x="464" y="406" type="curve" smooth="yes"/>
      <point x="506" y="502"/>
      <point x="546" y="600"/>
      <point x="588" y="697" type="curve" smooth="yes"/>
      <point x="592" y="705"/>
      <point x="588" y="710"/>
      <point x="580" y="710" type="curve" smooth="yes"/>
      <point x="518" y="710"/>
      <point x="485" y="710"/>
      <point x="410" y="710" type="curve"/>
      <point x="392" y="606"/>
      <point x="372" y="502"/>
    </contour>
    <contour>
      <point x="247" y="303" type="curve"/>
      <point x="216" y="303"/>
      <point x="185" y="303"/>
      <point x="147" y="303" type="curve" smooth="yes"/>
      <point x="142" y="303"/>
      <point x="140" y="302"/>
      <point x="136" y="296" type="curve" smooth="yes"/>
      <point x="96" y="198"/>
      <point x="54" y="102"/>
      <point x="13" y="4" type="curve" smooth="yes"/>
      <point x="10" y="-4"/>
      <point x="13" y="-9"/>
      <point x="21" y="-9" type="curve" smooth="yes"/>
      <point x="82" y="-9"/>
      <point x="116" y="-9"/>
      <point x="190" y="-9" type="curve"/>
      <point x="209" y="95"/>
      <point x="228" y="199"/>
    </contour>
  </outline>
</glyph>
<glyph name="ampersand" format="1">
  <advance width="600"/>
  <unicode hex="0026"/>
  <outline>
    <contour>
      <point x="328" y="709" type="curve" smooth="yes"/>
      <point x="167" y="709"/>
      <point x="79" y="630"/>
      <point x="79" y="534" type="curve" smooth="yes"/>
      <point x="79" y="487"/>
      <point x="152" y="466"/>
      <point x="249" y="466" type="curve"/>
      <point x="249" y="476"/>
      <point x="249" y="497"/>
      <point x="249" y="514" type="curve" smooth="yes"/>
      <point x="249" y="532"/>
      <point x="261" y="546"/>
      <point x="326" y="546" type="curve" smooth="yes"/>
      <point x="382" y="546"/>
      <point x="419" y="540"/>
      <point x="470" y="529" type="curve"/>
      <point x="490" y="529" type="line"/>
      <point x="490" y="574"/>
      <point x="490" y="631"/>
      <point x="490" y="676" type="curve"/>
      <point x="490" y="681"/>
      <point x="489" y="684"/>
      <point x="487" y="686" type="curve" smooth="yes"/>
      <point x="478" y="695"/>
      <point x="417" y="709"/>
    </contour>
    <contour>
      <point x="275" y="456" type="curve" smooth="yes"/>
      <point x="255" y="484"/>
      <point x="249" y="497"/>
      <point x="249" y="514" type="curve" smooth="yes"/>
      <point x="249" y="536"/>
      <point x="251" y="559"/>
      <point x="268" y="584" type="curve"/>
      <point x="132" y="584"/>
      <point x="79" y="572"/>
      <point x="79" y="534" type="curve" smooth="yes"/>
      <point x="79" y="521" type="line" smooth="yes"/>
      <point x="79" y="460"/>
      <point x="100" y="418"/>
      <point x="164" y="335" type="curve" smooth="yes"/>
      <point x="234" y="242"/>
      <point x="312" y="140"/>
      <point x="360" y="78" type="curve" smooth="yes"/>
      <point x="410" y="12"/>
      <point x="448" y="-10"/>
      <point x="528" y="-10" type="curve" smooth="yes"/>
      <point x="569" y="-10" type="line" smooth="yes"/>
      <point x="576" y="-10"/>
      <point x="580" y="-6"/>
      <point x="580" y="1" type="curve" smooth="yes"/>
      <point x="580" y="69"/>
      <point x="580" y="108"/>
      <point x="580" y="165" type="curve"/>
      <point x="564" y="165" type="line"/>
      <point x="557" y="165"/>
      <point x="542" y="165"/>
      <point x="534" y="165" type="curve" smooth="yes"/>
      <point x="504" y="165"/>
      <point x="490" y="170"/>
      <point x="471" y="195" type="curve" smooth="yes"/>
      <point x="422" y="258"/>
      <point x="358" y="344"/>
    </contour>
    <contour>
      <point x="202" y="-9" type="curve" smooth="yes"/>
      <point x="292" y="-9"/>
      <point x="340" y="37"/>
      <point x="370" y="92" type="curve" smooth="yes"/>
      <point x="378" y="109"/>
      <point x="380" y="116"/>
      <point x="325" y="187" type="curve"/>
      <point x="294" y="142"/>
      <point x="274" y="129"/>
      <point x="235" y="129" type="curve" smooth="yes"/>
      <point x="202" y="129"/>
      <point x="185" y="148"/>
      <point x="185" y="189" type="curve" smooth="yes"/>
      <point x="185" y="223" type="line" smooth="yes"/>
      <point x="185" y="266"/>
      <point x="214" y="298"/>
      <point x="266" y="298" type="curve"/>
      <point x="232" y="352"/>
      <point x="200" y="380"/>
      <point x="178" y="380" type="curve" smooth="yes"/>
      <point x="102" y="380"/>
      <point x="24" y="324"/>
      <point x="24" y="234" type="curve" smooth="yes"/>
      <point x="24" y="160" type="line" smooth="yes"/>
      <point x="24" y="54"/>
      <point x="90" y="-9"/>
    </contour>
    <contour>
      <point x="564" y="428" type="curve" smooth="yes"/>
      <point x="531" y="428"/>
      <point x="479" y="428"/>
      <point x="429" y="428" type="curve"/>
      <point x="429" y="400"/>
      <point x="429" y="372"/>
      <point x="429" y="345" type="curve" smooth="yes"/>
      <point x="429" y="308"/>
      <point x="424" y="290"/>
      <point x="400" y="264" type="curve" smooth="yes"/>
      <point x="387" y="250"/>
      <point x="394" y="241"/>
      <point x="441" y="190" type="curve"/>
      <point x="529" y="226"/>
      <point x="575" y="284"/>
      <point x="575" y="344" type="curve" smooth="yes"/>
      <point x="575" y="417" type="line" smooth="yes"/>
      <point x="575" y="424"/>
      <point x="572" y="428"/>
    </contour>
  </outline>
</glyph>
<glyph name="quotesingle" format="1">
  <advance width="600"/>
  <unicode hex="0027"/>
  <outline>
    <contour>
      <point x="377" y="450" type="curve"/>
      <point x="400" y="737" type="line" smooth="yes"/>
      <point x="401" y="746"/>
      <point x="396" y="750"/>
      <point x="390" y="750" type="curve" smooth="yes"/>
      <point x="332" y="750"/>
      <point x="269" y="750"/>
      <point x="199" y="750" type="curve"/>
      <point x="202" y="714"/>
      <point x="204" y="683"/>
      <point x="207" y="648" type="curve" smooth="yes"/>
      <point x="222" y="461" type="line" smooth="yes"/>
      <point x="223" y="454"/>
      <point x="228" y="450"/>
      <point x="234" y="450" type="curve" smooth="yes"/>
      <point x="282" y="450"/>
      <point x="328" y="450"/>
    </contour>
  </outline>
</glyph>
<glyph name="parenleft" format="1">
  <advance width="600"/>
  <unicode hex="0028"/>
  <outline>
    <contour>
      <point x="314" y="740" type="curve" smooth="yes"/>
      <point x="203" y="628"/>
      <point x="147" y="484"/>
      <point x="147" y="322" type="curve" smooth="yes"/>
      <point x="147" y="312" type="line" smooth="yes"/>
      <point x="147" y="151"/>
      <point x="203" y="8"/>
      <point x="314" y="-103" type="curve" smooth="yes"/>
      <point x="323" y="-112"/>
      <point x="328" y="-113"/>
      <point x="337" y="-113" type="curve" smooth="yes"/>
      <point x="405" y="-113"/>
      <point x="466" y="-113"/>
      <point x="537" y="-113" type="curve"/>
      <point x="537" y="-93" type="line"/>
      <point x="413" y="22"/>
      <point x="342" y="158"/>
      <point x="342" y="312" type="curve" smooth="yes"/>
      <point x="342" y="322" type="line" smooth="yes"/>
      <point x="342" y="478"/>
      <point x="411" y="618"/>
      <point x="534" y="730" type="curve"/>
      <point x="534" y="750" type="line"/>
      <point x="464" y="750"/>
      <point x="404" y="750"/>
      <point x="337" y="750" type="curve" smooth="yes"/>
      <point x="328" y="750"/>
      <point x="323" y="748"/>
    </contour>
  </outline>
</glyph>
<glyph name="parenright" format="1">
  <advance width="600"/>
  <unicode hex="0029"/>
  <outline>
    <contour>
      <point x="286" y="-91" type="curve" smooth="yes"/>
      <point x="397" y="21"/>
      <point x="453" y="165"/>
      <point x="453" y="328" type="curve" smooth="yes"/>
      <point x="453" y="336" type="line" smooth="yes"/>
      <point x="453" y="498"/>
      <point x="397" y="641"/>
      <point x="286" y="752" type="curve" smooth="yes"/>
      <point x="277" y="760"/>
      <point x="272" y="762"/>
      <point x="263" y="762" type="curve" smooth="yes"/>
      <point x="195" y="762"/>
      <point x="134" y="762"/>
      <point x="63" y="762" type="curve"/>
      <point x="63" y="742" type="line"/>
      <point x="187" y="627"/>
      <point x="258" y="491"/>
      <point x="258" y="336" type="curve" smooth="yes"/>
      <point x="258" y="328" type="line" smooth="yes"/>
      <point x="258" y="171"/>
      <point x="189" y="31"/>
      <point x="66" y="-81" type="curve"/>
      <point x="66" y="-101" type="line"/>
      <point x="136" y="-101"/>
      <point x="196" y="-101"/>
      <point x="263" y="-101" type="curve" smooth="yes"/>
      <point x="272" y="-101"/>
      <point x="277" y="-100"/>
    </contour>
  </outline>
</glyph>
<glyph name="asterisk" format="1">
  <advance width="600"/>
  <unicode hex="002A"/>
  <outline>
    <contour>
      <point x="220" y="568" type="curve"/>
      <point x="230" y="525"/>
      <point x="240" y="482"/>
      <point x="250" y="438" type="curve" smooth="yes"/>
      <point x="283" y="309" type="line"/>
      <point x="220" y="60" type="line" smooth="yes"/>
      <point x="220" y="54"/>
      <point x="222" y="50"/>
      <point x="228" y="50" type="curve"/>
      <point x="278" y="50"/>
      <point x="330" y="50"/>
      <point x="380" y="50" type="curve"/>
      <point x="370" y="93"/>
      <point x="360" y="136"/>
      <point x="350" y="180" type="curve" smooth="yes"/>
      <point x="316" y="309" type="line"/>
      <point x="378" y="558" type="line" smooth="yes"/>
      <point x="380" y="564"/>
      <point x="376" y="568"/>
      <point x="371" y="568" type="curve" smooth="yes"/>
      <point x="321" y="568"/>
      <point x="270" y="568"/>
    </contour>
    <contour>
      <point x="484" y="508" type="curve"/>
      <point x="292" y="324" type="line"/>
      <point x="45" y="254" type="line" smooth="yes"/>
      <point x="38" y="252"/>
      <point x="37" y="248"/>
      <point x="41" y="240" type="curve"/>
      <point x="65" y="196"/>
      <point x="91" y="154"/>
      <point x="115" y="112" type="curve"/>
      <point x="308" y="296" type="line"/>
      <point x="552" y="365" type="line" smooth="yes"/>
      <point x="560" y="367"/>
      <point x="562" y="373"/>
      <point x="558" y="381" type="curve" smooth="yes"/>
      <point x="534" y="424"/>
      <point x="508" y="466"/>
    </contour>
    <contour>
      <point x="563" y="250" type="curve"/>
      <point x="308" y="324" type="line"/>
      <point x="124" y="504" type="line" smooth="yes"/>
      <point x="120" y="508"/>
      <point x="114" y="506"/>
      <point x="109" y="500" type="curve"/>
      <point x="84" y="456"/>
      <point x="59" y="415"/>
      <point x="34" y="372" type="curve"/>
      <point x="290" y="296" type="line"/>
      <point x="473" y="119" type="line" smooth="yes"/>
      <point x="480" y="113"/>
      <point x="486" y="114"/>
      <point x="490" y="122" type="curve"/>
      <point x="514" y="164"/>
      <point x="538" y="208"/>
    </contour>
  </outline>
</glyph>
<glyph name="hyphen" format="1">
  <advance width="600"/>
  <unicode hex="002D"/>
  <outline>
    <contour>
      <point x="105" y="388" type="line"/>
      <point x="105" y="332"/>
      <point x="105" y="278"/>
      <point x="105" y="222" type="curve" smooth="yes"/>
      <point x="105" y="220"/>
      <point x="106" y="216"/>
      <point x="108" y="214" type="curve" smooth="yes"/>
      <point x="110" y="212"/>
      <point x="113" y="212"/>
      <point x="116" y="212" type="curve"/>
      <point x="495" y="212" type="line"/>
      <point x="495" y="268"/>
      <point x="495" y="320"/>
      <point x="495" y="377" type="curve" smooth="yes"/>
      <point x="495" y="383"/>
      <point x="490" y="388"/>
      <point x="484" y="388" type="curve"/>
    </contour>
  </outline>
</glyph>
<glyph name="period" format="1">
  <advance width="600"/>
  <unicode hex="002E"/>
  <outline>
    <contour>
      <point x="412" y="-12" type="curve"/>
      <point x="412" y="202" type="line" smooth="yes"/>
      <point x="412" y="208"/>
      <point x="407" y="214"/>
      <point x="401" y="214" type="curve" smooth="yes"/>
      <point x="328" y="214"/>
      <point x="262" y="214"/>
      <point x="188" y="214" type="curve"/>
      <point x="188" y="0" type="line" smooth="yes"/>
      <point x="188" y="-6"/>
      <point x="193" y="-12"/>
      <point x="199" y="-12" type="curve" smooth="yes"/>
      <point x="272" y="-12"/>
      <point x="338" y="-12"/>
    </contour>
  </outline>
</glyph>
<glyph name="one" format="1">
  <advance width="600"/>
  <unicode hex="0031"/>
  <outline>
    <contour>
      <point x="430" y="81" type="curve"/>
      <point x="430" y="286"/>
      <point x="430" y="494"/>
      <point x="430" y="699" type="curve" smooth="yes"/>
      <point x="430" y="704"/>
      <point x="424" y="710"/>
      <point x="418" y="710" type="curve" smooth="yes"/>
      <point x="243" y="710" type="line"/>
      <point x="243" y="514"/>
      <point x="243" y="313"/>
      <point x="243" y="118" type="curve" smooth="yes"/>
      <point x="243" y="89"/>
      <point x="326" y="81"/>
    </contour>
    <contour>
      <point x="60" y="184" type="line"/>
      <point x="60" y="128"/>
      <point x="60" y="75"/>
      <point x="60" y="11" type="curve" smooth="yes"/>
      <point x="60" y="6"/>
      <point x="62" y="5"/>
      <point x="64" y="3" type="curve" smooth="yes"/>
      <point x="66" y="1"/>
      <point x="67" y="0"/>
      <point x="72" y="0" type="curve" smooth="yes"/>
      <point x="560" y="0" type="line"/>
      <point x="560" y="48"/>
      <point x="560" y="107"/>
      <point x="560" y="172" type="curve" smooth="yes"/>
      <point x="560" y="182"/>
      <point x="558" y="184"/>
      <point x="548" y="184" type="curve" smooth="yes"/>
    </contour>
    <contour>
      <point x="82" y="418" type="curve" smooth="yes"/>
      <point x="86" y="418"/>
      <point x="92" y="421"/>
      <point x="296" y="540" type="curve" smooth="yes"/>
      <point x="351" y="570"/>
      <point x="405" y="604"/>
      <point x="405" y="608" type="curve" smooth="yes"/>
      <point x="406" y="642"/>
      <point x="379" y="710"/>
      <point x="260" y="710" type="curve"/>
      <point x="234" y="710" type="line"/>
      <point x="209" y="696"/>
      <point x="182" y="680"/>
      <point x="157" y="666" type="curve"/>
      <point x="130" y="651"/>
      <point x="102" y="634"/>
      <point x="75" y="619" type="curve"/>
      <point x="75" y="426" type="line" smooth="yes"/>
      <point x="75" y="421"/>
      <point x="78" y="418"/>
    </contour>
  </outline>
</glyph>
<glyph name="two" format="1">
  <advance width="600"/>
  <unicode hex="0032"/>
  <outline>
    <contour>
      <point x="370" y="574" type="curve"/>
      <point x="370" y="547"/>
      <point x="370" y="532"/>
      <point x="370" y="506" type="curve" smooth="yes"/>
      <point x="370" y="482"/>
      <point x="357" y="466"/>
      <point x="252" y="402" type="curve" smooth="yes"/>
      <point x="90" y="305"/>
      <point x="56" y="228"/>
      <point x="56" y="137" type="curve" smooth="yes"/>
      <point x="56" y="122"/>
      <point x="84" y="120"/>
      <point x="237" y="120" type="curve"/>
      <point x="237" y="194"/>
      <point x="254" y="214"/>
      <point x="341" y="267" type="curve" smooth="yes"/>
      <point x="490" y="355"/>
      <point x="544" y="410"/>
      <point x="544" y="505" type="curve" smooth="yes"/>
      <point x="544" y="546" type="line" smooth="yes"/>
      <point x="544" y="578"/>
      <point x="512" y="594"/>
    </contour>
    <contour>
      <point x="558" y="0" type="line"/>
      <point x="558" y="48"/>
      <point x="558" y="100"/>
      <point x="558" y="165" type="curve" smooth="yes"/>
      <point x="558" y="174"/>
      <point x="556" y="176"/>
      <point x="546" y="176" type="curve" smooth="yes"/>
      <point x="208" y="176" type="line" smooth="yes"/>
      <point x="156" y="176"/>
      <point x="108" y="166"/>
      <point x="56" y="137" type="curve"/>
      <point x="56" y="93"/>
      <point x="56" y="71"/>
      <point x="56" y="11" type="curve" smooth="yes"/>
      <point x="56" y="2"/>
      <point x="58" y="0"/>
      <point x="68" y="0" type="curve" smooth="yes"/>
    </contour>
    <contour>
      <point x="302" y="720" type="curve" smooth="yes"/>
      <point x="192" y="720"/>
      <point x="96" y="691"/>
      <point x="82" y="676" type="curve" smooth="yes"/>
      <point x="78" y="673"/>
      <point x="78" y="670"/>
      <point x="78" y="664" type="curve" smooth="yes"/>
      <point x="78" y="598"/>
      <point x="78" y="537"/>
      <point x="78" y="498" type="curve"/>
      <point x="98" y="498" type="line"/>
      <point x="153" y="524"/>
      <point x="220" y="538"/>
      <point x="289" y="538" type="curve" smooth="yes"/>
      <point x="348" y="538"/>
      <point x="370" y="530"/>
      <point x="370" y="512" type="curve" smooth="yes"/>
      <point x="370" y="488"/>
      <point x="370" y="472"/>
      <point x="370" y="460" type="curve"/>
      <point x="498" y="477"/>
      <point x="544" y="521"/>
      <point x="544" y="546" type="curve" smooth="yes"/>
      <point x="544" y="652"/>
      <point x="452" y="720"/>
    </contour>
  </outline>
</glyph>
<glyph name="three" format="1">
  <advance width="600"/>
  <unicode hex="0033"/>
  <outline>
    <contour>
      <point x="266" y="538" type="curve" smooth="yes"/>
      <point x="354" y="538"/>
      <point x="372" y="512"/>
      <point x="372" y="488" type="curve" smooth="yes"/>
      <point x="372" y="464"/>
      <point x="372" y="458"/>
      <point x="372" y="441" type="curve"/>
      <point x="463" y="440"/>
      <point x="551" y="456"/>
      <point x="551" y="526" type="curve" smooth="yes"/>
      <point x="551" y="548" type="line" smooth="yes"/>
      <point x="551" y="666"/>
      <point x="446" y="720"/>
      <point x="276" y="720" type="curve" smooth="yes"/>
      <point x="164" y="720"/>
      <point x="72" y="704"/>
      <point x="62" y="693" type="curve" smooth="yes"/>
      <point x="60" y="691"/>
      <point x="59" y="688"/>
      <point x="59" y="686" type="curve" smooth="yes"/>
      <point x="59" y="622"/>
      <point x="59" y="568"/>
      <point x="59" y="516" type="curve"/>
      <point x="79" y="516" type="line"/>
      <point x="135" y="531"/>
      <point x="187" y="538"/>
    </contour>
    <contour>
      <point x="152" y="339" type="curve" smooth="yes"/>
      <point x="379" y="339"/>
      <point x="551" y="355"/>
      <point x="551" y="526" type="curve" smooth="yes"/>
      <point x="551" y="550"/>
      <point x="452" y="580"/>
      <point x="372" y="580" type="curve"/>
      <point x="372" y="550"/>
      <point x="372" y="519"/>
      <point x="372" y="488" type="curve" smooth="yes"/>
      <point x="372" y="456"/>
      <point x="355" y="436"/>
      <point x="142" y="436" type="curve"/>
      <point x="142" y="408"/>
      <point x="142" y="377"/>
      <point x="142" y="350" type="curve" smooth="yes"/>
      <point x="142" y="344"/>
      <point x="146" y="339"/>
    </contour>
    <contour>
      <point x="152" y="272" type="curve" smooth="yes"/>
      <point x="356" y="272"/>
      <point x="382" y="253"/>
      <point x="382" y="217" type="curve" smooth="yes"/>
      <point x="382" y="189"/>
      <point x="382" y="183"/>
      <point x="382" y="140" type="curve"/>
      <point x="498" y="140"/>
      <point x="561" y="152"/>
      <point x="561" y="210" type="curve" smooth="yes"/>
      <point x="561" y="360"/>
      <point x="374" y="372"/>
      <point x="142" y="372" type="curve"/>
      <point x="142" y="338"/>
      <point x="142" y="311"/>
      <point x="142" y="282" type="curve" smooth="yes"/>
      <point x="142" y="274"/>
      <point x="145" y="272"/>
    </contour>
    <contour>
      <point x="266" y="162" type="curve" smooth="yes"/>
      <point x="174" y="162"/>
      <point x="128" y="168"/>
      <point x="64" y="186" type="curve"/>
      <point x="44" y="186" type="line"/>
      <point x="44" y="132"/>
      <point x="44" y="79"/>
      <point x="44" y="14" type="curve" smooth="yes"/>
      <point x="44" y="12"/>
      <point x="44" y="9"/>
      <point x="46" y="7" type="curve" smooth="yes"/>
      <point x="58" y="-4"/>
      <point x="154" y="-20"/>
      <point x="272" y="-20" type="curve" smooth="yes"/>
      <point x="439" y="-20"/>
      <point x="561" y="36"/>
      <point x="561" y="179" type="curve" smooth="yes"/>
      <point x="561" y="210" type="line" smooth="yes"/>
      <point x="561" y="272"/>
      <point x="480" y="284"/>
      <point x="382" y="282" type="curve"/>
      <point x="382" y="258"/>
      <point x="382" y="248"/>
      <point x="382" y="217" type="curve" smooth="yes"/>
      <point x="382" y="190"/>
      <point x="361" y="162"/>
    </contour>
  </outline>
</glyph>
<glyph name="four" format="1">
  <advance width="600"/>
  <unicode hex="0034"/>
  <outline>
    <contour>
      <point x="184" y="244" type="curve"/>
      <point x="282" y="389"/>
      <point x="378" y="534"/>
      <point x="476" y="680" type="curve"/>
      <point x="476" y="700" type="line"/>
      <point x="359" y="700"/>
      <point x="268" y="700"/>
      <point x="261" y="700" type="curve" smooth="yes"/>
      <point x="256" y="700"/>
      <point x="252" y="699"/>
      <point x="248" y="690" type="curve" smooth="yes"/>
      <point x="182" y="571"/>
      <point x="34" y="300"/>
      <point x="34" y="289" type="curve" smooth="yes"/>
      <point x="34" y="267"/>
      <point x="80" y="254"/>
    </contour>
    <contour>
      <point x="565" y="135" type="line"/>
      <point x="565" y="190"/>
      <point x="565" y="248"/>
      <point x="565" y="303" type="curve" smooth="yes"/>
      <point x="565" y="309"/>
      <point x="560" y="314"/>
      <point x="554" y="314" type="curve" smooth="yes"/>
      <point x="375" y="314" type="line"/>
      <point x="365" y="314"/>
      <point x="202" y="302"/>
      <point x="34" y="289" type="curve"/>
      <point x="34" y="146" type="line" smooth="yes"/>
      <point x="34" y="143"/>
      <point x="36" y="140"/>
      <point x="38" y="138" type="curve" smooth="yes"/>
      <point x="40" y="136"/>
      <point x="42" y="135"/>
      <point x="46" y="135" type="curve" smooth="yes"/>
    </contour>
    <contour>
      <point x="511" y="0" type="curve"/>
      <point x="511" y="26"/>
      <point x="511" y="60"/>
      <point x="511" y="97" type="curve" smooth="yes"/>
      <point x="511" y="396" type="line" smooth="yes"/>
      <point x="511" y="403"/>
      <point x="507" y="407"/>
      <point x="500" y="407" type="curve" smooth="yes"/>
      <point x="375" y="407" type="line"/>
      <point x="358" y="347"/>
      <point x="340" y="277"/>
      <point x="324" y="217" type="curve"/>
      <point x="324" y="11" type="line" smooth="yes"/>
      <point x="324" y="5"/>
      <point x="328" y="0"/>
      <point x="334" y="0" type="curve" smooth="yes"/>
      <point x="393" y="0"/>
      <point x="452" y="0"/>
    </contour>
  </outline>
</glyph>
<glyph name="six" format="1">
  <advance width="600"/>
  <unicode hex="0036"/>
  <outline>
    <contour>
      <point x="175" y="152" type="curve"/>
      <point x="175" y="20"/>
      <point x="241" y="-22"/>
      <point x="307" y="-22" type="curve"/>
      <point x="461" y="-22"/>
      <point x="564" y="73"/>
      <point x="564" y="196" type="curve" smooth="yes"/>
      <point x="564" y="258" type="line" smooth="yes"/>
      <point x="564" y="317"/>
      <point x="512" y="334"/>
      <point x="384" y="334" type="curve"/>
      <point x="384" y="298"/>
      <point x="384" y="282"/>
      <point x="384" y="248" type="curve" smooth="yes"/>
      <point x="384" y="214" type="line" smooth="yes"/>
      <point x="384" y="178"/>
      <point x="360" y="152"/>
      <point x="303" y="152" type="curve" smooth="yes"/>
      <point x="235" y="152"/>
      <point x="205" y="152"/>
    </contour>
    <contour>
      <point x="232" y="545" type="curve"/>
      <point x="267" y="545"/>
      <point x="296" y="545"/>
      <point x="342" y="545" type="curve" smooth="yes"/>
      <point x="415" y="545"/>
      <point x="454" y="537"/>
      <point x="504" y="521" type="curve"/>
      <point x="524" y="521" type="line"/>
      <point x="524" y="568"/>
      <point x="524" y="622"/>
      <point x="524" y="686" type="curve" smooth="yes"/>
      <point x="524" y="688"/>
      <point x="524" y="691"/>
      <point x="522" y="693" type="curve" smooth="yes"/>
      <point x="510" y="704"/>
      <point x="433" y="720"/>
      <point x="350" y="720" type="curve" smooth="yes"/>
      <point x="254" y="720"/>
      <point x="232" y="649"/>
    </contour>
    <contour>
      <point x="40" y="409" type="curve" smooth="yes"/>
      <point x="40" y="254" type="line" smooth="yes"/>
      <point x="40" y="76"/>
      <point x="137" y="-22"/>
      <point x="307" y="-22" type="curve" smooth="yes"/>
      <point x="316" y="-22"/>
      <point x="348" y="11"/>
      <point x="303" y="152" type="curve"/>
      <point x="248" y="152"/>
      <point x="225" y="179"/>
      <point x="225" y="248" type="curve" smooth="yes"/>
      <point x="225" y="407" type="line" smooth="yes"/>
      <point x="225" y="505"/>
      <point x="248" y="545"/>
      <point x="342" y="545" type="curve"/>
      <point x="395" y="693"/>
      <point x="365" y="720"/>
      <point x="350" y="720" type="curve" smooth="yes"/>
      <point x="188" y="720"/>
      <point x="40" y="640"/>
    </contour>
    <contour>
      <point x="376" y="450" type="curve" smooth="yes"/>
      <point x="310" y="450"/>
      <point x="259" y="429"/>
      <point x="222" y="392" type="curve" smooth="yes"/>
      <point x="202" y="372"/>
      <point x="192" y="336"/>
      <point x="192" y="264" type="curve"/>
      <point x="238" y="288"/>
      <point x="277" y="297"/>
      <point x="318" y="297" type="curve" smooth="yes"/>
      <point x="366" y="297"/>
      <point x="384" y="282"/>
      <point x="384" y="243" type="curve" smooth="yes"/>
      <point x="384" y="232"/>
      <point x="384" y="217"/>
      <point x="384" y="192" type="curve"/>
      <point x="540" y="192"/>
      <point x="564" y="234"/>
      <point x="564" y="258" type="curve" smooth="yes"/>
      <point x="564" y="378"/>
      <point x="488" y="450"/>
    </contour>
  </outline>
</glyph>
<glyph name="seven" format="1">
  <advance width="600"/>
  <unicode hex="0037"/>
  <outline>
    <contour>
      <point x="430" y="516" type="line" smooth="yes"/>
      <point x="480" y="516"/>
      <point x="525" y="520"/>
      <point x="560" y="537" type="curve"/>
      <point x="560" y="689" type="line"/>
      <point x="560" y="695"/>
      <point x="555" y="700"/>
      <point x="549" y="700" type="curve"/>
      <point x="40" y="700" type="line"/>
      <point x="40" y="634" type="line" smooth="yes"/>
      <point x="40" y="559"/>
      <point x="59" y="516"/>
      <point x="88" y="516" type="curve" smooth="yes"/>
    </contour>
    <contour>
      <point x="347" y="0" type="line"/>
      <point x="510" y="406"/>
      <point x="560" y="531"/>
      <point x="560" y="537" type="curve" smooth="yes"/>
      <point x="560" y="586"/>
      <point x="507" y="602"/>
      <point x="414" y="602" type="curve"/>
      <point x="184" y="127"/>
      <point x="142" y="26"/>
      <point x="142" y="11" type="curve" smooth="yes"/>
      <point x="142" y="6"/>
      <point x="147" y="0"/>
      <point x="152" y="0" type="curve" smooth="yes"/>
    </contour>
    <contour>
      <point x="218" y="450" type="curve"/>
      <point x="218" y="505"/>
      <point x="218" y="588"/>
      <point x="218" y="644" type="curve"/>
      <point x="218" y="682"/>
      <point x="173" y="700"/>
      <point x="54" y="700" type="curve" smooth="yes"/>
      <point x="40" y="700" type="line"/>
      <point x="40" y="630"/>
      <point x="40" y="530"/>
      <point x="40" y="460" type="curve"/>
      <point x="40" y="454"/>
      <point x="45" y="450"/>
      <point x="51" y="450" type="curve" smooth="yes"/>
      <point x="106" y="450"/>
      <point x="162" y="450"/>
    </contour>
  </outline>
</glyph>
<glyph name="eight" format="1">
  <advance width="600"/>
  <unicode hex="0038"/>
  <outline>
    <contour>
      <point x="405" y="390" type="curve" smooth="yes"/>
      <point x="273" y="438" type="line" smooth="yes"/>
      <point x="246" y="448"/>
      <point x="230" y="466"/>
      <point x="230" y="490" type="curve" smooth="yes"/>
      <point x="230" y="500"/>
      <point x="230" y="525"/>
      <point x="230" y="551" type="curve"/>
      <point x="109" y="550"/>
      <point x="60" y="538"/>
      <point x="60" y="494" type="curve" smooth="yes"/>
      <point x="60" y="403"/>
      <point x="108" y="341"/>
      <point x="216" y="300" type="curve" smooth="yes"/>
      <point x="342" y="252" type="line" smooth="yes"/>
      <point x="379" y="238"/>
      <point x="390" y="228"/>
      <point x="390" y="202" type="curve" smooth="yes"/>
      <point x="390" y="167"/>
      <point x="390" y="158"/>
      <point x="390" y="136" type="curve"/>
      <point x="518" y="136"/>
      <point x="560" y="169"/>
      <point x="560" y="206" type="curve"/>
      <point x="560" y="294"/>
      <point x="508" y="352"/>
    </contour>
    <contour>
      <point x="298" y="-20" type="curve" smooth="yes"/>
      <point x="462" y="-20"/>
      <point x="560" y="56"/>
      <point x="560" y="161" type="curve" smooth="yes"/>
      <point x="560" y="206" type="line" smooth="yes"/>
      <point x="560" y="233"/>
      <point x="518" y="260"/>
      <point x="390" y="260" type="curve"/>
      <point x="390" y="250"/>
      <point x="390" y="225"/>
      <point x="390" y="195" type="curve" smooth="yes"/>
      <point x="390" y="167"/>
      <point x="362" y="150"/>
      <point x="298" y="150" type="curve" smooth="yes"/>
      <point x="253" y="150"/>
      <point x="226" y="150"/>
      <point x="194" y="150" type="curve"/>
      <point x="194" y="30"/>
      <point x="226" y="-20"/>
    </contour>
    <contour>
      <point x="302" y="720" type="curve" smooth="yes"/>
      <point x="154" y="720"/>
      <point x="60" y="638"/>
      <point x="60" y="526" type="curve" smooth="yes"/>
      <point x="60" y="494" type="line" smooth="yes"/>
      <point x="60" y="459"/>
      <point x="97" y="438"/>
      <point x="230" y="438" type="curve"/>
      <point x="230" y="450"/>
      <point x="230" y="478"/>
      <point x="230" y="501" type="curve" smooth="yes"/>
      <point x="230" y="531"/>
      <point x="254" y="550"/>
      <point x="304" y="550" type="curve" smooth="yes"/>
      <point x="354" y="550"/>
      <point x="372" y="550"/>
      <point x="407" y="550" type="curve"/>
      <point x="407" y="678"/>
      <point x="374" y="720"/>
    </contour>
    <contour>
      <point x="380" y="358" type="curve" smooth="yes"/>
      <point x="456" y="358"/>
      <point x="540" y="428"/>
      <point x="540" y="502" type="curve" smooth="yes"/>
      <point x="540" y="533" type="line" smooth="yes"/>
      <point x="540" y="642"/>
      <point x="446" y="720"/>
      <point x="302" y="720" type="curve" smooth="yes"/>
      <point x="280" y="720"/>
      <point x="278" y="690"/>
      <point x="304" y="550" type="curve"/>
      <point x="353" y="550"/>
      <point x="370" y="534"/>
      <point x="370" y="502" type="curve" smooth="yes"/>
      <point x="370" y="487" type="line" smooth="yes"/>
      <point x="370" y="456"/>
      <point x="354" y="424"/>
      <point x="303" y="408" type="curve"/>
      <point x="316" y="380"/>
      <point x="348" y="358"/>
    </contour>
    <contour>
      <point x="298" y="150" type="curve"/>
      <point x="236" y="150"/>
      <point x="210" y="166"/>
      <point x="210" y="198" type="curve" smooth="yes"/>
      <point x="210" y="210" type="line" smooth="yes"/>
      <point x="210" y="243"/>
      <point x="232" y="282"/>
      <point x="293" y="294" type="curve"/>
      <point x="279" y="332"/>
      <point x="262" y="349"/>
      <point x="216" y="349" type="curve" smooth="yes"/>
      <point x="132" y="349"/>
      <point x="40" y="281"/>
      <point x="40" y="200" type="curve" smooth="yes"/>
      <point x="40" y="164" type="line" smooth="yes"/>
      <point x="40" y="46"/>
      <point x="133" y="-20"/>
      <point x="298" y="-20" type="curve" smooth="yes"/>
      <point x="316" y="-20"/>
      <point x="335" y="14"/>
    </contour>
  </outline>
</glyph>
<glyph name="nine" format="1">
  <advance width="600"/>
  <unicode hex="0039"/>
  <outline>
    <contour>
      <point x="426" y="548" type="curve"/>
      <point x="426" y="670"/>
      <point x="365" y="720"/>
      <point x="288" y="720" type="curve"/>
      <point x="140" y="720"/>
      <point x="36" y="626"/>
      <point x="36" y="504" type="curve" smooth="yes"/>
      <point x="36" y="436" type="line" smooth="yes"/>
      <point x="36" y="378"/>
      <point x="86" y="360"/>
      <point x="217" y="360" type="curve"/>
      <point x="217" y="396"/>
      <point x="217" y="412"/>
      <point x="217" y="446" type="curve" smooth="yes"/>
      <point x="217" y="484" type="line" smooth="yes"/>
      <point x="217" y="524"/>
      <point x="243" y="548"/>
      <point x="296" y="548" type="curve" smooth="yes"/>
      <point x="365" y="548"/>
      <point x="395" y="548"/>
    </contour>
    <contour>
      <point x="399" y="154" type="curve"/>
      <point x="353" y="154"/>
      <point x="313" y="154"/>
      <point x="252" y="154" type="curve" smooth="yes"/>
      <point x="187" y="154"/>
      <point x="149" y="161"/>
      <point x="96" y="178" type="curve"/>
      <point x="76" y="178" type="line"/>
      <point x="76" y="131"/>
      <point x="76" y="79"/>
      <point x="76" y="16" type="curve" smooth="yes"/>
      <point x="76" y="12"/>
      <point x="77" y="10"/>
      <point x="79" y="8" type="curve" smooth="yes"/>
      <point x="93" y="-6"/>
      <point x="181" y="-21"/>
      <point x="260" y="-21" type="curve" smooth="yes"/>
      <point x="356" y="-21"/>
      <point x="399" y="34"/>
    </contour>
    <contour>
      <point x="560" y="278" type="curve" smooth="yes"/>
      <point x="560" y="445" type="line" smooth="yes"/>
      <point x="560" y="622"/>
      <point x="463" y="720"/>
      <point x="288" y="720" type="curve" smooth="yes"/>
      <point x="267" y="720"/>
      <point x="254" y="677"/>
      <point x="296" y="548" type="curve"/>
      <point x="353" y="548"/>
      <point x="376" y="520"/>
      <point x="376" y="450" type="curve" smooth="yes"/>
      <point x="376" y="287" type="line" smooth="yes"/>
      <point x="376" y="194"/>
      <point x="352" y="154"/>
      <point x="252" y="154" type="curve"/>
      <point x="228" y="38"/>
      <point x="240" y="-21"/>
      <point x="260" y="-21" type="curve" smooth="yes"/>
      <point x="453" y="-21"/>
      <point x="560" y="84"/>
    </contour>
    <contour>
      <point x="224" y="244" type="curve" smooth="yes"/>
      <point x="288" y="244"/>
      <point x="339" y="263"/>
      <point x="378" y="302" type="curve" smooth="yes"/>
      <point x="399" y="323"/>
      <point x="408" y="362"/>
      <point x="408" y="430" type="curve"/>
      <point x="362" y="405"/>
      <point x="320" y="397"/>
      <point x="276" y="397" type="curve" smooth="yes"/>
      <point x="232" y="397"/>
      <point x="217" y="412"/>
      <point x="217" y="451" type="curve" smooth="yes"/>
      <point x="217" y="464"/>
      <point x="217" y="481"/>
      <point x="217" y="507" type="curve"/>
      <point x="80" y="507"/>
      <point x="36" y="471"/>
      <point x="36" y="436" type="curve" smooth="yes"/>
      <point x="36" y="318"/>
      <point x="111" y="244"/>
    </contour>
  </outline>
</glyph>
<glyph name="colon" format="1">
  <advance width="600"/>
  <unicode hex="003A"/>
  <outline>
    <contour>
      <point x="412" y="331" type="curve"/>
      <point x="412" y="545" type="line" smooth="yes"/>
      <point x="412" y="551"/>
      <point x="407" y="556"/>
      <point x="401" y="556" type="curve" smooth="yes"/>
      <point x="328" y="556"/>
      <point x="262" y="556"/>
      <point x="188" y="556" type="curve"/>
      <point x="188" y="342" type="line" smooth="yes"/>
      <point x="188" y="336"/>
      <point x="193" y="331"/>
      <point x="199" y="331" type="curve" smooth="yes"/>
      <point x="272" y="331"/>
      <point x="338" y="331"/>
    </contour>
    <contour>
      <point x="412" y="-12" type="curve"/>
      <point x="412" y="202" type="line" smooth="yes"/>
      <point x="412" y="208"/>
      <point x="407" y="214"/>
      <point x="401" y="214" type="curve" smooth="yes"/>
      <point x="328" y="214"/>
      <point x="262" y="214"/>
      <point x="188" y="214" type="curve"/>
      <point x="188" y="0" type="line" smooth="yes"/>
      <point x="188" y="-6"/>
      <point x="193" y="-12"/>
      <point x="199" y="-12" type="curve" smooth="yes"/>
      <point x="272" y="-12"/>
      <point x="338" y="-12"/>
    </contour>
  </outline>
</glyph>
<glyph name="semicolon" format="1">
  <advance width="600"/>
  <unicode hex="003B"/>
  <outline>
    <contour>
      <point x="412" y="331" type="curve"/>
      <point x="412" y="545" type="line" smooth="yes"/>
      <point x="412" y="551"/>
      <point x="407" y="556"/>
      <point x="401" y="556" type="curve" smooth="yes"/>
      <point x="328" y="556"/>
      <point x="262" y="556"/>
      <point x="188" y="556" type="curve"/>
      <point x="188" y="342" type="line" smooth="yes"/>
      <point x="188" y="336"/>
      <point x="193" y="331"/>
      <point x="199" y="331" type="curve" smooth="yes"/>
      <point x="272" y="331"/>
      <point x="338" y="331"/>
    </contour>
    <contour>
      <point x="324" y="-256" type="curve" smooth="yes"/>
      <point x="328" y="-256"/>
      <point x="332" y="-254"/>
      <point x="334" y="-248" type="curve"/>
      <point x="374" y="-134"/>
      <point x="426" y="4"/>
      <point x="456" y="88" type="curve"/>
      <point x="458" y="96"/>
      <point x="456" y="101"/>
      <point x="448" y="101" type="curve" smooth="yes"/>
      <point x="366" y="101"/>
      <point x="316" y="101"/>
      <point x="220" y="101" type="curve"/>
      <point x="196" y="-18"/>
      <point x="172" y="-137"/>
      <point x="148" y="-256" type="curve"/>
      <point x="194" y="-256"/>
      <point x="247" y="-256"/>
    </contour>
  </outline>
</glyph>
<glyph name="less" format="1">
  <advance width="600"/>
  <unicode hex="003C"/>
  <outline>
    <contour>
      <point x="520" y="418" type="curve"/>
      <point x="520" y="586" type="line"/>
      <point x="520" y="592"/>
      <point x="516" y="596"/>
      <point x="510" y="596" type="curve" smooth="yes"/>
      <point x="506" y="596"/>
      <point x="501" y="595"/>
      <point x="485" y="589" type="curve" smooth="yes"/>
      <point x="436" y="570"/>
      <point x="220" y="482"/>
      <point x="78" y="426" type="curve"/>
      <point x="78" y="212" type="line"/>
      <point x="99" y="243"/>
      <point x="128" y="271"/>
      <point x="203" y="298" type="curve"/>
      <point x="308" y="338"/>
      <point x="415" y="378"/>
    </contour>
    <contour>
      <point x="518" y="0" type="curve"/>
      <point x="518" y="58"/>
      <point x="518" y="110"/>
      <point x="518" y="168" type="curve" smooth="yes"/>
      <point x="518" y="179"/>
      <point x="516" y="184"/>
      <point x="506" y="188" type="curve" smooth="yes"/>
      <point x="428" y="216"/>
      <point x="346" y="246"/>
      <point x="270" y="274" type="curve" smooth="yes"/>
      <point x="258" y="278"/>
      <point x="254" y="284"/>
      <point x="254" y="296" type="curve" smooth="yes"/>
      <point x="254" y="318"/>
      <point x="254" y="348"/>
      <point x="254" y="392" type="curve"/>
      <point x="124" y="394"/>
      <point x="78" y="296"/>
      <point x="78" y="226" type="curve" smooth="yes"/>
      <point x="78" y="188" type="line" smooth="yes"/>
      <point x="78" y="176"/>
      <point x="83" y="170"/>
      <point x="95" y="165" type="curve" smooth="yes"/>
      <point x="237" y="110"/>
      <point x="377" y="56"/>
    </contour>
  </outline>
</glyph>
<glyph name="greater" format="1">
  <advance width="600"/>
  <unicode hex="003E"/>
  <outline>
    <contour>
      <point x="80" y="182" type="curve"/>
      <point x="80" y="14" type="line"/>
      <point x="80" y="8"/>
      <point x="84" y="3"/>
      <point x="90" y="3" type="curve" smooth="yes"/>
      <point x="94" y="3"/>
      <point x="99" y="4"/>
      <point x="115" y="10" type="curve" smooth="yes"/>
      <point x="164" y="30"/>
      <point x="380" y="117"/>
      <point x="522" y="174" type="curve"/>
      <point x="522" y="388" type="line"/>
      <point x="501" y="356"/>
      <point x="472" y="328"/>
      <point x="397" y="301" type="curve"/>
      <point x="292" y="262"/>
      <point x="185" y="221"/>
    </contour>
    <contour>
      <point x="82" y="599" type="curve"/>
      <point x="82" y="541"/>
      <point x="82" y="489"/>
      <point x="82" y="431" type="curve" smooth="yes"/>
      <point x="82" y="420"/>
      <point x="84" y="416"/>
      <point x="94" y="412" type="curve" smooth="yes"/>
      <point x="172" y="384"/>
      <point x="254" y="354"/>
      <point x="330" y="326" type="curve" smooth="yes"/>
      <point x="342" y="322"/>
      <point x="346" y="316"/>
      <point x="346" y="304" type="curve" smooth="yes"/>
      <point x="346" y="281"/>
      <point x="346" y="252"/>
      <point x="346" y="208" type="curve"/>
      <point x="476" y="206"/>
      <point x="522" y="304"/>
      <point x="522" y="373" type="curve" smooth="yes"/>
      <point x="522" y="412" type="line" smooth="yes"/>
      <point x="522" y="423"/>
      <point x="517" y="430"/>
      <point x="505" y="434" type="curve" smooth="yes"/>
      <point x="363" y="490"/>
      <point x="223" y="544"/>
    </contour>
  </outline>
</glyph>
<glyph name="at" format="1">
  <advance width="600"/>
  <unicode hex="0040"/>
  <outline>
    <contour>
      <point x="432" y="496" type="curve" smooth="yes"/>
      <point x="416" y="522"/>
      <point x="370" y="554"/>
      <point x="314" y="554" type="curve" smooth="yes"/>
      <point x="278" y="554"/>
      <point x="255" y="544"/>
      <point x="236" y="525" type="curve" smooth="yes"/>
      <point x="217" y="506"/>
      <point x="228" y="492"/>
      <point x="350" y="396" type="curve"/>
      <point x="350" y="420"/>
      <point x="361" y="427"/>
      <point x="378" y="427" type="curve" smooth="yes"/>
      <point x="408" y="427"/>
      <point x="431" y="423"/>
      <point x="453" y="409" type="curve"/>
      <point x="449" y="458"/>
      <point x="442" y="481"/>
    </contour>
    <contour>
      <point x="458" y="185" type="curve"/>
      <point x="434" y="150"/>
      <point x="398" y="134"/>
      <point x="368" y="134" type="curve" smooth="yes"/>
      <point x="355" y="134"/>
      <point x="350" y="142"/>
      <point x="350" y="156" type="curve" smooth="yes"/>
      <point x="350" y="396" type="line" smooth="yes"/>
      <point x="350" y="432"/>
      <point x="355" y="452"/>
      <point x="377" y="482" type="curve"/>
      <point x="276" y="542"/>
      <point x="258" y="546"/>
      <point x="236" y="525" type="curve" smooth="yes"/>
      <point x="211" y="500"/>
      <point x="202" y="469"/>
      <point x="202" y="427" type="curve" smooth="yes"/>
      <point x="202" y="108" type="line" smooth="yes"/>
      <point x="202" y="40"/>
      <point x="248" y="0"/>
      <point x="310" y="0" type="curve" smooth="yes"/>
      <point x="372" y="0"/>
      <point x="420" y="24"/>
      <point x="462" y="98" type="curve" smooth="yes"/>
      <point x="468" y="108"/>
      <point x="468" y="114"/>
    </contour>
    <contour>
      <point x="554" y="10" type="line"/>
      <point x="554" y="46"/>
      <point x="554" y="82"/>
      <point x="554" y="118" type="curve"/>
      <point x="554" y="532" type="line" smooth="yes"/>
      <point x="554" y="676"/>
      <point x="440" y="754"/>
      <point x="298" y="754" type="curve" smooth="yes"/>
      <point x="286" y="754"/>
      <point x="272" y="728"/>
      <point x="292" y="668" type="curve"/>
      <point x="370" y="668"/>
      <point x="406" y="634"/>
      <point x="406" y="557" type="curve" smooth="yes"/>
      <point x="406" y="107" type="line" smooth="yes"/>
      <point x="406" y="104"/>
      <point x="493" y="10"/>
      <point x="504" y="10" type="curve" smooth="yes"/>
    </contour>
    <contour>
      <point x="46" y="504" type="curve" smooth="yes"/>
      <point x="46" y="114" type="line" smooth="yes"/>
      <point x="46" y="-2"/>
      <point x="68" y="-75"/>
      <point x="113" y="-120" type="curve" smooth="yes"/>
      <point x="158" y="-165"/>
      <point x="301" y="-157"/>
      <point x="334" y="-107" type="curve"/>
      <point x="180" y="-107"/>
      <point x="140" y="-46"/>
      <point x="140" y="83" type="curve" smooth="yes"/>
      <point x="140" y="502" type="line" smooth="yes"/>
      <point x="140" y="594"/>
      <point x="193" y="668"/>
      <point x="292" y="668" type="curve" smooth="yes"/>
      <point x="351" y="668"/>
      <point x="386" y="654"/>
      <point x="418" y="628" type="curve"/>
      <point x="432" y="638"/>
      <point x="436" y="642"/>
      <point x="436" y="666" type="curve" smooth="yes"/>
      <point x="436" y="714"/>
      <point x="379" y="754"/>
      <point x="298" y="754" type="curve" smooth="yes"/>
      <point x="148" y="754"/>
      <point x="46" y="645"/>
    </contour>
    <contour>
      <point x="314" y="-192" type="curve" smooth="yes"/>
      <point x="384" y="-192"/>
      <point x="468" y="-175"/>
      <point x="480" y="-164" type="curve" smooth="yes"/>
      <point x="482" y="-162"/>
      <point x="483" y="-158"/>
      <point x="483" y="-156" type="curve" smooth="yes"/>
      <point x="483" y="-82" type="line"/>
      <point x="462" y="-82" type="line"/>
      <point x="428" y="-98"/>
      <point x="378" y="-107"/>
      <point x="334" y="-107" type="curve" smooth="yes"/>
      <point x="216" y="-107"/>
      <point x="179" y="-80"/>
      <point x="122" y="-16" type="curve"/>
      <point x="86" y="-58"/>
      <point x="100" y="-107"/>
      <point x="113" y="-120" type="curve"/>
      <point x="162" y="-168"/>
      <point x="224" y="-192"/>
    </contour>
  </outline>
</glyph>
<glyph name="A" format="1">
  <advance width="600"/>
  <unicode hex="0041"/>
  <outline>
    <contour>
      <point x="198" y="0" type="curve"/>
      <point x="253" y="311"/>
      <point x="275" y="445"/>
      <point x="301" y="598" type="curve"/>
      <point x="312" y="660"/>
      <point x="338" y="680"/>
      <point x="438" y="700" type="curve"/>
      <point x="152" y="700" type="line"/>
      <point x="121" y="534"/>
      <point x="76" y="298"/>
      <point x="22" y="13" type="curve"/>
      <point x="20" y="3"/>
      <point x="26" y="0"/>
      <point x="30" y="0" type="curve" smooth="yes"/>
      <point x="86" y="0"/>
      <point x="142" y="0"/>
    </contour>
    <contour>
      <point x="581" y="0" type="curve"/>
      <point x="532" y="253"/>
      <point x="488" y="488"/>
      <point x="450" y="689" type="curve"/>
      <point x="448" y="694"/>
      <point x="448" y="695"/>
      <point x="446" y="697" type="curve" smooth="yes"/>
      <point x="442" y="700"/>
      <point x="442" y="700"/>
      <point x="438" y="700" type="curve"/>
      <point x="280" y="700"/>
      <point x="254" y="688"/>
      <point x="254" y="536" type="curve"/>
      <point x="270" y="536"/>
      <point x="292" y="536"/>
      <point x="304" y="536" type="curve" smooth="yes"/>
      <point x="308" y="536"/>
      <point x="310" y="534"/>
      <point x="312" y="530" type="curve"/>
      <point x="335" y="388"/>
      <point x="360" y="240"/>
      <point x="400" y="11" type="curve"/>
      <point x="401" y="6"/>
      <point x="402" y="4"/>
      <point x="403" y="3" type="curve" smooth="yes"/>
      <point x="405" y="1"/>
      <point x="407" y="0"/>
      <point x="411" y="0" type="curve" smooth="yes"/>
      <point x="468" y="0"/>
      <point x="524" y="0"/>
    </contour>
    <contour>
      <point x="144" y="291" type="line"/>
      <point x="144" y="136" type="line" smooth="yes"/>
      <point x="144" y="133"/>
      <point x="144" y="130"/>
      <point x="146" y="128" type="curve" smooth="yes"/>
      <point x="148" y="126"/>
      <point x="152" y="125"/>
      <point x="154" y="125" type="curve"/>
      <point x="464" y="125" type="line"/>
      <point x="464" y="284"/>
      <point x="458" y="291"/>
      <point x="452" y="291" type="curve" smooth="yes"/>
    </contour>
    <contour>
      <point x="300" y="711" type="move" name="top"/>
    </contour>
    <contour>
      <point x="582" y="0" type="move" name="ogonek"/>
    </contour>
    <contour>
      <point x="300" y="700" type="move" name="ring"/>
    </contour>
    <contour>
      <point x="300" y="-1" type="move" name="bottom"/>
    </contour>
  </outline>
</glyph>
<glyph name="B" format="1">
  <advance width="600"/>
  <unicode hex="0042"/>
  <outline>
    <contour>
      <point x="245" y="8" type="curve"/>
      <point x="245" y="647" type="line" smooth="yes"/>
      <point x="245" y="654"/>
      <point x="214" y="660"/>
      <point x="55" y="660" type="curve"/>
      <point x="55" y="11" type="line"/>
      <point x="55" y="8"/>
      <point x="165" y="8"/>
    </contour>
    <contour>
      <point x="18" y="700" type="curve"/>
      <point x="18" y="655"/>
      <point x="18" y="601"/>
      <point x="18" y="550" type="curve" smooth="yes"/>
      <point x="18" y="547"/>
      <point x="18" y="544"/>
      <point x="20" y="542" type="curve" smooth="yes"/>
      <point x="22" y="540"/>
      <point x="26" y="539"/>
      <point x="28" y="539" type="curve" smooth="yes"/>
      <point x="44" y="539"/>
      <point x="84" y="539"/>
      <point x="100" y="539" type="curve" smooth="yes"/>
      <point x="168" y="539"/>
      <point x="240" y="539"/>
      <point x="306" y="539" type="curve" smooth="yes"/>
      <point x="395" y="539"/>
      <point x="416" y="539"/>
      <point x="458" y="539" type="curve"/>
      <point x="458" y="648"/>
      <point x="414" y="700"/>
      <point x="330" y="700" type="curve" smooth="yes"/>
      <point x="233" y="700"/>
      <point x="117" y="700"/>
    </contour>
    <contour>
      <point x="555" y="496" type="curve" smooth="yes"/>
      <point x="555" y="528" type="line" smooth="yes"/>
      <point x="555" y="602"/>
      <point x="500" y="700"/>
      <point x="330" y="700" type="curve" smooth="yes"/>
      <point x="307" y="700"/>
      <point x="291" y="672"/>
      <point x="306" y="539" type="curve"/>
      <point x="350" y="539"/>
      <point x="368" y="522"/>
      <point x="368" y="488" type="curve" smooth="yes"/>
      <point x="368" y="464" type="line" smooth="yes"/>
      <point x="368" y="430"/>
      <point x="346" y="412"/>
      <point x="309" y="412" type="curve" smooth="yes"/>
      <point x="264" y="412"/>
      <point x="231" y="412"/>
      <point x="187" y="412" type="curve"/>
      <point x="187" y="395"/>
      <point x="187" y="374"/>
      <point x="187" y="354" type="curve" smooth="yes"/>
      <point x="187" y="348"/>
      <point x="193" y="344"/>
      <point x="200" y="344" type="curve" smooth="yes"/>
      <point x="372" y="344" type="line" smooth="yes"/>
      <point x="473" y="344"/>
      <point x="555" y="411"/>
    </contour>
    <contour>
      <point x="558" y="176" type="curve" smooth="yes"/>
      <point x="558" y="210" type="line" smooth="yes"/>
      <point x="558" y="296"/>
      <point x="461" y="364"/>
      <point x="362" y="364" type="curve" smooth="yes"/>
      <point x="202" y="364" type="line" smooth="yes"/>
      <point x="194" y="364"/>
      <point x="187" y="359"/>
      <point x="187" y="352" type="curve"/>
      <point x="187" y="290" type="line"/>
      <point x="300" y="290" type="line"/>
      <point x="348" y="290"/>
      <point x="365" y="274"/>
      <point x="365" y="240" type="curve" smooth="yes"/>
      <point x="365" y="213" type="line" smooth="yes"/>
      <point x="365" y="180"/>
      <point x="348" y="161"/>
      <point x="304" y="161" type="curve" smooth="yes"/>
      <point x="247" y="161"/>
      <point x="180" y="161"/>
      <point x="114" y="161" type="curve"/>
      <point x="58" y="36"/>
      <point x="55" y="14"/>
      <point x="55" y="11" type="curve" smooth="yes"/>
      <point x="55" y="4"/>
      <point x="59" y="0"/>
      <point x="66" y="0" type="curve" smooth="yes"/>
      <point x="351" y="0" type="line" smooth="yes"/>
      <point x="476" y="0"/>
      <point x="558" y="62"/>
    </contour>
  </outline>
</glyph>
<glyph name="D" format="1">
  <advance width="600"/>
  <unicode hex="0044"/>
  <outline>
    <contour>
      <point x="245" y="4" type="curve"/>
      <point x="245" y="639" type="line" smooth="yes"/>
      <point x="245" y="645"/>
      <point x="240" y="650"/>
      <point x="55" y="650" type="curve"/>
      <point x="55" y="11" type="line" smooth="yes"/>
      <point x="55" y="6"/>
      <point x="67" y="4"/>
    </contour>
    <contour>
      <point x="22" y="700" type="curve"/>
      <point x="22" y="646"/>
      <point x="22" y="594"/>
      <point x="22" y="540" type="curve"/>
      <point x="22" y="537"/>
      <point x="24" y="534"/>
      <point x="26" y="532" type="curve" smooth="yes"/>
      <point x="28" y="530"/>
      <point x="30" y="529"/>
      <point x="34" y="529" type="curve" smooth="yes"/>
      <point x="50" y="529"/>
      <point x="86" y="529"/>
      <point x="104" y="529" type="curve" smooth="yes"/>
      <point x="166" y="529"/>
      <point x="238" y="529"/>
      <point x="294" y="529" type="curve" smooth="yes"/>
      <point x="342" y="529"/>
      <point x="372" y="529"/>
      <point x="420" y="529" type="curve"/>
      <point x="420" y="640"/>
      <point x="389" y="700"/>
      <point x="316" y="700" type="curve" smooth="yes"/>
      <point x="248" y="700"/>
      <point x="95" y="700"/>
    </contour>
    <contour>
      <point x="558" y="244" type="curve" smooth="yes"/>
      <point x="558" y="454" type="line" smooth="yes"/>
      <point x="558" y="607"/>
      <point x="479" y="700"/>
      <point x="316" y="700" type="curve"/>
      <point x="300" y="700"/>
      <point x="282" y="688"/>
      <point x="294" y="529" type="curve"/>
      <point x="343" y="529"/>
      <point x="365" y="514"/>
      <point x="365" y="446" type="curve" smooth="yes"/>
      <point x="365" y="248" type="line" smooth="yes"/>
      <point x="365" y="200"/>
      <point x="337" y="171"/>
      <point x="292" y="171" type="curve" smooth="yes"/>
      <point x="274" y="171"/>
      <point x="125" y="171"/>
      <point x="90" y="171" type="curve"/>
      <point x="66" y="118"/>
      <point x="55" y="74"/>
      <point x="55" y="11" type="curve" smooth="yes"/>
      <point x="55" y="5"/>
      <point x="60" y="0"/>
      <point x="66" y="0" type="curve" smooth="yes"/>
      <point x="324" y="0" type="line" smooth="yes"/>
      <point x="469" y="0"/>
      <point x="558" y="92"/>
    </contour>
    <contour>
      <point x="290" y="711" type="move" name="top"/>
    </contour>
  </outline>
</glyph>
<glyph name="E" format="1">
  <advance width="600"/>
  <unicode hex="0045"/>
  <outline>
    <contour>
      <point x="18" y="700" type="line"/>
      <point x="18" y="647"/>
      <point x="18" y="598"/>
      <point x="18" y="545" type="curve" smooth="yes"/>
      <point x="18" y="542"/>
      <point x="18" y="539"/>
      <point x="20" y="537" type="curve" smooth="yes"/>
      <point x="22" y="535"/>
      <point x="26" y="534"/>
      <point x="28" y="534" type="curve" smooth="yes"/>
      <point x="555" y="534" type="line"/>
      <point x="555" y="587"/>
      <point x="555" y="636"/>
      <point x="555" y="689" type="curve" smooth="yes"/>
      <point x="555" y="692"/>
      <point x="554" y="695"/>
      <point x="552" y="697" type="curve" smooth="yes"/>
      <point x="550" y="699"/>
      <point x="547" y="700"/>
      <point x="544" y="700" type="curve" smooth="yes"/>
    </contour>
    <contour>
      <point x="248" y="100" type="curve"/>
      <point x="248" y="639" type="line" smooth="yes"/>
      <point x="248" y="645"/>
      <point x="242" y="650"/>
      <point x="55" y="650" type="curve"/>
      <point x="55" y="126" type="line"/>
      <point x="55" y="113"/>
      <point x="72" y="100"/>
    </contour>
    <contour>
      <point x="55" y="166" type="line"/>
      <point x="55" y="11" type="line" smooth="yes"/>
      <point x="55" y="5"/>
      <point x="60" y="0"/>
      <point x="66" y="0" type="curve" smooth="yes"/>
      <point x="555" y="0" type="line"/>
      <point x="555" y="53"/>
      <point x="555" y="102"/>
      <point x="555" y="155" type="curve" smooth="yes"/>
      <point x="555" y="161"/>
      <point x="550" y="166"/>
      <point x="544" y="166" type="curve" smooth="yes"/>
    </contour>
    <contour>
      <point x="145" y="428" type="line"/>
      <point x="145" y="279"/>
      <point x="150" y="274"/>
      <point x="156" y="274" type="curve" smooth="yes"/>
      <point x="495" y="274" type="line"/>
      <point x="495" y="320"/>
      <point x="495" y="366"/>
      <point x="495" y="416" type="curve" smooth="yes"/>
      <point x="495" y="420"/>
      <point x="494" y="422"/>
      <point x="492" y="424" type="curve" smooth="yes"/>
      <point x="490" y="426"/>
      <point x="487" y="428"/>
      <point x="484" y="428" type="curve" smooth="yes"/>
    </contour>
    <contour>
      <point x="294" y="711" type="move" name="top"/>
    </contour>
    <contour>
      <point x="556" y="0" type="move" name="ogonek"/>
    </contour>
    <contour>
      <point x="321" y="-1" type="move" name="bottom"/>
    </contour>
  </outline>
</glyph>
<glyph name="F" format="1">
  <advance width="600"/>
  <unicode hex="0046"/>
  <outline>
    <contour>
      <point x="268" y="0" type="curve"/>
      <point x="268" y="28"/>
      <point x="268" y="62"/>
      <point x="268" y="98" type="curve" smooth="yes"/>
      <point x="268" y="632" type="line"/>
      <point x="268" y="643"/>
      <point x="222" y="649"/>
      <point x="75" y="649" type="curve"/>
      <point x="75" y="11" type="line" smooth="yes"/>
      <point x="75" y="5"/>
      <point x="80" y="0"/>
      <point x="86" y="0" type="curve" smooth="yes"/>
      <point x="146" y="0"/>
      <point x="207" y="0"/>
    </contour>
    <contour>
      <point x="28" y="700" type="line"/>
      <point x="28" y="644"/>
      <point x="28" y="591"/>
      <point x="28" y="535" type="curve" smooth="yes"/>
      <point x="28" y="532"/>
      <point x="28" y="529"/>
      <point x="30" y="527" type="curve" smooth="yes"/>
      <point x="32" y="525"/>
      <point x="36" y="524"/>
      <point x="38" y="524" type="curve"/>
      <point x="555" y="524" type="line"/>
      <point x="555" y="570"/>
      <point x="555" y="643"/>
      <point x="555" y="689" type="curve" smooth="yes"/>
      <point x="555" y="692"/>
      <point x="554" y="695"/>
      <point x="552" y="697" type="curve" smooth="yes"/>
      <point x="550" y="699"/>
      <point x="547" y="700"/>
      <point x="544" y="700" type="curve"/>
    </contour>
    <contour>
      <point x="165" y="395" type="line"/>
      <point x="165" y="271"/>
      <point x="167" y="225"/>
      <point x="176" y="225" type="curve"/>
      <point x="505" y="225" type="line"/>
      <point x="505" y="271"/>
      <point x="505" y="338"/>
      <point x="505" y="384" type="curve"/>
      <point x="505" y="387"/>
      <point x="504" y="390"/>
      <point x="502" y="392" type="curve" smooth="yes"/>
      <point x="500" y="394"/>
      <point x="497" y="395"/>
      <point x="494" y="395" type="curve"/>
    </contour>
  </outline>
</glyph>
<glyph name="G" format="1">
  <advance width="587"/>
  <unicode hex="0047"/>
  <outline>
    <contour>
      <point x="320" y="551" type="curve" smooth="yes"/>
      <point x="370" y="551"/>
      <point x="398" y="540"/>
      <point x="431" y="516" type="curve"/>
      <point x="538" y="606"/>
      <point x="544" y="622"/>
      <point x="544" y="632" type="curve" smooth="yes"/>
      <point x="544" y="643"/>
      <point x="544" y="646"/>
      <point x="538" y="651" type="curve" smooth="yes"/>
      <point x="498" y="691"/>
      <point x="426" y="720"/>
      <point x="318" y="720" type="curve" smooth="yes"/>
      <point x="154" y="720"/>
      <point x="38" y="626"/>
      <point x="38" y="451" type="curve" smooth="yes"/>
      <point x="38" y="238" type="line" smooth="yes"/>
      <point x="38" y="188"/>
      <point x="123" y="132"/>
      <point x="230" y="133" type="curve"/>
      <point x="230" y="175"/>
      <point x="230" y="200"/>
      <point x="230" y="246" type="curve" smooth="yes"/>
      <point x="230" y="454" type="line" smooth="yes"/>
      <point x="230" y="518"/>
      <point x="258" y="551"/>
    </contour>
    <contour>
      <point x="316" y="150" type="curve" smooth="yes"/>
      <point x="258" y="150"/>
      <point x="230" y="178"/>
      <point x="230" y="246" type="curve"/>
      <point x="72" y="258"/>
      <point x="38" y="259"/>
      <point x="38" y="238" type="curve" smooth="yes"/>
      <point x="38" y="78"/>
      <point x="136" y="-20"/>
      <point x="310" y="-20" type="curve" smooth="yes"/>
      <point x="466" y="-20"/>
      <point x="548" y="47"/>
      <point x="548" y="66" type="curve" smooth="yes"/>
      <point x="548" y="299" type="line" smooth="yes"/>
      <point x="548" y="314"/>
      <point x="480" y="321"/>
      <point x="378" y="321" type="curve"/>
      <point x="378" y="271"/>
      <point x="378" y="216"/>
      <point x="378" y="166" type="curve" smooth="yes"/>
      <point x="378" y="161"/>
      <point x="359" y="150"/>
    </contour>
    <contour>
      <point x="308" y="400" type="line"/>
      <point x="308" y="354"/>
      <point x="308" y="308"/>
      <point x="308" y="261" type="curve" smooth="yes"/>
      <point x="308" y="258"/>
      <point x="308" y="255"/>
      <point x="310" y="253" type="curve" smooth="yes"/>
      <point x="312" y="251"/>
      <point x="316" y="250"/>
      <point x="318" y="250" type="curve"/>
      <point x="578" y="250" type="line"/>
      <point x="578" y="389" type="line" smooth="yes"/>
      <point x="578" y="395"/>
      <point x="572" y="400"/>
      <point x="566" y="400" type="curve" smooth="yes"/>
    </contour>
    <contour>
      <point x="544" y="480" type="curve"/>
      <point x="544" y="632" type="line" smooth="yes"/>
      <point x="544" y="651"/>
      <point x="536" y="656"/>
      <point x="374" y="656" type="curve"/>
      <point x="374" y="640"/>
      <point x="374" y="614"/>
      <point x="374" y="594" type="curve" smooth="yes"/>
      <point x="374" y="491" type="line" smooth="yes"/>
      <point x="374" y="484"/>
      <point x="378" y="480"/>
      <point x="386" y="480" type="curve" smooth="yes"/>
      <point x="438" y="480"/>
      <point x="491" y="480"/>
    </contour>
    <contour>
      <point x="308" y="711" type="move" name="top"/>
    </contour>
    <contour>
      <point x="308" y="-1" type="move" name="bottom"/>
    </contour>
  </outline>
</glyph>
<glyph name="H" format="1">
  <advance width="600"/>
  <unicode hex="0048"/>
  <outline>
    <contour>
      <point x="52" y="700" type="curve"/>
      <point x="52" y="666"/>
      <point x="52" y="631"/>
      <point x="52" y="596" type="curve" smooth="yes"/>
      <point x="52" y="11" type="line" smooth="yes"/>
      <point x="52" y="5"/>
      <point x="58" y="0"/>
      <point x="64" y="0" type="curve" smooth="yes"/>
      <point x="124" y="0"/>
      <point x="184" y="0"/>
      <point x="245" y="0" type="curve"/>
      <point x="245" y="689" type="line" smooth="yes"/>
      <point x="245" y="692"/>
      <point x="244" y="695"/>
      <point x="242" y="697" type="curve" smooth="yes"/>
      <point x="240" y="699"/>
      <point x="237" y="700"/>
      <point x="234" y="700" type="curve" smooth="yes"/>
      <point x="174" y="700"/>
      <point x="113" y="700"/>
    </contour>
    <contour>
      <point x="548" y="0" type="curve"/>
      <point x="548" y="32"/>
      <point x="548" y="68"/>
      <point x="548" y="105" type="curve" smooth="yes"/>
      <point x="548" y="689" type="line" smooth="yes"/>
      <point x="548" y="695"/>
      <point x="542" y="700"/>
      <point x="536" y="700" type="curve" smooth="yes"/>
      <point x="476" y="700"/>
      <point x="416" y="700"/>
      <point x="355" y="700" type="curve"/>
      <point x="355" y="11" type="line" smooth="yes"/>
      <point x="355" y="8"/>
      <point x="356" y="5"/>
      <point x="358" y="3" type="curve" smooth="yes"/>
      <point x="360" y="1"/>
      <point x="363" y="0"/>
      <point x="366" y="0" type="curve" smooth="yes"/>
      <point x="426" y="0"/>
      <point x="487" y="0"/>
    </contour>
    <contour>
      <point x="135" y="440" type="line"/>
      <point x="135" y="275" type="line" smooth="yes"/>
      <point x="135" y="272"/>
      <point x="136" y="269"/>
      <point x="138" y="267" type="curve" smooth="yes"/>
      <point x="140" y="265"/>
      <point x="143" y="264"/>
      <point x="146" y="264" type="curve"/>
      <point x="460" y="264" type="line"/>
      <point x="460" y="438"/>
      <point x="455" y="440"/>
      <point x="449" y="440" type="curve" smooth="yes"/>
    </contour>
    <contour>
      <point x="300" y="711" type="move" name="top"/>
    </contour>
  </outline>
</glyph>
<glyph name="I" format="1">
  <advance width="600"/>
  <unicode hex="0049"/>
  <outline>
    <contour>
      <point x="396" y="50" type="curve"/>
      <point x="396" y="639" type="line" smooth="yes"/>
      <point x="396" y="645"/>
      <point x="391" y="650"/>
      <point x="204" y="650" type="curve"/>
      <point x="204" y="61" type="line" smooth="yes"/>
      <point x="204" y="55"/>
      <point x="209" y="50"/>
    </contour>
    <contour>
      <point x="50" y="700" type="line"/>
      <point x="50" y="654"/>
      <point x="50" y="581"/>
      <point x="50" y="535" type="curve"/>
      <point x="50" y="532"/>
      <point x="51" y="529"/>
      <point x="53" y="527" type="curve" smooth="yes"/>
      <point x="55" y="525"/>
      <point x="58" y="524"/>
      <point x="61" y="524" type="curve" smooth="yes"/>
      <point x="550" y="524" type="line"/>
      <point x="550" y="570"/>
      <point x="550" y="643"/>
      <point x="550" y="689" type="curve" smooth="yes"/>
      <point x="550" y="695"/>
      <point x="545" y="700"/>
      <point x="539" y="700" type="curve" smooth="yes"/>
    </contour>
    <contour>
      <point x="50" y="176" type="line"/>
      <point x="50" y="130"/>
      <point x="50" y="57"/>
      <point x="50" y="11" type="curve"/>
      <point x="50" y="8"/>
      <point x="51" y="5"/>
      <point x="53" y="3" type="curve" smooth="yes"/>
      <point x="55" y="1"/>
      <point x="58" y="0"/>
      <point x="61" y="0" type="curve" smooth="yes"/>
      <point x="550" y="0" type="line"/>
      <point x="550" y="46"/>
      <point x="550" y="119"/>
      <point x="550" y="165" type="curve" smooth="yes"/>
      <point x="550" y="171"/>
      <point x="545" y="176"/>
      <point x="539" y="176" type="curve" smooth="yes"/>
    </contour>
    <contour>
      <point x="300" y="711" type="move" name="top"/>
    </contour>
    <contour>
      <point x="551" y="0" type="move" name="ogonek"/>
    </contour>
    <contour>
      <point x="300" y="-1" type="move" name="bottom"/>
    </contour>
  </outline>
</glyph>
<glyph name="J" format="1">
  <advance width="600"/>
  <unicode hex="004A"/>
  <outline>
    <contour>
      <point x="80" y="700" type="line"/>
      <point x="80" y="644"/>
      <point x="80" y="591"/>
      <point x="80" y="535" type="curve" smooth="yes"/>
      <point x="80" y="532"/>
      <point x="82" y="529"/>
      <point x="84" y="527" type="curve" smooth="yes"/>
      <point x="86" y="525"/>
      <point x="88" y="524"/>
      <point x="92" y="524" type="curve" smooth="yes"/>
      <point x="450" y="524" type="line"/>
      <point x="450" y="654"/>
      <point x="436" y="700"/>
      <point x="407" y="700" type="curve"/>
    </contour>
    <contour>
      <point x="534" y="245" type="curve" smooth="yes"/>
      <point x="534" y="689" type="line" smooth="yes"/>
      <point x="534" y="695"/>
      <point x="530" y="700"/>
      <point x="524" y="700" type="curve" smooth="yes"/>
      <point x="338" y="700" type="line"/>
      <point x="338" y="256" type="line" smooth="yes"/>
      <point x="338" y="184"/>
      <point x="338" y="156"/>
      <point x="338" y="114" type="curve"/>
      <point x="488" y="114"/>
      <point x="534" y="148"/>
    </contour>
    <contour>
      <point x="238" y="160" type="curve" smooth="yes"/>
      <point x="180" y="160"/>
      <point x="129" y="170"/>
      <point x="75" y="192" type="curve"/>
      <point x="55" y="192" type="line"/>
      <point x="55" y="140"/>
      <point x="55" y="80"/>
      <point x="55" y="26" type="curve"/>
      <point x="55" y="23"/>
      <point x="56" y="20"/>
      <point x="58" y="18" type="curve" smooth="yes"/>
      <point x="73" y="3"/>
      <point x="150" y="-20"/>
      <point x="228" y="-20" type="curve" smooth="yes"/>
      <point x="252" y="-20" type="line" smooth="yes"/>
      <point x="428" y="-20"/>
      <point x="534" y="68"/>
      <point x="534" y="245" type="curve"/>
      <point x="534" y="263"/>
      <point x="516" y="278"/>
      <point x="338" y="256" type="curve"/>
      <point x="338" y="182"/>
      <point x="303" y="160"/>
    </contour>
    <contour>
      <point x="294" y="711" type="move" name="top"/>
    </contour>
  </outline>
</glyph>
<glyph name="L" format="1">
  <advance width="600"/>
  <unicode hex="004C"/>
  <outline>
    <contour>
      <point x="250" y="100" type="curve"/>
      <point x="250" y="689" type="line" smooth="yes"/>
      <point x="250" y="692"/>
      <point x="249" y="695"/>
      <point x="247" y="697" type="curve" smooth="yes"/>
      <point x="245" y="699"/>
      <point x="242" y="700"/>
      <point x="239" y="700" type="curve" smooth="yes"/>
      <point x="176" y="700"/>
      <point x="115" y="700"/>
      <point x="52" y="700" type="curve"/>
      <point x="52" y="667"/>
      <point x="52" y="633"/>
      <point x="52" y="600" type="curve" smooth="yes"/>
      <point x="52" y="126" type="line" smooth="yes"/>
      <point x="52" y="120"/>
      <point x="58" y="100"/>
    </contour>
    <contour>
      <point x="52" y="181" type="line"/>
      <point x="52" y="11" type="line" smooth="yes"/>
      <point x="52" y="5"/>
      <point x="58" y="0"/>
      <point x="64" y="0" type="curve" smooth="yes"/>
      <point x="555" y="0" type="line"/>
      <point x="555" y="58"/>
      <point x="555" y="112"/>
      <point x="555" y="170" type="curve" smooth="yes"/>
      <point x="555" y="176"/>
      <point x="550" y="181"/>
      <point x="544" y="181" type="curve" smooth="yes"/>
    </contour>
    <contour>
      <point x="445" y="550" type="move" name="caronslovak"/>
    </contour>
    <contour>
      <point x="150" y="711" type="move" name="top"/>
    </contour>
    <contour>
      <point x="436" y="425" type="move" name="dot"/>
    </contour>
    <contour>
      <point x="304" y="-1" type="move" name="bottom"/>
    </contour>
  </outline>
</glyph>
<glyph name="M" format="1">
  <advance width="600"/>
  <unicode hex="004D"/>
  <outline>
    <contour>
      <point x="212" y="0" type="curve"/>
      <point x="212" y="48"/>
      <point x="212" y="96"/>
      <point x="212" y="143" type="curve" smooth="yes"/>
      <point x="176" y="342"/>
      <point x="155" y="531"/>
      <point x="155" y="690" type="curve" smooth="yes"/>
      <point x="155" y="693"/>
      <point x="154" y="695"/>
      <point x="152" y="697" type="curve" smooth="yes"/>
      <point x="150" y="699"/>
      <point x="147" y="700"/>
      <point x="144" y="700" type="curve" smooth="yes"/>
      <point x="108" y="700"/>
      <point x="68" y="700"/>
      <point x="38" y="700" type="curve"/>
      <point x="38" y="667"/>
      <point x="38" y="633"/>
      <point x="38" y="600" type="curve" smooth="yes"/>
      <point x="38" y="11" type="line" smooth="yes"/>
      <point x="38" y="8"/>
      <point x="39" y="5"/>
      <point x="41" y="3" type="curve" smooth="yes"/>
      <point x="43" y="1"/>
      <point x="46" y="0"/>
      <point x="49" y="0" type="curve" smooth="yes"/>
      <point x="103" y="0"/>
      <point x="158" y="0"/>
    </contour>
    <contour>
      <point x="562" y="0" type="curve"/>
      <point x="562" y="33"/>
      <point x="562" y="67"/>
      <point x="562" y="100" type="curve" smooth="yes"/>
      <point x="562" y="689" type="line" smooth="yes"/>
      <point x="562" y="692"/>
      <point x="561" y="695"/>
      <point x="559" y="697" type="curve" smooth="yes"/>
      <point x="557" y="699"/>
      <point x="554" y="700"/>
      <point x="551" y="700" type="curve" smooth="yes"/>
      <point x="445" y="700" type="line"/>
      <point x="445" y="696"/>
      <point x="445" y="692"/>
      <point x="445" y="688" type="curve" smooth="yes"/>
      <point x="445" y="524"/>
      <point x="425" y="342"/>
      <point x="388" y="143" type="curve" smooth="yes"/>
      <point x="388" y="99"/>
      <point x="388" y="55"/>
      <point x="388" y="11" type="curve" smooth="yes"/>
      <point x="388" y="8"/>
      <point x="389" y="5"/>
      <point x="391" y="3" type="curve" smooth="yes"/>
      <point x="393" y="1"/>
      <point x="396" y="0"/>
      <point x="399" y="0" type="curve"/>
      <point x="453" y="0"/>
      <point x="508" y="0"/>
    </contour>
    <contour>
      <point x="82" y="700" type="line"/>
      <point x="150" y="514"/>
      <point x="218" y="326"/>
      <point x="285" y="140" type="curve"/>
      <point x="288" y="134"/>
      <point x="293" y="132"/>
      <point x="297" y="132" type="curve"/>
      <point x="314" y="132"/>
      <point x="336" y="308"/>
      <point x="334" y="352" type="curve"/>
      <point x="294" y="467"/>
      <point x="254" y="580"/>
      <point x="216" y="691" type="curve"/>
      <point x="214" y="698"/>
      <point x="210" y="700"/>
      <point x="202" y="700" type="curve"/>
    </contour>
    <contour>
      <point x="445" y="700" type="curve" smooth="yes"/>
      <point x="426" y="700"/>
      <point x="408" y="700"/>
      <point x="389" y="700" type="curve"/>
      <point x="348" y="584"/>
      <point x="308" y="468"/>
      <point x="266" y="352" type="curve"/>
      <point x="256" y="322"/>
      <point x="280" y="132"/>
      <point x="297" y="132" type="curve"/>
      <point x="308" y="132" type="line"/>
      <point x="373" y="304"/>
      <point x="438" y="476"/>
      <point x="503" y="647" type="curve"/>
      <point x="515" y="677"/>
      <point x="496" y="700"/>
    </contour>
  </outline>
</glyph>
<glyph name="N" format="1">
  <advance width="600"/>
  <unicode hex="004E"/>
  <outline>
    <contour>
      <point x="228" y="0" type="curve"/>
      <point x="228" y="163" type="line"/>
      <point x="188" y="438"/>
      <point x="167" y="692"/>
      <point x="162" y="697" type="curve" smooth="yes"/>
      <point x="160" y="699"/>
      <point x="157" y="700"/>
      <point x="154" y="700" type="curve"/>
      <point x="119" y="700"/>
      <point x="69" y="700"/>
      <point x="48" y="700" type="curve"/>
      <point x="48" y="660"/>
      <point x="48" y="600"/>
      <point x="48" y="560" type="curve" smooth="yes"/>
      <point x="48" y="11" type="line"/>
      <point x="48" y="5"/>
      <point x="52" y="0"/>
      <point x="58" y="0" type="curve"/>
      <point x="114" y="0"/>
      <point x="172" y="0"/>
    </contour>
    <contour>
      <point x="552" y="0" type="line"/>
      <point x="552" y="689" type="line"/>
      <point x="552" y="695"/>
      <point x="548" y="700"/>
      <point x="542" y="700" type="curve"/>
      <point x="372" y="700" type="line"/>
      <point x="372" y="494" type="line"/>
      <point x="405" y="248"/>
      <point x="428" y="5"/>
      <point x="430" y="3" type="curve" smooth="yes"/>
      <point x="432" y="1"/>
      <point x="434" y="0"/>
      <point x="438" y="0" type="curve"/>
    </contour>
    <contour>
      <point x="154" y="700" type="line"/>
      <point x="85" y="690"/>
      <point x="94" y="675"/>
      <point x="100" y="659" type="curve" smooth="yes"/>
      <point x="196" y="442"/>
      <point x="290" y="225"/>
      <point x="386" y="8" type="curve"/>
      <point x="388" y="1"/>
      <point x="394" y="0"/>
      <point x="398" y="0" type="curve" smooth="yes"/>
      <point x="402" y="0"/>
      <point x="444" y="0"/>
      <point x="446" y="0" type="curve"/>
      <point x="462" y="0"/>
      <point x="461" y="90"/>
      <point x="452" y="142" type="curve"/>
      <point x="376" y="325"/>
      <point x="298" y="510"/>
      <point x="222" y="690" type="curve"/>
      <point x="218" y="698"/>
      <point x="216" y="700"/>
      <point x="204" y="700" type="curve"/>
    </contour>
    <contour>
      <point x="300" y="710" type="move" name="top"/>
    </contour>
    <contour>
      <point x="300" y="-1" type="move" name="bottom"/>
    </contour>
  </outline>
</glyph>
<glyph name="O" format="1">
  <advance width="600"/>
  <unicode hex="004F"/>
  <outline>
    <contour>
      <point x="298" y="720" type="curve" smooth="yes"/>
      <point x="150" y="720"/>
      <point x="42" y="626"/>
      <point x="42" y="469" type="curve" smooth="yes"/>
      <point x="42" y="228" type="line" smooth="yes"/>
      <point x="42" y="66"/>
      <point x="136" y="-20"/>
      <point x="302" y="-20" type="curve" smooth="yes"/>
      <point x="324" y="-20"/>
      <point x="342" y="4"/>
      <point x="300" y="151" type="curve"/>
      <point x="250" y="151"/>
      <point x="229" y="175"/>
      <point x="229" y="234" type="curve" smooth="yes"/>
      <point x="229" y="460" type="line" smooth="yes"/>
      <point x="229" y="522"/>
      <point x="256" y="549"/>
      <point x="300" y="549" type="curve" smooth="yes"/>
      <point x="362" y="549"/>
      <point x="392" y="549"/>
      <point x="419" y="549" type="curve"/>
      <point x="419" y="650"/>
      <point x="397" y="720"/>
    </contour>
    <contour>
      <point x="302" y="-20" type="curve" smooth="yes"/>
      <point x="448" y="-20"/>
      <point x="554" y="74"/>
      <point x="554" y="231" type="curve" smooth="yes"/>
      <point x="554" y="472" type="line" smooth="yes"/>
      <point x="554" y="634"/>
      <point x="462" y="720"/>
      <point x="298" y="720" type="curve" smooth="yes"/>
      <point x="282" y="720"/>
      <point x="268" y="704"/>
      <point x="300" y="549" type="curve"/>
      <point x="348" y="549"/>
      <point x="368" y="525"/>
      <point x="368" y="467" type="curve" smooth="yes"/>
      <point x="368" y="240" type="line" smooth="yes"/>
      <point x="368" y="178"/>
      <point x="342" y="151"/>
      <point x="300" y="151" type="curve" smooth="yes"/>
      <point x="237" y="151"/>
      <point x="206" y="151"/>
      <point x="178" y="151" type="curve"/>
      <point x="178" y="50"/>
      <point x="200" y="-20"/>
    </contour>
    <contour>
      <point x="298" y="711" type="move" name="top"/>
    </contour>
    <contour>
      <point x="416" y="10" type="move" name="ogonek"/>
    </contour>
    <contour>
      <point x="298" y="-1" type="move" name="bottom"/>
    </contour>
  </outline>
</glyph>
<glyph name="Q" format="1">
  <advance width="600"/>
  <unicode hex="0051"/>
  <outline>
    <contour>
      <point x="298" y="720" type="curve" smooth="yes"/>
      <point x="150" y="720"/>
      <point x="42" y="626"/>
      <point x="42" y="469" type="curve" smooth="yes"/>
      <point x="42" y="228" type="line" smooth="yes"/>
      <point x="42" y="66"/>
      <point x="136" y="-20"/>
      <point x="302" y="-20" type="curve" smooth="yes"/>
      <point x="324" y="-20"/>
      <point x="342" y="4"/>
      <point x="300" y="151" type="curve"/>
      <point x="250" y="151"/>
      <point x="229" y="175"/>
      <point x="229" y="234" type="curve" smooth="yes"/>
      <point x="229" y="460" type="line" smooth="yes"/>
      <point x="229" y="522"/>
      <point x="256" y="549"/>
      <point x="300" y="549" type="curve" smooth="yes"/>
      <point x="362" y="549"/>
      <point x="392" y="549"/>
      <point x="419" y="549" type="curve"/>
      <point x="419" y="650"/>
      <point x="397" y="720"/>
    </contour>
    <contour>
      <point x="302" y="-20" type="curve" smooth="yes"/>
      <point x="448" y="-20"/>
      <point x="554" y="74"/>
      <point x="554" y="231" type="curve" smooth="yes"/>
      <point x="554" y="472" type="line" smooth="yes"/>
      <point x="554" y="634"/>
      <point x="462" y="720"/>
      <point x="298" y="720" type="curve" smooth="yes"/>
      <point x="282" y="720"/>
      <point x="268" y="704"/>
      <point x="300" y="549" type="curve"/>
      <point x="348" y="549"/>
      <point x="368" y="525"/>
      <point x="368" y="467" type="curve" smooth="yes"/>
      <point x="368" y="240" type="line" smooth="yes"/>
      <point x="368" y="178"/>
      <point x="342" y="151"/>
      <point x="300" y="151" type="curve" smooth="yes"/>
      <point x="237" y="151"/>
      <point x="206" y="151"/>
      <point x="178" y="151" type="curve"/>
      <point x="178" y="50"/>
      <point x="200" y="-20"/>
    </contour>
    <contour>
      <point x="444" y="137" type="line"/>
      <point x="300" y="72"/>
      <point x="283" y="60"/>
      <point x="296" y="39" type="curve" smooth="yes"/>
      <point x="370" y="-82" type="line" smooth="yes"/>
      <point x="410" y="-148"/>
      <point x="447" y="-168"/>
      <point x="532" y="-168" type="curve" smooth="yes"/>
      <point x="564" y="-168" type="line" smooth="yes"/>
      <point x="571" y="-168"/>
      <point x="575" y="-164"/>
      <point x="575" y="-158" type="curve" smooth="yes"/>
      <point x="575" y="-100"/>
      <point x="575" y="-50"/>
      <point x="575" y="8" type="curve"/>
      <point x="560" y="8" type="line"/>
      <point x="555" y="8"/>
      <point x="552" y="8"/>
      <point x="546" y="8" type="curve" smooth="yes"/>
      <point x="524" y="8"/>
      <point x="516" y="14"/>
      <point x="505" y="32" type="curve" smooth="yes"/>
    </contour>
  </outline>
</glyph>
<glyph name="T" format="1">
  <advance width="600"/>
  <unicode hex="0054"/>
  <outline>
    <contour>
      <point x="40" y="700" type="line"/>
      <point x="40" y="645"/>
      <point x="40" y="590"/>
      <point x="40" y="535" type="curve" smooth="yes"/>
      <point x="40" y="532"/>
      <point x="41" y="529"/>
      <point x="43" y="527" type="curve" smooth="yes"/>
      <point x="45" y="525"/>
      <point x="48" y="524"/>
      <point x="51" y="524" type="curve" smooth="yes"/>
      <point x="560" y="524" type="line"/>
      <point x="560" y="578"/>
      <point x="560" y="634"/>
      <point x="560" y="689" type="curve" smooth="yes"/>
      <point x="560" y="695"/>
      <point x="555" y="700"/>
      <point x="549" y="700" type="curve" smooth="yes"/>
    </contour>
    <contour>
      <point x="396" y="0" type="curve"/>
      <point x="396" y="32"/>
      <point x="396" y="66"/>
      <point x="396" y="100" type="curve" smooth="yes"/>
      <point x="396" y="639" type="line" smooth="yes"/>
      <point x="396" y="645"/>
      <point x="392" y="650"/>
      <point x="204" y="650" type="curve"/>
      <point x="204" y="11" type="line" smooth="yes"/>
      <point x="204" y="8"/>
      <point x="204" y="5"/>
      <point x="206" y="3" type="curve" smooth="yes"/>
      <point x="208" y="1"/>
      <point x="212" y="0"/>
      <point x="214" y="0" type="curve" smooth="yes"/>
      <point x="276" y="0"/>
      <point x="336" y="0"/>
    </contour>
    <contour>
      <point x="300" y="711" type="move" name="top"/>
    </contour>
    <contour>
      <point x="300" y="-1" type="move" name="bottom"/>
    </contour>
  </outline>
</glyph>
<glyph name="U" format="1">
  <advance width="600"/>
  <unicode hex="0055"/>
  <outline>
    <contour>
      <point x="48" y="700" type="curve"/>
      <point x="48" y="670"/>
      <point x="48" y="636"/>
      <point x="48" y="601" type="curve" smooth="yes"/>
      <point x="48" y="158" type="line"/>
      <point x="48" y="118"/>
      <point x="97" y="104"/>
      <point x="240" y="104" type="curve"/>
      <point x="240" y="141"/>
      <point x="240" y="171"/>
      <point x="240" y="212" type="curve" smooth="yes"/>
      <point x="240" y="689" type="line"/>
      <point x="240" y="695"/>
      <point x="235" y="700"/>
      <point x="229" y="700" type="curve"/>
      <point x="168" y="700"/>
      <point x="108" y="700"/>
    </contour>
    <contour>
      <point x="192" y="-10" type="curve" smooth="yes"/>
      <point x="255" y="-10"/>
      <point x="320" y="25"/>
      <point x="361" y="80" type="curve" smooth="yes"/>
      <point x="400" y="126"/>
      <point x="420" y="176"/>
      <point x="408" y="239" type="curve"/>
      <point x="348" y="190"/>
      <point x="310" y="175"/>
      <point x="270" y="175" type="curve" smooth="yes"/>
      <point x="251" y="175"/>
      <point x="240" y="186"/>
      <point x="240" y="212" type="curve"/>
      <point x="98" y="212"/>
      <point x="48" y="179"/>
      <point x="48" y="158" type="curve" smooth="yes"/>
      <point x="48" y="54"/>
      <point x="102" y="-10"/>
    </contour>
    <contour>
      <point x="552" y="0" type="curve"/>
      <point x="552" y="30"/>
      <point x="552" y="66"/>
      <point x="552" y="104" type="curve" smooth="yes"/>
      <point x="552" y="689" type="line" smooth="yes"/>
      <point x="552" y="695"/>
      <point x="548" y="700"/>
      <point x="542" y="700" type="curve" smooth="yes"/>
      <point x="490" y="700"/>
      <point x="412" y="700"/>
      <point x="360" y="700" type="curve"/>
      <point x="360" y="11" type="line" smooth="yes"/>
      <point x="360" y="8"/>
      <point x="361" y="5"/>
      <point x="363" y="3" type="curve" smooth="yes"/>
      <point x="365" y="1"/>
      <point x="368" y="0"/>
      <point x="371" y="0" type="curve" smooth="yes"/>
      <point x="420" y="0"/>
      <point x="498" y="0"/>
    </contour>
    <contour>
      <point x="300" y="711" type="move" name="top"/>
    </contour>
    <contour>
      <point x="554" y="0" type="move" name="ogonek"/>
    </contour>
    <contour>
      <point x="300" y="711" type="move" name="ring"/>
    </contour>
    <contour>
      <point x="300" y="-1" type="move" name="bottom"/>
    </contour>
  </outline>
</glyph>
<glyph name="V" format="1">
  <advance width="600"/>
  <unicode hex="0056"/>
  <outline>
    <contour>
      <point x="198" y="700" type="curve"/>
      <point x="24" y="700" type="line"/>
      <point x="68" y="472"/>
      <point x="112" y="243"/>
      <point x="156" y="15" type="curve" smooth="yes"/>
      <point x="158" y="5"/>
      <point x="167" y="0"/>
      <point x="177" y="0" type="curve" smooth="yes"/>
      <point x="232" y="0" type="line" smooth="yes"/>
      <point x="298" y="0"/>
      <point x="382" y="64"/>
      <point x="382" y="161" type="curve"/>
      <point x="350" y="161"/>
      <point x="328" y="161"/>
      <point x="302" y="161" type="curve" smooth="yes"/>
      <point x="296" y="161"/>
      <point x="294" y="162"/>
      <point x="292" y="170" type="curve"/>
      <point x="266" y="341"/>
      <point x="241" y="512"/>
      <point x="215" y="683" type="curve"/>
      <point x="213" y="694"/>
      <point x="207" y="700"/>
    </contour>
    <contour>
      <point x="559" y="700" type="curve"/>
      <point x="388" y="700" type="line"/>
      <point x="358" y="498"/>
      <point x="327" y="294"/>
      <point x="298" y="100" type="curve"/>
      <point x="284" y="32"/>
      <point x="242" y="14"/>
      <point x="207" y="0" type="curve"/>
      <point x="442" y="0" type="line"/>
      <point x="485" y="227"/>
      <point x="528" y="454"/>
      <point x="572" y="681" type="curve"/>
      <point x="574" y="691"/>
      <point x="570" y="700"/>
    </contour>
  </outline>
</glyph>
<glyph name="W" format="1">
  <advance width="600"/>
  <unicode hex="0057"/>
  <outline>
    <contour>
      <point x="20" y="700" type="curve"/>
      <point x="40" y="470"/>
      <point x="60" y="241"/>
      <point x="80" y="15" type="curve"/>
      <point x="81" y="5"/>
      <point x="91" y="0"/>
      <point x="101" y="0" type="curve"/>
      <point x="142" y="0" type="line" smooth="yes"/>
      <point x="167" y="0"/>
      <point x="185" y="21"/>
      <point x="196" y="35" type="curve"/>
      <point x="190" y="246"/>
      <point x="184" y="464"/>
      <point x="178" y="682" type="curve"/>
      <point x="178" y="692"/>
      <point x="176" y="695"/>
      <point x="174" y="697" type="curve" smooth="yes"/>
      <point x="172" y="699"/>
      <point x="170" y="700"/>
      <point x="166" y="700" type="curve"/>
      <point x="117" y="700"/>
      <point x="69" y="700"/>
    </contour>
    <contour>
      <point x="423" y="700" type="curve"/>
      <point x="418" y="501"/>
      <point x="413" y="300"/>
      <point x="408" y="101" type="curve"/>
      <point x="402" y="39"/>
      <point x="395" y="19"/>
      <point x="384" y="0" type="curve"/>
      <point x="517" y="0" type="line"/>
      <point x="538" y="229"/>
      <point x="558" y="458"/>
      <point x="578" y="687" type="curve"/>
      <point x="580" y="693"/>
      <point x="578" y="695"/>
      <point x="576" y="697" type="curve" smooth="yes"/>
      <point x="574" y="699"/>
      <point x="574" y="700"/>
      <point x="570" y="700" type="curve"/>
      <point x="520" y="700"/>
      <point x="472" y="700"/>
    </contour>
    <contour>
      <point x="316" y="591" type="curve"/>
      <point x="253" y="591" type="line"/>
      <point x="230" y="428"/>
      <point x="207" y="264"/>
      <point x="184" y="101" type="curve"/>
      <point x="168" y="33"/>
      <point x="133" y="14"/>
      <point x="101" y="0" type="curve"/>
      <point x="259" y="0" type="line"/>
      <point x="282" y="190"/>
      <point x="306" y="382"/>
      <point x="329" y="572" type="curve"/>
      <point x="331" y="583"/>
      <point x="327" y="591"/>
    </contour>
    <contour>
      <point x="338" y="591" type="curve"/>
      <point x="267" y="591" type="line"/>
      <point x="292" y="399"/>
      <point x="315" y="207"/>
      <point x="340" y="15" type="curve"/>
      <point x="342" y="5"/>
      <point x="351" y="0"/>
      <point x="361" y="0" type="curve"/>
      <point x="402" y="0" type="line"/>
      <point x="414" y="0"/>
      <point x="427" y="10"/>
      <point x="431" y="24" type="curve"/>
      <point x="404" y="209"/>
      <point x="377" y="395"/>
      <point x="350" y="580" type="curve"/>
      <point x="349" y="587"/>
      <point x="344" y="591"/>
    </contour>
    <contour>
      <point x="299" y="711" type="move" name="top"/>
    </contour>
  </outline>
</glyph>
<glyph name="X" format="1">
  <advance width="600"/>
  <unicode hex="0058"/>
  <outline>
    <contour>
      <point x="396" y="0" type="curve" smooth="yes"/>
      <point x="458" y="0"/>
      <point x="524" y="0"/>
      <point x="586" y="0" type="curve"/>
      <point x="526" y="129"/>
      <point x="467" y="258"/>
      <point x="406" y="387" type="curve" smooth="yes"/>
      <point x="396" y="407"/>
      <point x="343" y="404"/>
      <point x="334" y="424" type="curve" smooth="yes"/>
      <point x="296" y="512"/>
      <point x="261" y="602"/>
      <point x="224" y="690" type="curve" smooth="yes"/>
      <point x="221" y="697"/>
      <point x="214" y="700"/>
      <point x="205" y="700" type="curve" smooth="yes"/>
      <point x="16" y="700" type="line"/>
      <point x="75" y="570"/>
      <point x="134" y="441"/>
      <point x="194" y="312" type="curve" smooth="yes"/>
      <point x="203" y="293"/>
      <point x="264" y="292"/>
      <point x="272" y="271" type="curve" smooth="yes"/>
      <point x="308" y="184"/>
      <point x="342" y="97"/>
      <point x="378" y="11" type="curve" smooth="yes"/>
      <point x="381" y="2"/>
      <point x="388" y="0"/>
    </contour>
    <contour>
      <point x="570" y="700" type="curve"/>
      <point x="390" y="700" type="line"/>
      <point x="349" y="592"/>
      <point x="308" y="486"/>
      <point x="266" y="378" type="curve"/>
      <point x="259" y="360"/>
      <point x="278" y="323"/>
      <point x="388" y="262" type="curve"/>
      <point x="452" y="402"/>
      <point x="516" y="542"/>
      <point x="580" y="681" type="curve"/>
      <point x="582" y="687"/>
      <point x="584" y="693"/>
      <point x="580" y="696" type="curve" smooth="yes"/>
      <point x="578" y="699"/>
      <point x="574" y="700"/>
    </contour>
    <contour>
      <point x="28" y="0" type="curve" smooth="yes"/>
      <point x="212" y="0" type="line"/>
      <point x="252" y="106"/>
      <point x="292" y="212"/>
      <point x="333" y="318" type="curve"/>
      <point x="341" y="338"/>
      <point x="318" y="370"/>
      <point x="210" y="426" type="curve"/>
      <point x="146" y="290"/>
      <point x="82" y="155"/>
      <point x="18" y="20" type="curve"/>
      <point x="16" y="14"/>
      <point x="15" y="7"/>
      <point x="19" y="3" type="curve" smooth="yes"/>
      <point x="21" y="1"/>
      <point x="24" y="0"/>
    </contour>
  </outline>
</glyph>
<glyph name="Y" format="1">
  <advance width="600"/>
  <unicode hex="0059"/>
  <outline>
    <contour>
      <point x="15" y="700" type="line"/>
      <point x="80" y="537"/>
      <point x="148" y="373"/>
      <point x="212" y="210" type="curve"/>
      <point x="216" y="200"/>
      <point x="223" y="195"/>
      <point x="233" y="195" type="curve"/>
      <point x="298" y="195"/>
      <point x="334" y="290"/>
      <point x="318" y="350" type="curve"/>
      <point x="284" y="462"/>
      <point x="251" y="573"/>
      <point x="218" y="685" type="curve"/>
      <point x="216" y="696"/>
      <point x="211" y="700"/>
      <point x="202" y="700" type="curve" smooth="yes"/>
    </contour>
    <contour>
      <point x="387" y="700" type="line"/>
      <point x="354" y="583"/>
      <point x="320" y="467"/>
      <point x="287" y="350" type="curve"/>
      <point x="260" y="269"/>
      <point x="248" y="221"/>
      <point x="233" y="195" type="curve"/>
      <point x="382" y="195" type="line"/>
      <point x="447" y="357"/>
      <point x="512" y="519"/>
      <point x="578" y="681" type="curve"/>
      <point x="581" y="691"/>
      <point x="576" y="700"/>
      <point x="565" y="700" type="curve"/>
    </contour>
    <contour>
      <point x="396" y="0" type="curve"/>
      <point x="396" y="32"/>
      <point x="396" y="66"/>
      <point x="396" y="100" type="curve" smooth="yes"/>
      <point x="396" y="289" type="line" smooth="yes"/>
      <point x="396" y="295"/>
      <point x="392" y="300"/>
      <point x="204" y="300" type="curve"/>
      <point x="204" y="11" type="line" smooth="yes"/>
      <point x="204" y="8"/>
      <point x="204" y="5"/>
      <point x="206" y="3" type="curve" smooth="yes"/>
      <point x="208" y="1"/>
      <point x="212" y="0"/>
      <point x="214" y="0" type="curve" smooth="yes"/>
      <point x="276" y="0"/>
      <point x="336" y="0"/>
    </contour>
    <contour>
      <point x="298" y="711" type="move" name="top"/>
    </contour>
  </outline>
</glyph>
<glyph name="Z" format="1">
  <advance width="600"/>
  <unicode hex="005A"/>
  <outline>
    <contour>
      <point x="98" y="700" type="line"/>
      <point x="98" y="646"/>
      <point x="98" y="594"/>
      <point x="98" y="540" type="curve" smooth="yes"/>
      <point x="98" y="537"/>
      <point x="98" y="534"/>
      <point x="100" y="532" type="curve" smooth="yes"/>
      <point x="102" y="530"/>
      <point x="106" y="529"/>
      <point x="108" y="529" type="curve" smooth="yes"/>
      <point x="365" y="529" type="line" smooth="yes"/>
      <point x="416" y="529"/>
      <point x="480" y="530"/>
      <point x="532" y="536" type="curve" smooth="yes"/>
      <point x="542" y="536"/>
      <point x="550" y="536"/>
      <point x="558" y="537" type="curve"/>
      <point x="558" y="689" type="line" smooth="yes"/>
      <point x="558" y="695"/>
      <point x="552" y="700"/>
      <point x="546" y="700" type="curve" smooth="yes"/>
    </contour>
    <contour>
      <point x="398" y="587" type="curve"/>
      <point x="279" y="444"/>
      <point x="159" y="300"/>
      <point x="40" y="158" type="curve"/>
      <point x="182" y="88"/>
      <point x="203" y="88"/>
      <point x="214" y="102" type="curve" smooth="yes"/>
      <point x="427" y="369"/>
      <point x="558" y="535"/>
      <point x="558" y="537" type="curve"/>
      <point x="427" y="599"/>
      <point x="410" y="602"/>
    </contour>
    <contour>
      <point x="562" y="0" type="line"/>
      <point x="562" y="57"/>
      <point x="562" y="111"/>
      <point x="562" y="168" type="curve" smooth="yes"/>
      <point x="562" y="170"/>
      <point x="562" y="174"/>
      <point x="560" y="176" type="curve" smooth="yes"/>
      <point x="558" y="178"/>
      <point x="554" y="178"/>
      <point x="552" y="178" type="curve" smooth="yes"/>
      <point x="239" y="178" type="line" smooth="yes"/>
      <point x="180" y="178"/>
      <point x="100" y="175"/>
      <point x="40" y="158" type="curve"/>
      <point x="40" y="11" type="line" smooth="yes"/>
      <point x="40" y="5"/>
      <point x="45" y="0"/>
      <point x="51" y="0" type="curve" smooth="yes"/>
    </contour>
    <contour>
      <point x="212" y="482" type="curve"/>
      <point x="212" y="553"/>
      <point x="212" y="618"/>
      <point x="212" y="689" type="curve"/>
      <point x="212" y="696"/>
      <point x="210" y="700"/>
      <point x="202" y="700" type="curve" smooth="yes"/>
      <point x="40" y="700" type="line"/>
      <point x="40" y="629"/>
      <point x="40" y="564"/>
      <point x="40" y="493" type="curve"/>
      <point x="40" y="487"/>
      <point x="45" y="482"/>
      <point x="51" y="482" type="curve" smooth="yes"/>
      <point x="104" y="482"/>
      <point x="159" y="482"/>
    </contour>
    <contour>
      <point x="300" y="711" type="move" name="top"/>
    </contour>
  </outline>
</glyph>
<glyph name="bracketleft" format="1">
  <advance width="600"/>
  <unicode hex="005B"/>
  <outline>
    <contour>
      <point x="205" y="640" type="curve" smooth="yes"/>
      <point x="205" y="54" type="line" smooth="yes"/>
      <point x="205" y="44"/>
      <point x="246" y="44"/>
      <point x="398" y="44" type="curve"/>
      <point x="398" y="736" type="line" smooth="yes"/>
      <point x="398" y="742"/>
      <point x="392" y="747"/>
      <point x="364" y="747" type="curve" smooth="yes"/>
      <point x="300" y="747"/>
      <point x="268" y="747"/>
      <point x="205" y="747" type="curve"/>
      <point x="205" y="711"/>
      <point x="205" y="676"/>
    </contour>
    <contour>
      <point x="520" y="571" type="line"/>
      <point x="520" y="628"/>
      <point x="520" y="680"/>
      <point x="520" y="736" type="curve" smooth="yes"/>
      <point x="520" y="739"/>
      <point x="519" y="742"/>
      <point x="517" y="744" type="curve" smooth="yes"/>
      <point x="515" y="746"/>
      <point x="512" y="747"/>
      <point x="509" y="747" type="curve" smooth="yes"/>
      <point x="364" y="747" type="line"/>
      <point x="364" y="580"/>
      <point x="370" y="571"/>
      <point x="376" y="571" type="curve"/>
    </contour>
    <contour>
      <point x="520" y="-120" type="line"/>
      <point x="520" y="-64"/>
      <point x="520" y="-12"/>
      <point x="520" y="44" type="curve" smooth="yes"/>
      <point x="520" y="50"/>
      <point x="515" y="56"/>
      <point x="509" y="56" type="curve" smooth="yes"/>
      <point x="205" y="56" type="line"/>
      <point x="205" y="-110" type="line" smooth="yes"/>
      <point x="205" y="-116"/>
      <point x="210" y="-120"/>
      <point x="216" y="-120" type="curve" smooth="yes"/>
    </contour>
  </outline>
</glyph>
<glyph name="bracketright" format="1">
  <advance width="600"/>
  <unicode hex="005D"/>
  <outline>
    <contour>
      <point x="395" y="-14" type="curve" smooth="yes"/>
      <point x="395" y="572" type="line" smooth="yes"/>
      <point x="395" y="582"/>
      <point x="354" y="582"/>
      <point x="202" y="582" type="curve"/>
      <point x="202" y="-110" type="line" smooth="yes"/>
      <point x="202" y="-116"/>
      <point x="208" y="-121"/>
      <point x="236" y="-121" type="curve" smooth="yes"/>
      <point x="300" y="-121"/>
      <point x="332" y="-121"/>
      <point x="395" y="-121" type="curve"/>
      <point x="395" y="-85"/>
      <point x="395" y="-50"/>
    </contour>
    <contour>
      <point x="80" y="55" type="line"/>
      <point x="80" y="-2"/>
      <point x="80" y="-54"/>
      <point x="80" y="-110" type="curve" smooth="yes"/>
      <point x="80" y="-113"/>
      <point x="81" y="-116"/>
      <point x="83" y="-118" type="curve" smooth="yes"/>
      <point x="85" y="-120"/>
      <point x="88" y="-121"/>
      <point x="91" y="-121" type="curve" smooth="yes"/>
      <point x="236" y="-121" type="line"/>
      <point x="236" y="46"/>
      <point x="230" y="55"/>
      <point x="224" y="55" type="curve"/>
    </contour>
    <contour>
      <point x="80" y="746" type="line"/>
      <point x="80" y="690"/>
      <point x="80" y="638"/>
      <point x="80" y="582" type="curve" smooth="yes"/>
      <point x="80" y="576"/>
      <point x="85" y="570"/>
      <point x="91" y="570" type="curve" smooth="yes"/>
      <point x="395" y="570" type="line"/>
      <point x="395" y="736" type="line" smooth="yes"/>
      <point x="395" y="742"/>
      <point x="390" y="746"/>
      <point x="384" y="746" type="curve" smooth="yes"/>
    </contour>
  </outline>
</glyph>
<glyph name="asciicircum" format="1">
  <advance width="600"/>
  <unicode hex="005E"/>
  <outline>
    <contour>
      <point x="196" y="344" type="line"/>
      <point x="235" y="450"/>
      <point x="262" y="520"/>
      <point x="302" y="626" type="curve"/>
      <point x="329" y="701"/>
      <point x="350" y="727"/>
      <point x="392" y="750" type="curve"/>
      <point x="174" y="750" type="line"/>
      <point x="118" y="608"/>
      <point x="43" y="424"/>
      <point x="24" y="378" type="curve" smooth="yes"/>
      <point x="18" y="363"/>
      <point x="17" y="358"/>
      <point x="17" y="354" type="curve" smooth="yes"/>
      <point x="17" y="348"/>
      <point x="22" y="344"/>
      <point x="28" y="344" type="curve"/>
    </contour>
    <contour>
      <point x="584" y="345" type="curve"/>
      <point x="529" y="486"/>
      <point x="490" y="592"/>
      <point x="435" y="734" type="curve" smooth="yes"/>
      <point x="432" y="744"/>
      <point x="424" y="750"/>
      <point x="412" y="750" type="curve" smooth="yes"/>
      <point x="368" y="750" type="line" smooth="yes"/>
      <point x="301" y="750"/>
      <point x="206" y="704"/>
      <point x="208" y="574" type="curve"/>
      <point x="252" y="574"/>
      <point x="282" y="574"/>
      <point x="304" y="574" type="curve" smooth="yes"/>
      <point x="316" y="574"/>
      <point x="322" y="570"/>
      <point x="326" y="558" type="curve" smooth="yes"/>
      <point x="353" y="483"/>
      <point x="370" y="434"/>
      <point x="397" y="358" type="curve" smooth="yes"/>
      <point x="401" y="347"/>
      <point x="406" y="345"/>
      <point x="416" y="345" type="curve" smooth="yes"/>
      <point x="474" y="345"/>
      <point x="526" y="345"/>
    </contour>
  </outline>
</glyph>
<glyph name="grave" format="1">
  <advance width="600"/>
  <unicode hex="0060"/>
  <outline>
    <contour>
      <point x="445" y="393" type="curve"/>
      <point x="418" y="509"/>
      <point x="398" y="591"/>
      <point x="370" y="707" type="curve"/>
      <point x="274" y="707"/>
      <point x="226" y="707"/>
      <point x="143" y="707" type="curve" smooth="yes"/>
      <point x="135" y="707"/>
      <point x="131" y="702"/>
      <point x="135" y="694" type="curve" smooth="yes"/>
      <point x="172" y="610"/>
      <point x="216" y="513"/>
      <point x="266" y="402" type="curve" smooth="yes"/>
      <point x="268" y="396"/>
      <point x="272" y="393"/>
      <point x="280" y="393" type="curve" smooth="yes"/>
      <point x="356" y="393"/>
      <point x="399" y="393"/>
    </contour>
  </outline>
</glyph>
<glyph name="a" format="1">
  <advance width="600"/>
  <unicode hex="0061"/>
  <outline>
    <contour>
      <point x="254" y="558" type="curve" smooth="yes"/>
      <point x="172" y="558"/>
      <point x="80" y="542"/>
      <point x="68" y="530" type="curve" smooth="yes"/>
      <point x="66" y="528"/>
      <point x="65" y="524"/>
      <point x="65" y="520" type="curve" smooth="yes"/>
      <point x="65" y="480"/>
      <point x="65" y="418"/>
      <point x="65" y="378" type="curve"/>
      <point x="85" y="378" type="line"/>
      <point x="143" y="392"/>
      <point x="190" y="398"/>
      <point x="254" y="398" type="curve" smooth="yes"/>
      <point x="317" y="398"/>
      <point x="348" y="384"/>
      <point x="348" y="341" type="curve"/>
      <point x="516" y="322"/>
      <point x="533" y="324"/>
      <point x="533" y="342" type="curve"/>
      <point x="533" y="490"/>
      <point x="464" y="558"/>
    </contour>
    <contour>
      <point x="348" y="422" type="curve"/>
      <point x="348" y="359"/>
      <point x="348" y="361"/>
      <point x="348" y="320" type="curve" smooth="yes"/>
      <point x="348" y="259"/>
      <point x="348" y="200"/>
      <point x="348" y="133" type="curve" smooth="yes"/>
      <point x="348" y="69"/>
      <point x="473" y="25"/>
      <point x="533" y="36" type="curve"/>
      <point x="533" y="73"/>
      <point x="533" y="104"/>
      <point x="533" y="148" type="curve" smooth="yes"/>
      <point x="533" y="216"/>
      <point x="533" y="258"/>
      <point x="533" y="342" type="curve" smooth="yes"/>
      <point x="533" y="388"/>
      <point x="464" y="422"/>
    </contour>
    <contour>
      <point x="580" y="160" type="line"/>
      <point x="560" y="160" type="line"/>
      <point x="557" y="160"/>
      <point x="556" y="160"/>
      <point x="552" y="160" type="curve" smooth="yes"/>
      <point x="540" y="160"/>
      <point x="534" y="168"/>
      <point x="533" y="184" type="curve"/>
      <point x="360" y="170"/>
      <point x="348" y="154"/>
      <point x="348" y="133" type="curve" smooth="yes"/>
      <point x="348" y="46"/>
      <point x="422" y="-8"/>
      <point x="518" y="-8" type="curve" smooth="yes"/>
      <point x="569" y="-8" type="line" smooth="yes"/>
      <point x="576" y="-8"/>
      <point x="580" y="-4"/>
      <point x="580" y="4" type="curve"/>
    </contour>
    <contour>
      <point x="222" y="163" type="curve" smooth="yes"/>
      <point x="222" y="181" type="line" smooth="yes"/>
      <point x="222" y="212"/>
      <point x="222" y="238"/>
      <point x="222" y="262" type="curve"/>
      <point x="94" y="262"/>
      <point x="40" y="217"/>
      <point x="40" y="174" type="curve" smooth="yes"/>
      <point x="40" y="139" type="line" smooth="yes"/>
      <point x="40" y="50"/>
      <point x="102" y="-10"/>
      <point x="199" y="-10" type="curve" smooth="yes"/>
      <point x="279" y="-10"/>
      <point x="338" y="25"/>
      <point x="390" y="96" type="curve" smooth="yes"/>
      <point x="399" y="110"/>
      <point x="401" y="144"/>
      <point x="391" y="186" type="curve"/>
      <point x="346" y="145"/>
      <point x="314" y="132"/>
      <point x="260" y="132" type="curve" smooth="yes"/>
      <point x="256" y="132" type="line" smooth="yes"/>
      <point x="233" y="132"/>
      <point x="222" y="146"/>
    </contour>
    <contour>
      <point x="377" y="292" type="curve" smooth="yes"/>
      <point x="356" y="309"/>
      <point x="292" y="324"/>
      <point x="202" y="324" type="curve" smooth="yes"/>
      <point x="106" y="324"/>
      <point x="41" y="263"/>
      <point x="40" y="174" type="curve" smooth="yes"/>
      <point x="40" y="171"/>
      <point x="60" y="155"/>
      <point x="222" y="181" type="curve"/>
      <point x="222" y="201"/>
      <point x="235" y="214"/>
      <point x="257" y="214" type="curve" smooth="yes"/>
      <point x="296" y="214"/>
      <point x="374" y="214"/>
      <point x="403" y="214" type="curve"/>
      <point x="403" y="248"/>
      <point x="400" y="276"/>
    </contour>
    <contour>
      <point x="305" y="556" type="move" name="top"/>
    </contour>
    <contour>
      <point x="581" y="4" type="move" name="ogonek"/>
    </contour>
    <contour>
      <point x="310" y="-1" type="move" name="bottom"/>
    </contour>
  </outline>
</glyph>
<glyph name="b" format="1">
  <advance width="600"/>
  <unicode hex="0062"/>
  <outline>
    <contour>
      <point x="52" y="0" type="line"/>
      <point x="78" y="0"/>
      <point x="122" y="0"/>
      <point x="148" y="0" type="curve" smooth="yes"/>
      <point x="156" y="0"/>
      <point x="242" y="100"/>
      <point x="242" y="112" type="curve" smooth="yes"/>
      <point x="242" y="739" type="line"/>
      <point x="242" y="745"/>
      <point x="238" y="750"/>
      <point x="232" y="750" type="curve" smooth="yes"/>
      <point x="184" y="750"/>
      <point x="100" y="750"/>
      <point x="52" y="750" type="curve"/>
      <point x="52" y="701"/>
      <point x="52" y="652"/>
      <point x="52" y="603" type="curve" smooth="yes"/>
    </contour>
    <contour>
      <point x="403" y="556" type="curve" smooth="yes"/>
      <point x="348" y="556"/>
      <point x="288" y="530"/>
      <point x="242" y="484" type="curve" smooth="yes"/>
      <point x="188" y="430"/>
      <point x="168" y="370"/>
      <point x="186" y="318" type="curve"/>
      <point x="242" y="368"/>
      <point x="277" y="384"/>
      <point x="320" y="384" type="curve" smooth="yes"/>
      <point x="352" y="384"/>
      <point x="368" y="368"/>
      <point x="368" y="329" type="curve"/>
      <point x="494" y="329"/>
      <point x="558" y="346"/>
      <point x="558" y="380" type="curve" smooth="yes"/>
      <point x="558" y="482"/>
      <point x="495" y="556"/>
    </contour>
    <contour>
      <point x="372" y="-10" type="curve" smooth="yes"/>
      <point x="488" y="-10"/>
      <point x="558" y="69"/>
      <point x="558" y="198" type="curve" smooth="yes"/>
      <point x="558" y="380" type="line" smooth="yes"/>
      <point x="558" y="450"/>
      <point x="482" y="485"/>
      <point x="405" y="485" type="curve"/>
      <point x="363" y="485"/>
      <point x="350" y="472"/>
      <point x="350" y="446" type="curve"/>
      <point x="362" y="417"/>
      <point x="368" y="392"/>
      <point x="368" y="329" type="curve" smooth="yes"/>
      <point x="368" y="214" type="line" smooth="yes"/>
      <point x="368" y="172"/>
      <point x="350" y="152"/>
      <point x="314" y="152" type="curve" smooth="yes"/>
      <point x="274" y="152"/>
      <point x="232" y="170"/>
      <point x="188" y="212" type="curve"/>
      <point x="183" y="196"/>
      <point x="178" y="156"/>
      <point x="178" y="142" type="curve" smooth="yes"/>
      <point x="178" y="81"/>
      <point x="264" y="-10"/>
    </contour>
  </outline>
</glyph>
<glyph name="d" format="1">
  <advance width="600"/>
  <unicode hex="0064"/>
  <outline>
    <contour>
      <point x="222" y="556" type="curve" smooth="yes"/>
      <point x="112" y="556"/>
      <point x="42" y="481"/>
      <point x="42" y="359" type="curve" smooth="yes"/>
      <point x="42" y="165" type="line" smooth="yes"/>
      <point x="42" y="96"/>
      <point x="106" y="61"/>
      <point x="172" y="61" type="curve" smooth="yes"/>
      <point x="220" y="61"/>
      <point x="250" y="74"/>
      <point x="250" y="100" type="curve"/>
      <point x="239" y="122"/>
      <point x="232" y="146"/>
      <point x="232" y="202" type="curve" smooth="yes"/>
      <point x="232" y="332" type="line" smooth="yes"/>
      <point x="232" y="374"/>
      <point x="250" y="394"/>
      <point x="286" y="394" type="curve" smooth="yes"/>
      <point x="326" y="394"/>
      <point x="360" y="378"/>
      <point x="404" y="336" type="curve"/>
      <point x="414" y="354"/>
      <point x="414" y="391"/>
      <point x="414" y="406" type="curve" smooth="yes"/>
      <point x="414" y="458"/>
      <point x="330" y="556"/>
    </contour>
    <contour>
      <point x="188" y="-10" type="curve" smooth="yes"/>
      <point x="250" y="-10"/>
      <point x="304" y="14"/>
      <point x="358" y="74" type="curve" smooth="yes"/>
      <point x="407" y="128"/>
      <point x="415" y="166"/>
      <point x="400" y="216" type="curve"/>
      <point x="352" y="175"/>
      <point x="324" y="158"/>
      <point x="276" y="158" type="curve" smooth="yes"/>
      <point x="244" y="158"/>
      <point x="232" y="170"/>
      <point x="232" y="202" type="curve"/>
      <point x="111" y="214"/>
      <point x="42" y="190"/>
      <point x="42" y="165" type="curve" smooth="yes"/>
      <point x="42" y="60"/>
      <point x="100" y="-10"/>
    </contour>
    <contour>
      <point x="358" y="750" type="curve"/>
      <point x="358" y="719"/>
      <point x="358" y="686"/>
      <point x="358" y="650" type="curve" smooth="yes"/>
      <point x="358" y="11" type="line"/>
      <point x="358" y="8"/>
      <point x="358" y="5"/>
      <point x="360" y="3" type="curve" smooth="yes"/>
      <point x="362" y="1"/>
      <point x="366" y="0"/>
      <point x="368" y="0" type="curve" smooth="yes"/>
      <point x="416" y="0"/>
      <point x="500" y="0"/>
      <point x="548" y="0" type="curve"/>
      <point x="548" y="42"/>
      <point x="548" y="84"/>
      <point x="548" y="126" type="curve" smooth="yes"/>
      <point x="548" y="739" type="line"/>
      <point x="548" y="742"/>
      <point x="546" y="745"/>
      <point x="544" y="747" type="curve" smooth="yes"/>
      <point x="542" y="749"/>
      <point x="540" y="750"/>
      <point x="536" y="750" type="curve" smooth="yes"/>
      <point x="488" y="750"/>
      <point x="406" y="750"/>
    </contour>
    <contour>
      <point x="444" y="711" type="move" name="caronslovak"/>
    </contour>
  </outline>
</glyph>
<glyph name="h" format="1">
  <advance width="600"/>
  <unicode hex="0068"/>
  <outline>
    <contour>
      <point x="245" y="0" type="curve"/>
      <point x="245" y="739" type="line" smooth="yes"/>
      <point x="245" y="742"/>
      <point x="244" y="745"/>
      <point x="242" y="747" type="curve" smooth="yes"/>
      <point x="240" y="749"/>
      <point x="237" y="750"/>
      <point x="234" y="750" type="curve" smooth="yes"/>
      <point x="187" y="750"/>
      <point x="110" y="750"/>
      <point x="52" y="750" type="curve"/>
      <point x="52" y="722"/>
      <point x="52" y="688"/>
      <point x="52" y="652" type="curve" smooth="yes"/>
      <point x="52" y="11" type="line" smooth="yes"/>
      <point x="52" y="5"/>
      <point x="58" y="0"/>
      <point x="64" y="0" type="curve" smooth="yes"/>
      <point x="115" y="0"/>
      <point x="193" y="0"/>
    </contour>
    <contour>
      <point x="408" y="556" type="curve" smooth="yes"/>
      <point x="346" y="556"/>
      <point x="285" y="522"/>
      <point x="234" y="450" type="curve" smooth="yes"/>
      <point x="211" y="418"/>
      <point x="185" y="370"/>
      <point x="197" y="307" type="curve"/>
      <point x="254" y="356"/>
      <point x="288" y="371"/>
      <point x="326" y="371" type="curve" smooth="yes"/>
      <point x="346" y="371"/>
      <point x="355" y="360"/>
      <point x="355" y="340" type="curve"/>
      <point x="528" y="356"/>
      <point x="548" y="374"/>
      <point x="548" y="396" type="curve" smooth="yes"/>
      <point x="548" y="496"/>
      <point x="494" y="556"/>
    </contour>
    <contour>
      <point x="548" y="0" type="curve"/>
      <point x="548" y="28"/>
      <point x="548" y="62"/>
      <point x="548" y="98" type="curve" smooth="yes"/>
      <point x="548" y="396" type="line"/>
      <point x="548" y="432"/>
      <point x="491" y="442"/>
      <point x="348" y="401" type="curve"/>
      <point x="354" y="382"/>
      <point x="355" y="366"/>
      <point x="355" y="340" type="curve" smooth="yes"/>
      <point x="355" y="11" type="line" smooth="yes"/>
      <point x="355" y="5"/>
      <point x="360" y="0"/>
      <point x="366" y="0" type="curve" smooth="yes"/>
      <point x="426" y="0"/>
      <point x="487" y="0"/>
    </contour>
    <contour>
      <point x="140" y="730" type="move" name="top"/>
    </contour>
  </outline>
</glyph>
<glyph name="i" format="1">
  <advance width="600"/>
  <unicode hex="0069"/>
  <outline>
    <contour>
      <point x="55" y="545" type="curve"/>
      <point x="55" y="499"/>
      <point x="55" y="428"/>
      <point x="55" y="382" type="curve" smooth="yes"/>
      <point x="55" y="376"/>
      <point x="60" y="372"/>
      <point x="66" y="372" type="curve" smooth="yes"/>
      <point x="130" y="372"/>
      <point x="188" y="372"/>
      <point x="252" y="372" type="curve"/>
      <point x="252" y="510"/>
      <point x="242" y="545"/>
      <point x="220" y="545" type="curve" smooth="yes"/>
      <point x="162" y="545"/>
      <point x="113" y="545"/>
    </contour>
    <contour>
      <point x="406" y="542" type="curve" smooth="yes"/>
      <point x="404" y="544"/>
      <point x="402" y="545"/>
      <point x="398" y="545" type="curve" smooth="yes"/>
      <point x="220" y="545" type="line"/>
      <point x="220" y="136" type="line" smooth="yes"/>
      <point x="220" y="114"/>
      <point x="304" y="107"/>
      <point x="410" y="107" type="curve"/>
      <point x="410" y="534" type="line" smooth="yes"/>
      <point x="410" y="537"/>
      <point x="408" y="540"/>
    </contour>
    <contour>
      <point x="40" y="171" type="line"/>
      <point x="40" y="124"/>
      <point x="40" y="58"/>
      <point x="40" y="11" type="curve" smooth="yes"/>
      <point x="40" y="8"/>
      <point x="41" y="5"/>
      <point x="43" y="3" type="curve" smooth="yes"/>
      <point x="45" y="1"/>
      <point x="48" y="0"/>
      <point x="51" y="0" type="curve"/>
      <point x="560" y="0" type="line"/>
      <point x="560" y="47"/>
      <point x="560" y="113"/>
      <point x="560" y="160" type="curve" smooth="yes"/>
      <point x="560" y="166"/>
      <point x="555" y="171"/>
      <point x="549" y="171" type="curve"/>
    </contour>
    <contour>
      <point x="414" y="632" type="curve"/>
      <point x="414" y="789" type="line" smooth="yes"/>
      <point x="414" y="795"/>
      <point x="410" y="800"/>
      <point x="404" y="800" type="curve" smooth="yes"/>
      <point x="348" y="800"/>
      <point x="256" y="800"/>
      <point x="200" y="800" type="curve"/>
      <point x="200" y="644" type="line" smooth="yes"/>
      <point x="200" y="638"/>
      <point x="204" y="632"/>
      <point x="210" y="632" type="curve" smooth="yes"/>
      <point x="266" y="632"/>
      <point x="358" y="632"/>
    </contour>
    <contour>
      <point x="561" y="0" type="move" name="ogonek"/>
    </contour>
    <contour>
      <point x="300" y="-1" type="move" name="bottom"/>
    </contour>
  </outline>
</glyph>
<glyph name="j" format="1">
  <advance width="600"/>
  <unicode hex="006A"/>
  <outline>
    <contour>
      <point x="65" y="545" type="curve"/>
      <point x="65" y="499"/>
      <point x="65" y="424"/>
      <point x="65" y="378" type="curve" smooth="yes"/>
      <point x="65" y="372"/>
      <point x="70" y="366"/>
      <point x="76" y="366" type="curve" smooth="yes"/>
      <point x="196" y="366"/>
      <point x="306" y="366"/>
      <point x="427" y="366" type="curve"/>
      <point x="427" y="426"/>
      <point x="405" y="545"/>
      <point x="352" y="545" type="curve" smooth="yes"/>
      <point x="252" y="545"/>
      <point x="165" y="545"/>
    </contour>
    <contour>
      <point x="492" y="6" type="curve" smooth="yes"/>
      <point x="492" y="534" type="line" smooth="yes"/>
      <point x="492" y="537"/>
      <point x="491" y="540"/>
      <point x="489" y="542" type="curve" smooth="yes"/>
      <point x="487" y="544"/>
      <point x="484" y="545"/>
      <point x="481" y="545" type="curve" smooth="yes"/>
      <point x="307" y="545" type="line"/>
      <point x="307" y="29" type="line" smooth="yes"/>
      <point x="307" y="-52"/>
      <point x="300" y="-102"/>
      <point x="280" y="-162" type="curve"/>
      <point x="371" y="-213"/>
      <point x="492" y="-117"/>
    </contour>
    <contour>
      <point x="208" y="-68" type="curve" smooth="yes"/>
      <point x="146" y="-68"/>
      <point x="98" y="-60"/>
      <point x="45" y="-38" type="curve"/>
      <point x="25" y="-38" type="line"/>
      <point x="25" y="-92"/>
      <point x="25" y="-154"/>
      <point x="25" y="-209" type="curve" smooth="yes"/>
      <point x="25" y="-212"/>
      <point x="26" y="-215"/>
      <point x="28" y="-217" type="curve" smooth="yes"/>
      <point x="43" y="-232"/>
      <point x="118" y="-250"/>
      <point x="197" y="-250" type="curve" smooth="yes"/>
      <point x="397" y="-250"/>
      <point x="492" y="-166"/>
      <point x="492" y="6" type="curve" smooth="yes"/>
      <point x="492" y="23"/>
      <point x="465" y="29"/>
      <point x="307" y="29" type="curve"/>
      <point x="307" y="-41"/>
      <point x="274" y="-68"/>
    </contour>
    <contour>
      <point x="502" y="632" type="curve"/>
      <point x="502" y="789" type="line" smooth="yes"/>
      <point x="502" y="795"/>
      <point x="497" y="800"/>
      <point x="491" y="800" type="curve" smooth="yes"/>
      <point x="435" y="800"/>
      <point x="343" y="800"/>
      <point x="287" y="800" type="curve"/>
      <point x="287" y="644" type="line" smooth="yes"/>
      <point x="287" y="638"/>
      <point x="292" y="632"/>
      <point x="298" y="632" type="curve" smooth="yes"/>
      <point x="354" y="632"/>
      <point x="446" y="632"/>
    </contour>
  </outline>
</glyph>
<glyph name="k" format="1">
  <advance width="600"/>
  <unicode hex="006B"/>
  <outline>
    <contour>
      <point x="240" y="0" type="curve"/>
      <point x="240" y="739" type="line" smooth="yes"/>
      <point x="240" y="742"/>
      <point x="239" y="745"/>
      <point x="237" y="747" type="curve" smooth="yes"/>
      <point x="235" y="749"/>
      <point x="232" y="750"/>
      <point x="229" y="750" type="curve" smooth="yes"/>
      <point x="182" y="750"/>
      <point x="110" y="750"/>
      <point x="52" y="750" type="curve"/>
      <point x="52" y="722"/>
      <point x="52" y="688"/>
      <point x="52" y="652" type="curve" smooth="yes"/>
      <point x="52" y="11" type="line" smooth="yes"/>
      <point x="52" y="5"/>
      <point x="58" y="0"/>
      <point x="64" y="0" type="curve" smooth="yes"/>
      <point x="115" y="0"/>
      <point x="188" y="0"/>
    </contour>
    <contour>
      <point x="365" y="545" type="line"/>
      <point x="284" y="428"/>
      <point x="201" y="312"/>
      <point x="120" y="196" type="curve"/>
      <point x="116" y="151"/>
      <point x="146" y="122"/>
      <point x="198" y="98" type="curve" smooth="yes"/>
      <point x="330" y="224"/>
      <point x="394" y="298"/>
      <point x="560" y="521" type="curve" smooth="yes"/>
      <point x="568" y="530"/>
      <point x="568" y="533"/>
      <point x="568" y="537" type="curve" smooth="yes"/>
      <point x="568" y="542"/>
      <point x="564" y="545"/>
      <point x="558" y="545" type="curve"/>
    </contour>
    <contour>
      <point x="392" y="0" type="curve" smooth="yes"/>
      <point x="477" y="0"/>
      <point x="544" y="0"/>
      <point x="594" y="0" type="curve"/>
      <point x="520" y="116"/>
      <point x="450" y="228"/>
      <point x="376" y="347" type="curve"/>
      <point x="262" y="224"/>
      <point x="257" y="208"/>
      <point x="268" y="188" type="curve" smooth="yes"/>
      <point x="295" y="140"/>
      <point x="359" y="34"/>
      <point x="372" y="10" type="curve" smooth="yes"/>
      <point x="376" y="2"/>
      <point x="382" y="0"/>
    </contour>
    <contour>
      <point x="322" y="-1" type="move" name="bottom"/>
    </contour>
  </outline>
</glyph>
<glyph name="l" format="1">
  <advance width="600"/>
  <unicode hex="006C"/>
  <outline>
    <contour>
      <point x="55" y="750" type="curve"/>
      <point x="55" y="704"/>
      <point x="55" y="628"/>
      <point x="55" y="582" type="curve" smooth="yes"/>
      <point x="55" y="576"/>
      <point x="60" y="572"/>
      <point x="66" y="572" type="curve" smooth="yes"/>
      <point x="130" y="572"/>
      <point x="188" y="572"/>
      <point x="252" y="572" type="curve"/>
      <point x="252" y="710"/>
      <point x="242" y="750"/>
      <point x="220" y="750" type="curve" smooth="yes"/>
      <point x="162" y="750"/>
      <point x="113" y="750"/>
    </contour>
    <contour>
      <point x="404" y="747" type="curve" smooth="yes"/>
      <point x="402" y="749"/>
      <point x="399" y="750"/>
      <point x="396" y="750" type="curve" smooth="yes"/>
      <point x="220" y="750" type="line"/>
      <point x="220" y="136" type="line" smooth="yes"/>
      <point x="220" y="114"/>
      <point x="302" y="107"/>
      <point x="407" y="107" type="curve"/>
      <point x="407" y="739" type="line" smooth="yes"/>
      <point x="407" y="742"/>
      <point x="406" y="745"/>
    </contour>
    <contour>
      <point x="40" y="176" type="line"/>
      <point x="40" y="129"/>
      <point x="40" y="58"/>
      <point x="40" y="11" type="curve" smooth="yes"/>
      <point x="40" y="8"/>
      <point x="41" y="5"/>
      <point x="43" y="3" type="curve" smooth="yes"/>
      <point x="45" y="1"/>
      <point x="48" y="0"/>
      <point x="51" y="0" type="curve"/>
      <point x="560" y="0" type="line"/>
      <point x="560" y="47"/>
      <point x="560" y="118"/>
      <point x="560" y="165" type="curve" smooth="yes"/>
      <point x="560" y="171"/>
      <point x="555" y="176"/>
      <point x="549" y="176" type="curve"/>
    </contour>
    <contour>
      <point x="528" y="671" type="move" name="caronslovak"/>
    </contour>
    <contour>
      <point x="300" y="730" type="move" name="top"/>
    </contour>
    <contour>
      <point x="475" y="400" type="move" name="dot"/>
    </contour>
    <contour>
      <point x="300" y="-1" type="move" name="bottom"/>
    </contour>
  </outline>
</glyph>
<glyph name="m" format="1">
  <advance width="600"/>
  <unicode hex="006D"/>
  <outline>
    <contour>
      <point x="170" y="0" type="curve"/>
      <point x="170" y="490" type="line" smooth="yes"/>
      <point x="170" y="516"/>
      <point x="160" y="539"/>
      <point x="157" y="542" type="curve" smooth="yes"/>
      <point x="154" y="544"/>
      <point x="150" y="545"/>
      <point x="147" y="545" type="curve" smooth="yes"/>
      <point x="115" y="545"/>
      <point x="61" y="545"/>
      <point x="25" y="545" type="curve"/>
      <point x="25" y="514"/>
      <point x="25" y="480"/>
      <point x="25" y="446" type="curve" smooth="yes"/>
      <point x="25" y="11" type="line" smooth="yes"/>
      <point x="25" y="5"/>
      <point x="30" y="0"/>
      <point x="36" y="0" type="curve" smooth="yes"/>
      <point x="74" y="0"/>
      <point x="132" y="0"/>
    </contour>
    <contour>
      <point x="276" y="556" type="curve" smooth="yes"/>
      <point x="232" y="556"/>
      <point x="200" y="525"/>
      <point x="165" y="478" type="curve" smooth="yes"/>
      <point x="143" y="453"/>
      <point x="122" y="404"/>
      <point x="122" y="350" type="curve"/>
      <point x="152" y="376"/>
      <point x="183" y="385"/>
      <point x="213" y="385" type="curve" smooth="yes"/>
      <point x="228" y="385"/>
      <point x="235" y="380"/>
      <point x="235" y="361" type="curve"/>
      <point x="341" y="398"/>
      <point x="365" y="422"/>
      <point x="365" y="450" type="curve" smooth="yes"/>
      <point x="365" y="518"/>
      <point x="328" y="556"/>
    </contour>
    <contour>
      <point x="365" y="0" type="curve"/>
      <point x="365" y="450" type="line" smooth="yes"/>
      <point x="365" y="483"/>
      <point x="317" y="468"/>
      <point x="230" y="444" type="curve"/>
      <point x="233" y="418"/>
      <point x="235" y="394"/>
      <point x="235" y="361" type="curve" smooth="yes"/>
      <point x="235" y="11" type="line" smooth="yes"/>
      <point x="235" y="5"/>
      <point x="240" y="0"/>
      <point x="246" y="0" type="curve" smooth="yes"/>
      <point x="286" y="0"/>
      <point x="326" y="0"/>
    </contour>
    <contour>
      <point x="486" y="556" type="curve" smooth="yes"/>
      <point x="433" y="556"/>
      <point x="398" y="525"/>
      <point x="362" y="476" type="curve" smooth="yes"/>
      <point x="339" y="452"/>
      <point x="320" y="399"/>
      <point x="320" y="348" type="curve"/>
      <point x="351" y="376"/>
      <point x="379" y="385"/>
      <point x="408" y="385" type="curve" smooth="yes"/>
      <point x="422" y="385"/>
      <point x="430" y="380"/>
      <point x="430" y="361" type="curve"/>
      <point x="548" y="395"/>
      <point x="575" y="424"/>
      <point x="575" y="449" type="curve" smooth="yes"/>
      <point x="575" y="518"/>
      <point x="539" y="556"/>
    </contour>
    <contour>
      <point x="575" y="0" type="curve"/>
      <point x="575" y="30"/>
      <point x="575" y="64"/>
      <point x="575" y="99" type="curve" smooth="yes"/>
      <point x="575" y="449" type="line" smooth="yes"/>
      <point x="575" y="488"/>
      <point x="531" y="473"/>
      <point x="424" y="448" type="curve"/>
      <point x="428" y="421"/>
      <point x="430" y="397"/>
      <point x="430" y="361" type="curve" smooth="yes"/>
      <point x="430" y="11" type="line" smooth="yes"/>
      <point x="430" y="5"/>
      <point x="435" y="0"/>
      <point x="441" y="0" type="curve" smooth="yes"/>
      <point x="486" y="0"/>
      <point x="530" y="0"/>
    </contour>
  </outline>
</glyph>
<glyph name="n" format="1">
  <advance width="600"/>
  <unicode hex="006E"/>
  <outline>
    <contour>
      <point x="245" y="0" type="curve"/>
      <point x="245" y="534" type="line" smooth="yes"/>
      <point x="245" y="537"/>
      <point x="244" y="540"/>
      <point x="242" y="542" type="curve" smooth="yes"/>
      <point x="240" y="544"/>
      <point x="237" y="545"/>
      <point x="234" y="545" type="curve" smooth="yes"/>
      <point x="187" y="545"/>
      <point x="110" y="545"/>
      <point x="52" y="545" type="curve"/>
      <point x="52" y="517"/>
      <point x="52" y="483"/>
      <point x="52" y="447" type="curve" smooth="yes"/>
      <point x="52" y="11" type="line" smooth="yes"/>
      <point x="52" y="5"/>
      <point x="58" y="0"/>
      <point x="64" y="0" type="curve" smooth="yes"/>
      <point x="115" y="0"/>
      <point x="193" y="0"/>
    </contour>
    <contour>
      <point x="408" y="556" type="curve" smooth="yes"/>
      <point x="344" y="556"/>
      <point x="284" y="514"/>
      <point x="234" y="444" type="curve" smooth="yes"/>
      <point x="211" y="414"/>
      <point x="185" y="370"/>
      <point x="197" y="307" type="curve"/>
      <point x="254" y="356"/>
      <point x="288" y="371"/>
      <point x="326" y="371" type="curve" smooth="yes"/>
      <point x="346" y="371"/>
      <point x="355" y="360"/>
      <point x="355" y="340" type="curve"/>
      <point x="528" y="356"/>
      <point x="548" y="374"/>
      <point x="548" y="396" type="curve" smooth="yes"/>
      <point x="548" y="496"/>
      <point x="494" y="556"/>
    </contour>
    <contour>
      <point x="548" y="0" type="curve"/>
      <point x="548" y="28"/>
      <point x="548" y="62"/>
      <point x="548" y="98" type="curve" smooth="yes"/>
      <point x="548" y="396" type="line"/>
      <point x="548" y="432"/>
      <point x="491" y="442"/>
      <point x="348" y="401" type="curve"/>
      <point x="354" y="382"/>
      <point x="355" y="366"/>
      <point x="355" y="340" type="curve" smooth="yes"/>
      <point x="355" y="11" type="line" smooth="yes"/>
      <point x="355" y="5"/>
      <point x="360" y="0"/>
      <point x="366" y="0" type="curve" smooth="yes"/>
      <point x="426" y="0"/>
      <point x="487" y="0"/>
    </contour>
    <contour>
      <point x="100" y="691" type="move" name="caronslovak"/>
    </contour>
    <contour>
      <point x="300" y="556" type="move" name="top"/>
    </contour>
    <contour>
      <point x="300" y="-1" type="move" name="bottom"/>
    </contour>
  </outline>
</glyph>
<glyph name="p" format="1">
  <advance width="600"/>
  <unicode hex="0070"/>
  <outline>
    <contour>
      <point x="242" y="-200" type="curve"/>
      <point x="242" y="534" type="line" smooth="yes"/>
      <point x="242" y="537"/>
      <point x="242" y="540"/>
      <point x="240" y="542" type="curve" smooth="yes"/>
      <point x="238" y="544"/>
      <point x="234" y="545"/>
      <point x="232" y="545" type="curve"/>
      <point x="182" y="545"/>
      <point x="102" y="545"/>
      <point x="52" y="545" type="curve"/>
      <point x="52" y="516"/>
      <point x="52" y="483"/>
      <point x="52" y="444" type="curve" smooth="yes"/>
      <point x="52" y="-189" type="line" smooth="yes"/>
      <point x="52" y="-195"/>
      <point x="58" y="-200"/>
      <point x="64" y="-200" type="curve"/>
      <point x="114" y="-200"/>
      <point x="192" y="-200"/>
    </contour>
    <contour>
      <point x="403" y="556" type="curve" smooth="yes"/>
      <point x="348" y="556"/>
      <point x="290" y="528"/>
      <point x="242" y="480" type="curve" smooth="yes"/>
      <point x="192" y="428"/>
      <point x="174" y="368"/>
      <point x="190" y="316" type="curve"/>
      <point x="248" y="367"/>
      <point x="282" y="386"/>
      <point x="318" y="386" type="curve" smooth="yes"/>
      <point x="352" y="386"/>
      <point x="368" y="366"/>
      <point x="368" y="330" type="curve"/>
      <point x="494" y="330"/>
      <point x="558" y="346"/>
      <point x="558" y="380" type="curve" smooth="yes"/>
      <point x="558" y="482"/>
      <point x="495" y="556"/>
    </contour>
    <contour>
      <point x="378" y="-10" type="curve" smooth="yes"/>
      <point x="488" y="-10"/>
      <point x="558" y="66"/>
      <point x="558" y="192" type="curve" smooth="yes"/>
      <point x="558" y="380" type="line" smooth="yes"/>
      <point x="558" y="450"/>
      <point x="482" y="485"/>
      <point x="405" y="485" type="curve" smooth="yes"/>
      <point x="363" y="485"/>
      <point x="350" y="472"/>
      <point x="350" y="446" type="curve"/>
      <point x="362" y="417"/>
      <point x="368" y="393"/>
      <point x="368" y="330" type="curve" smooth="yes"/>
      <point x="368" y="214" type="line" smooth="yes"/>
      <point x="368" y="172"/>
      <point x="350" y="152"/>
      <point x="314" y="152" type="curve" smooth="yes"/>
      <point x="276" y="152"/>
      <point x="234" y="168"/>
      <point x="192" y="208" type="curve"/>
      <point x="182" y="191"/>
      <point x="182" y="151"/>
      <point x="182" y="136" type="curve" smooth="yes"/>
      <point x="182" y="84"/>
      <point x="268" y="-10"/>
    </contour>
  </outline>
</glyph>
<glyph name="r" format="1">
  <advance width="600"/>
  <unicode hex="0072"/>
  <outline>
    <contour>
      <point x="42" y="545" type="curve"/>
      <point x="42" y="499"/>
      <point x="42" y="431"/>
      <point x="42" y="385" type="curve" smooth="yes"/>
      <point x="42" y="379"/>
      <point x="48" y="374"/>
      <point x="54" y="374" type="curve" smooth="yes"/>
      <point x="122" y="374"/>
      <point x="206" y="374"/>
      <point x="275" y="374" type="curve"/>
      <point x="275" y="477"/>
      <point x="256" y="545"/>
      <point x="240" y="545" type="curve" smooth="yes"/>
      <point x="176" y="545"/>
      <point x="108" y="545"/>
    </contour>
    <contour>
      <point x="342" y="60" type="curve"/>
      <point x="342" y="411" type="line" smooth="yes"/>
      <point x="342" y="433"/>
      <point x="266" y="545"/>
      <point x="240" y="545" type="curve" smooth="yes"/>
      <point x="226" y="545"/>
      <point x="202" y="541"/>
      <point x="155" y="532" type="curve"/>
      <point x="155" y="72" type="line" smooth="yes"/>
      <point x="155" y="64"/>
      <point x="168" y="60"/>
    </contour>
    <contour>
      <point x="40" y="171" type="line"/>
      <point x="40" y="125"/>
      <point x="40" y="57"/>
      <point x="40" y="11" type="curve" smooth="yes"/>
      <point x="40" y="8"/>
      <point x="41" y="5"/>
      <point x="43" y="3" type="curve" smooth="yes"/>
      <point x="45" y="1"/>
      <point x="48" y="0"/>
      <point x="51" y="0" type="curve"/>
      <point x="520" y="0" type="line"/>
      <point x="520" y="46"/>
      <point x="520" y="114"/>
      <point x="520" y="160" type="curve" smooth="yes"/>
      <point x="520" y="166"/>
      <point x="515" y="171"/>
      <point x="509" y="171" type="curve"/>
    </contour>
    <contour>
      <point x="294" y="310" type="curve"/>
      <point x="356" y="345"/>
      <point x="397" y="357"/>
      <point x="448" y="357" type="curve" smooth="yes"/>
      <point x="480" y="357"/>
      <point x="513" y="353"/>
      <point x="546" y="344" type="curve"/>
      <point x="566" y="344" type="line"/>
      <point x="566" y="403"/>
      <point x="566" y="500"/>
      <point x="566" y="544" type="curve"/>
      <point x="566" y="551"/>
      <point x="562" y="555"/>
      <point x="555" y="555" type="curve" smooth="yes"/>
      <point x="517" y="555" type="line" smooth="yes"/>
      <point x="426" y="555"/>
      <point x="375" y="529"/>
      <point x="321" y="459" type="curve" smooth="yes"/>
      <point x="300" y="432"/>
      <point x="294" y="406"/>
    </contour>
    <contour>
      <point x="303" y="556" type="move" name="top"/>
    </contour>
    <contour>
      <point x="303" y="-1" type="move" name="bottom"/>
    </contour>
  </outline>
</glyph>
<glyph name="s" format="1">
  <advance width="600"/>
  <unicode hex="0073"/>
  <outline>
    <contour>
      <point x="340" y="556" type="curve" smooth="yes"/>
      <point x="321" y="556" type="line" smooth="yes"/>
      <point x="162" y="556"/>
      <point x="58" y="489"/>
      <point x="58" y="375" type="curve" smooth="yes"/>
      <point x="58" y="332"/>
      <point x="134" y="300"/>
      <point x="233" y="300" type="curve"/>
      <point x="233" y="312"/>
      <point x="233" y="350"/>
      <point x="233" y="366" type="curve" smooth="yes"/>
      <point x="233" y="386"/>
      <point x="256" y="394"/>
      <point x="322" y="394" type="curve" smooth="yes"/>
      <point x="393" y="394"/>
      <point x="438" y="386"/>
      <point x="504" y="368" type="curve"/>
      <point x="524" y="368" type="line"/>
      <point x="524" y="422"/>
      <point x="524" y="468"/>
      <point x="524" y="518" type="curve"/>
      <point x="524" y="524"/>
      <point x="524" y="526"/>
      <point x="522" y="528" type="curve" smooth="yes"/>
      <point x="511" y="539"/>
      <point x="440" y="556"/>
    </contour>
    <contour>
      <point x="378" y="324" type="curve" smooth="yes"/>
      <point x="283" y="336" type="line" smooth="yes"/>
      <point x="248" y="340"/>
      <point x="233" y="347"/>
      <point x="233" y="366" type="curve" smooth="yes"/>
      <point x="233" y="393"/>
      <point x="233" y="420"/>
      <point x="233" y="455" type="curve"/>
      <point x="132" y="455"/>
      <point x="58" y="420"/>
      <point x="58" y="375" type="curve"/>
      <point x="58" y="286"/>
      <point x="109" y="240"/>
      <point x="237" y="222" type="curve" smooth="yes"/>
      <point x="332" y="209" type="line" smooth="yes"/>
      <point x="377" y="203"/>
      <point x="388" y="192"/>
      <point x="388" y="180" type="curve" smooth="yes"/>
      <point x="388" y="151"/>
      <point x="388" y="117"/>
      <point x="388" y="83" type="curve"/>
      <point x="492" y="85"/>
      <point x="558" y="117"/>
      <point x="558" y="166" type="curve" smooth="yes"/>
      <point x="558" y="249"/>
      <point x="508" y="308"/>
    </contour>
    <contour>
      <point x="295" y="151" type="curve" smooth="yes"/>
      <point x="198" y="151"/>
      <point x="138" y="159"/>
      <point x="72" y="184" type="curve"/>
      <point x="52" y="184" type="line"/>
      <point x="52" y="136"/>
      <point x="52" y="89"/>
      <point x="52" y="30" type="curve" smooth="yes"/>
      <point x="52" y="26"/>
      <point x="52" y="24"/>
      <point x="54" y="22" type="curve" smooth="yes"/>
      <point x="65" y="11"/>
      <point x="178" y="-10"/>
      <point x="270" y="-10" type="curve" smooth="yes"/>
      <point x="291" y="-10" type="line" smooth="yes"/>
      <point x="463" y="-10"/>
      <point x="558" y="51"/>
      <point x="558" y="166" type="curve" smooth="yes"/>
      <point x="558" y="239"/>
      <point x="480" y="264"/>
      <point x="388" y="264" type="curve"/>
      <point x="388" y="233"/>
      <point x="388" y="200"/>
      <point x="388" y="180" type="curve" smooth="yes"/>
      <point x="388" y="164"/>
      <point x="371" y="151"/>
    </contour>
    <contour>
      <point x="302" y="556" type="move" name="top"/>
    </contour>
    <contour>
      <point x="304" y="-1" type="move" name="bottom"/>
    </contour>
  </outline>
</glyph>
<glyph name="t" format="1">
  <advance width="600"/>
  <unicode hex="0074"/>
  <outline>
    <contour>
      <point x="165" y="700" type="curve"/>
      <point x="165" y="228" type="line" smooth="yes"/>
      <point x="165" y="126"/>
      <point x="250" y="34"/>
      <point x="414" y="66" type="curve"/>
      <point x="368" y="113"/>
      <point x="352" y="168"/>
      <point x="352" y="242" type="curve" smooth="yes"/>
      <point x="352" y="689" type="line" smooth="yes"/>
      <point x="352" y="695"/>
      <point x="348" y="700"/>
      <point x="342" y="700" type="curve" smooth="yes"/>
      <point x="298" y="700"/>
      <point x="213" y="700"/>
    </contour>
    <contour>
      <point x="535" y="176" type="curve"/>
      <point x="515" y="176" type="line"/>
      <point x="477" y="176"/>
      <point x="466" y="176"/>
      <point x="419" y="176" type="curve" smooth="yes"/>
      <point x="372" y="176"/>
      <point x="352" y="192"/>
      <point x="352" y="242" type="curve"/>
      <point x="184" y="255"/>
      <point x="165" y="240"/>
      <point x="165" y="228" type="curve" smooth="yes"/>
      <point x="165" y="73"/>
      <point x="249" y="0"/>
      <point x="400" y="0" type="curve" smooth="yes"/>
      <point x="524" y="0" type="line" smooth="yes"/>
      <point x="527" y="0"/>
      <point x="530" y="1"/>
      <point x="532" y="3" type="curve" smooth="yes"/>
      <point x="534" y="5"/>
      <point x="535" y="8"/>
      <point x="535" y="11" type="curve" smooth="yes"/>
      <point x="535" y="57"/>
      <point x="535" y="130"/>
    </contour>
    <contour>
      <point x="40" y="545" type="line"/>
      <point x="40" y="499"/>
      <point x="40" y="427"/>
      <point x="40" y="381" type="curve" smooth="yes"/>
      <point x="40" y="378"/>
      <point x="41" y="375"/>
      <point x="43" y="373" type="curve" smooth="yes"/>
      <point x="45" y="371"/>
      <point x="48" y="370"/>
      <point x="51" y="370" type="curve" smooth="yes"/>
      <point x="535" y="370" type="line"/>
      <point x="535" y="416"/>
      <point x="535" y="488"/>
      <point x="535" y="534" type="curve" smooth="yes"/>
      <point x="535" y="540"/>
      <point x="530" y="545"/>
      <point x="524" y="545" type="curve" smooth="yes"/>
    </contour>
    <contour>
      <point x="480" y="700" type="move" name="caronslovak"/>
    </contour>
    <contour>
      <point x="370" y="-1" type="move" name="bottom"/>
    </contour>
  </outline>
</glyph>
<glyph name="v" format="1">
  <advance width="600"/>
  <unicode hex="0076"/>
  <outline>
    <contour>
      <point x="558" y="545" type="curve" smooth="yes"/>
      <point x="386" y="545" type="line"/>
      <point x="358" y="396"/>
      <point x="327" y="250"/>
      <point x="297" y="101" type="curve"/>
      <point x="284" y="38"/>
      <point x="256" y="16"/>
      <point x="218" y="0" type="curve"/>
      <point x="434" y="0" type="line"/>
      <point x="480" y="175"/>
      <point x="525" y="351"/>
      <point x="571" y="526" type="curve"/>
      <point x="574" y="536"/>
      <point x="569" y="545"/>
    </contour>
    <contour>
      <point x="202" y="545" type="curve" smooth="yes"/>
      <point x="24" y="545" type="line"/>
      <point x="70" y="368"/>
      <point x="116" y="192"/>
      <point x="162" y="15" type="curve"/>
      <point x="164" y="5"/>
      <point x="172" y="0"/>
      <point x="182" y="0" type="curve" smooth="yes"/>
      <point x="237" y="0" type="line" smooth="yes"/>
      <point x="306" y="0"/>
      <point x="397" y="65"/>
      <point x="397" y="166" type="curve"/>
      <point x="359" y="166"/>
      <point x="331" y="166"/>
      <point x="303" y="166" type="curve" smooth="yes"/>
      <point x="296" y="166"/>
      <point x="292" y="170"/>
      <point x="290" y="178" type="curve"/>
      <point x="266" y="295"/>
      <point x="243" y="411"/>
      <point x="218" y="528" type="curve"/>
      <point x="216" y="539"/>
      <point x="210" y="545"/>
    </contour>
  </outline>
</glyph>
<glyph name="x" format="1">
  <advance width="600"/>
  <unicode hex="0078"/>
  <outline>
    <contour>
      <point x="380" y="0" type="curve" smooth="yes"/>
      <point x="434" y="0"/>
      <point x="524" y="0"/>
      <point x="576" y="0" type="curve"/>
      <point x="516" y="104"/>
      <point x="455" y="210"/>
      <point x="394" y="314" type="curve" smooth="yes"/>
      <point x="384" y="330"/>
      <point x="354" y="332"/>
      <point x="344" y="350" type="curve" smooth="yes"/>
      <point x="311" y="412"/>
      <point x="279" y="473"/>
      <point x="246" y="534" type="curve" smooth="yes"/>
      <point x="241" y="542"/>
      <point x="235" y="545"/>
      <point x="226" y="545" type="curve" smooth="yes"/>
      <point x="162" y="545"/>
      <point x="95" y="545"/>
      <point x="31" y="545" type="curve"/>
      <point x="90" y="444"/>
      <point x="148" y="342"/>
      <point x="206" y="240" type="curve" smooth="yes"/>
      <point x="218" y="221"/>
      <point x="249" y="218"/>
      <point x="260" y="198" type="curve" smooth="yes"/>
      <point x="294" y="136"/>
      <point x="327" y="72"/>
      <point x="362" y="10" type="curve" smooth="yes"/>
      <point x="366" y="2"/>
      <point x="372" y="0"/>
    </contour>
    <contour>
      <point x="560" y="545" type="curve" smooth="yes"/>
      <point x="387" y="545" type="line"/>
      <point x="354" y="472"/>
      <point x="323" y="402"/>
      <point x="290" y="328" type="curve" smooth="yes"/>
      <point x="280" y="306"/>
      <point x="216" y="337"/>
      <point x="204" y="316" type="curve" smooth="yes"/>
      <point x="148" y="220"/>
      <point x="90" y="124"/>
      <point x="34" y="27" type="curve" smooth="yes"/>
      <point x="30" y="19"/>
      <point x="28" y="15"/>
      <point x="28" y="11" type="curve" smooth="yes"/>
      <point x="28" y="4"/>
      <point x="32" y="0"/>
      <point x="40" y="0" type="curve" smooth="yes"/>
      <point x="220" y="0" type="line"/>
      <point x="252" y="72"/>
      <point x="284" y="144"/>
      <point x="317" y="216" type="curve" smooth="yes"/>
      <point x="330" y="244"/>
      <point x="390" y="208"/>
      <point x="403" y="231" type="curve" smooth="yes"/>
      <point x="458" y="328"/>
      <point x="513" y="426"/>
      <point x="568" y="523" type="curve" smooth="yes"/>
      <point x="572" y="530"/>
      <point x="572" y="536"/>
      <point x="571" y="538" type="curve" smooth="yes"/>
      <point x="570" y="544"/>
      <point x="565" y="545"/>
    </contour>
  </outline>
</glyph>
<glyph name="y" format="1">
  <advance width="600"/>
  <unicode hex="0079"/>
  <outline>
    <contour>
      <point x="560" y="545" type="curve" smooth="yes"/>
      <point x="510" y="545"/>
      <point x="432" y="544"/>
      <point x="389" y="544" type="curve"/>
      <point x="354" y="350"/>
      <point x="301" y="57"/>
      <point x="285" y="-30" type="curve" smooth="yes"/>
      <point x="278" y="-65"/>
      <point x="258" y="-79"/>
      <point x="224" y="-79" type="curve" smooth="yes"/>
      <point x="82" y="-79" type="line"/>
      <point x="82" y="-239" type="line" smooth="yes"/>
      <point x="82" y="-246"/>
      <point x="86" y="-250"/>
      <point x="94" y="-250" type="curve" smooth="yes"/>
      <point x="246" y="-250" type="line" smooth="yes"/>
      <point x="359" y="-250"/>
      <point x="424" y="-186"/>
      <point x="448" y="-70" type="curve" smooth="yes"/>
      <point x="496" y="156"/>
      <point x="534" y="342"/>
      <point x="572" y="529" type="curve" smooth="yes"/>
      <point x="574" y="539"/>
      <point x="568" y="545"/>
    </contour>
    <contour>
      <point x="208" y="545" type="curve" smooth="yes"/>
      <point x="154" y="545"/>
      <point x="72" y="545"/>
      <point x="26" y="545" type="curve"/>
      <point x="70" y="366"/>
      <point x="153" y="27"/>
      <point x="156" y="16" type="curve" smooth="yes"/>
      <point x="158" y="9"/>
      <point x="162" y="5"/>
      <point x="170" y="5" type="curve" smooth="yes"/>
      <point x="340" y="5" type="line" smooth="yes"/>
      <point x="366" y="5"/>
      <point x="387" y="60"/>
      <point x="389" y="156" type="curve"/>
      <point x="310" y="156" type="line"/>
      <point x="306" y="156"/>
      <point x="302" y="158"/>
      <point x="301" y="163" type="curve" smooth="yes"/>
      <point x="298" y="177"/>
      <point x="250" y="414"/>
      <point x="226" y="530" type="curve" smooth="yes"/>
      <point x="224" y="540"/>
      <point x="218" y="545"/>
    </contour>
    <contour>
      <point x="298" y="556" type="move" name="top"/>
    </contour>
  </outline>
</glyph>
<glyph name="z" format="1">
  <advance width="600"/>
  <unicode hex="007A"/>
  <outline>
    <contour>
      <point x="50" y="545" type="line"/>
      <point x="50" y="489"/>
      <point x="50" y="434"/>
      <point x="50" y="378" type="curve" smooth="yes"/>
      <point x="50" y="374"/>
      <point x="51" y="372"/>
      <point x="53" y="370" type="curve" smooth="yes"/>
      <point x="55" y="368"/>
      <point x="58" y="366"/>
      <point x="61" y="366" type="curve" smooth="yes"/>
      <point x="350" y="366" type="line" smooth="yes"/>
      <point x="434" y="366"/>
      <point x="489" y="372"/>
      <point x="550" y="385" type="curve"/>
      <point x="550" y="534" type="line" smooth="yes"/>
      <point x="550" y="537"/>
      <point x="549" y="540"/>
      <point x="547" y="542" type="curve" smooth="yes"/>
      <point x="545" y="544"/>
      <point x="542" y="545"/>
      <point x="539" y="545" type="curve" smooth="yes"/>
    </contour>
    <contour>
      <point x="395" y="436" type="curve"/>
      <point x="280" y="342"/>
      <point x="165" y="248"/>
      <point x="50" y="155" type="curve"/>
      <point x="50" y="76"/>
      <point x="127" y="92"/>
      <point x="214" y="112" type="curve" smooth="yes"/>
      <point x="413" y="259"/>
      <point x="550" y="382"/>
      <point x="550" y="385" type="curve"/>
      <point x="550" y="421"/>
      <point x="504" y="436"/>
    </contour>
    <contour>
      <point x="550" y="0" type="line"/>
      <point x="550" y="57"/>
      <point x="550" y="110"/>
      <point x="550" y="168" type="curve"/>
      <point x="550" y="174"/>
      <point x="545" y="178"/>
      <point x="539" y="178" type="curve" smooth="yes"/>
      <point x="254" y="178" type="line" smooth="yes"/>
      <point x="170" y="178"/>
      <point x="115" y="173"/>
      <point x="50" y="155" type="curve"/>
      <point x="50" y="11" type="line" smooth="yes"/>
      <point x="50" y="8"/>
      <point x="51" y="5"/>
      <point x="53" y="3" type="curve" smooth="yes"/>
      <point x="55" y="1"/>
      <point x="58" y="0"/>
      <point x="61" y="0" type="curve" smooth="yes"/>
    </contour>
    <contour>
      <point x="300" y="556" type="move" name="top"/>
    </contour>
  </outline>
</glyph>
<glyph name="braceleft" format="1">
  <advance width="600"/>
  <unicode hex="007B"/>
  <outline>
    <contour>
      <point x="416" y="598" type="curve" smooth="yes"/>
      <point x="467" y="598"/>
      <point x="471" y="598"/>
      <point x="515" y="598" type="curve"/>
      <point x="535" y="598" type="line"/>
      <point x="535" y="650"/>
      <point x="535" y="697"/>
      <point x="535" y="749" type="curve"/>
      <point x="535" y="756"/>
      <point x="531" y="760"/>
      <point x="524" y="760" type="curve" smooth="yes"/>
      <point x="326" y="760" type="line" smooth="yes"/>
      <point x="245" y="760"/>
      <point x="209" y="706"/>
      <point x="209" y="648" type="curve" smooth="yes"/>
      <point x="209" y="642" type="line" smooth="yes"/>
      <point x="209" y="613"/>
      <point x="252" y="608"/>
      <point x="330" y="584" type="curve"/>
      <point x="348" y="595"/>
      <point x="385" y="598"/>
    </contour>
    <contour>
      <point x="427" y="434" type="curve" smooth="yes"/>
      <point x="427" y="510"/>
      <point x="386" y="536"/>
      <point x="386" y="584" type="curve" smooth="yes"/>
      <point x="386" y="596"/>
      <point x="386" y="652"/>
      <point x="386" y="660" type="curve"/>
      <point x="216" y="660"/>
      <point x="209" y="655"/>
      <point x="209" y="644" type="curve" smooth="yes"/>
      <point x="209" y="619" type="line" smooth="yes"/>
      <point x="209" y="530"/>
      <point x="254" y="504"/>
      <point x="254" y="447" type="curve" smooth="yes"/>
      <point x="254" y="406"/>
      <point x="212" y="386"/>
      <point x="134" y="386" type="curve" smooth="yes"/>
      <point x="73" y="386" type="line"/>
      <point x="73" y="281" type="line" smooth="yes"/>
      <point x="73" y="273"/>
      <point x="77" y="270"/>
      <point x="84" y="270" type="curve" smooth="yes"/>
      <point x="130" y="270" type="line" smooth="yes"/>
      <point x="308" y="270"/>
      <point x="427" y="328"/>
    </contour>
    <contour>
      <point x="427" y="166" type="curve" smooth="yes"/>
      <point x="427" y="273"/>
      <point x="309" y="330"/>
      <point x="130" y="330" type="curve" smooth="yes"/>
      <point x="111" y="330"/>
      <point x="92" y="330"/>
      <point x="73" y="330" type="curve"/>
      <point x="73" y="226" type="line" smooth="yes"/>
      <point x="73" y="218"/>
      <point x="77" y="214"/>
      <point x="84" y="214" type="curve" smooth="yes"/>
      <point x="134" y="214" type="line" smooth="yes"/>
      <point x="212" y="214"/>
      <point x="254" y="189"/>
      <point x="254" y="152" type="curve" smooth="yes"/>
      <point x="254" y="92"/>
      <point x="209" y="72"/>
      <point x="209" y="-22" type="curve" smooth="yes"/>
      <point x="209" y="-44" type="line" smooth="yes"/>
      <point x="209" y="-59"/>
      <point x="219" y="-61"/>
      <point x="386" y="-61" type="curve"/>
      <point x="386" y="-30"/>
      <point x="386" y="0"/>
      <point x="386" y="16" type="curve" smooth="yes"/>
      <point x="386" y="62"/>
      <point x="427" y="90"/>
    </contour>
    <contour>
      <point x="416" y="2" type="curve" smooth="yes"/>
      <point x="385" y="2"/>
      <point x="348" y="4"/>
      <point x="330" y="16" type="curve"/>
      <point x="240" y="-8"/>
      <point x="209" y="-15"/>
      <point x="209" y="-42" type="curve" smooth="yes"/>
      <point x="209" y="-50" type="line" smooth="yes"/>
      <point x="209" y="-108"/>
      <point x="245" y="-161"/>
      <point x="326" y="-161" type="curve" smooth="yes"/>
      <point x="524" y="-161" type="line" smooth="yes"/>
      <point x="531" y="-161"/>
      <point x="535" y="-157"/>
      <point x="535" y="-150" type="curve"/>
      <point x="535" y="2" type="line"/>
      <point x="515" y="2" type="line"/>
      <point x="471" y="2"/>
      <point x="466" y="2"/>
    </contour>
  </outline>
</glyph>
<glyph name="bar" format="1">
  <advance width="600"/>
  <unicode hex="007C"/>
  <outline>
    <contour>
      <point x="203" y="760" type="curve"/>
      <point x="203" y="723"/>
      <point x="203" y="688"/>
      <point x="203" y="650" type="curve" smooth="yes"/>
      <point x="203" y="-148" type="line" smooth="yes"/>
      <point x="203" y="-154"/>
      <point x="208" y="-160"/>
      <point x="214" y="-160" type="curve" smooth="yes"/>
      <point x="276" y="-160"/>
      <point x="336" y="-160"/>
      <point x="397" y="-160" type="curve"/>
      <point x="397" y="749" type="line" smooth="yes"/>
      <point x="397" y="752"/>
      <point x="396" y="755"/>
      <point x="394" y="757" type="curve" smooth="yes"/>
      <point x="392" y="759"/>
      <point x="389" y="760"/>
      <point x="386" y="760" type="curve" smooth="yes"/>
      <point x="324" y="760"/>
      <point x="264" y="760"/>
    </contour>
  </outline>
</glyph>
<glyph name="braceright" format="1">
  <advance width="600"/>
  <unicode hex="007D"/>
  <outline>
    <contour>
      <point x="184" y="2" type="curve" smooth="yes"/>
      <point x="133" y="2"/>
      <point x="129" y="2"/>
      <point x="85" y="2" type="curve"/>
      <point x="65" y="2" type="line"/>
      <point x="65" y="-50"/>
      <point x="65" y="-98"/>
      <point x="65" y="-150" type="curve"/>
      <point x="65" y="-157"/>
      <point x="69" y="-161"/>
      <point x="76" y="-161" type="curve" smooth="yes"/>
      <point x="274" y="-161" type="line" smooth="yes"/>
      <point x="355" y="-161"/>
      <point x="391" y="-108"/>
      <point x="391" y="-50" type="curve" smooth="yes"/>
      <point x="391" y="-42" type="line" smooth="yes"/>
      <point x="391" y="-14"/>
      <point x="348" y="-8"/>
      <point x="270" y="16" type="curve"/>
      <point x="252" y="4"/>
      <point x="215" y="2"/>
    </contour>
    <contour>
      <point x="173" y="166" type="curve" smooth="yes"/>
      <point x="173" y="88"/>
      <point x="214" y="62"/>
      <point x="214" y="16" type="curve" smooth="yes"/>
      <point x="214" y="3"/>
      <point x="214" y="-54"/>
      <point x="214" y="-61" type="curve"/>
      <point x="384" y="-61"/>
      <point x="391" y="-56"/>
      <point x="391" y="-44" type="curve" smooth="yes"/>
      <point x="391" y="-20" type="line" smooth="yes"/>
      <point x="391" y="70"/>
      <point x="346" y="95"/>
      <point x="346" y="152" type="curve" smooth="yes"/>
      <point x="346" y="192"/>
      <point x="388" y="214"/>
      <point x="466" y="214" type="curve" smooth="yes"/>
      <point x="527" y="214" type="line"/>
      <point x="527" y="318" type="line" smooth="yes"/>
      <point x="527" y="326"/>
      <point x="523" y="329"/>
      <point x="516" y="329" type="curve" smooth="yes"/>
      <point x="470" y="329" type="line" smooth="yes"/>
      <point x="292" y="329"/>
      <point x="173" y="271"/>
    </contour>
    <contour>
      <point x="173" y="433" type="curve" smooth="yes"/>
      <point x="173" y="326"/>
      <point x="291" y="269"/>
      <point x="470" y="269" type="curve" smooth="yes"/>
      <point x="489" y="269"/>
      <point x="508" y="269"/>
      <point x="527" y="269" type="curve"/>
      <point x="527" y="374" type="line" smooth="yes"/>
      <point x="527" y="381"/>
      <point x="523" y="384"/>
      <point x="516" y="384" type="curve" smooth="yes"/>
      <point x="466" y="384" type="line" smooth="yes"/>
      <point x="388" y="384"/>
      <point x="346" y="410"/>
      <point x="346" y="447" type="curve" smooth="yes"/>
      <point x="346" y="506"/>
      <point x="391" y="528"/>
      <point x="391" y="620" type="curve" smooth="yes"/>
      <point x="391" y="643" type="line" smooth="yes"/>
      <point x="391" y="658"/>
      <point x="381" y="660"/>
      <point x="214" y="660" type="curve"/>
      <point x="214" y="629"/>
      <point x="214" y="600"/>
      <point x="214" y="584" type="curve" smooth="yes"/>
      <point x="214" y="537"/>
      <point x="173" y="508"/>
    </contour>
    <contour>
      <point x="184" y="598" type="curve" smooth="yes"/>
      <point x="215" y="598"/>
      <point x="252" y="595"/>
      <point x="270" y="584" type="curve"/>
      <point x="360" y="608"/>
      <point x="391" y="614"/>
      <point x="391" y="641" type="curve" smooth="yes"/>
      <point x="391" y="648" type="line" smooth="yes"/>
      <point x="391" y="706"/>
      <point x="355" y="760"/>
      <point x="274" y="760" type="curve" smooth="yes"/>
      <point x="76" y="760" type="line" smooth="yes"/>
      <point x="69" y="760"/>
      <point x="65" y="756"/>
      <point x="65" y="749" type="curve"/>
      <point x="65" y="598" type="line"/>
      <point x="85" y="598" type="line"/>
      <point x="129" y="598"/>
      <point x="134" y="598"/>
    </contour>
  </outline>
</glyph>
<glyph name="exclamdown" format="1">
  <advance width="600"/>
  <unicode hex="00A1"/>
  <outline>
    <contour>
      <point x="236" y="239" type="line"/>
      <point x="222" y="173"/>
      <point x="208" y="108"/>
      <point x="193" y="42" type="curve"/>
      <point x="193" y="-144" type="line" smooth="yes"/>
      <point x="193" y="-152"/>
      <point x="198" y="-156"/>
      <point x="204" y="-156" type="curve" smooth="yes"/>
      <point x="292" y="-156"/>
      <point x="360" y="-156"/>
      <point x="407" y="-156" type="curve"/>
      <point x="407" y="-118"/>
      <point x="407" y="-82"/>
      <point x="407" y="-46" type="curve" smooth="yes"/>
      <point x="407" y="42" type="line"/>
      <point x="367" y="232"/>
      <point x="366" y="232"/>
      <point x="362" y="236" type="curve" smooth="yes"/>
      <point x="360" y="238"/>
      <point x="358" y="239"/>
      <point x="354" y="239" type="curve"/>
    </contour>
    <contour>
      <point x="188" y="556" type="curve"/>
      <point x="188" y="342" type="line" smooth="yes"/>
      <point x="188" y="336"/>
      <point x="193" y="331"/>
      <point x="199" y="331" type="curve" smooth="yes"/>
      <point x="272" y="331"/>
      <point x="338" y="331"/>
      <point x="412" y="331" type="curve"/>
      <point x="412" y="545" type="line" smooth="yes"/>
      <point x="412" y="551"/>
      <point x="407" y="556"/>
      <point x="401" y="556" type="curve" smooth="yes"/>
      <point x="328" y="556"/>
      <point x="262" y="556"/>
    </contour>
  </outline>
</glyph>
<glyph name="cent" format="1">
  <advance width="600"/>
  <unicode hex="00A2"/>
  <outline>
    <contour>
      <point x="394" y="422" type="line"/>
      <point x="466" y="774" type="line" smooth="yes"/>
      <point x="468" y="783"/>
      <point x="462" y="787"/>
      <point x="456" y="787" type="curve" smooth="yes"/>
      <point x="394" y="787"/>
      <point x="370" y="787"/>
      <point x="306" y="787" type="curve"/>
      <point x="306" y="752"/>
      <point x="306" y="718"/>
      <point x="306" y="684" type="curve"/>
      <point x="306" y="458" type="line" smooth="yes"/>
      <point x="306" y="450"/>
      <point x="309" y="444"/>
      <point x="318" y="442" type="curve" smooth="yes"/>
    </contour>
    <contour>
      <point x="305" y="274" type="line"/>
      <point x="233" y="-78" type="line" smooth="yes"/>
      <point x="232" y="-87"/>
      <point x="237" y="-91"/>
      <point x="243" y="-91" type="curve" smooth="yes"/>
      <point x="306" y="-91"/>
      <point x="328" y="-91"/>
      <point x="392" y="-91" type="curve"/>
      <point x="392" y="-56"/>
      <point x="392" y="-22"/>
      <point x="392" y="12" type="curve"/>
      <point x="392" y="238" type="line" smooth="yes"/>
      <point x="392" y="246"/>
      <point x="390" y="252"/>
      <point x="381" y="254" type="curve" smooth="yes"/>
    </contour>
    <contour>
      <point x="348" y="638" type="curve" smooth="yes"/>
      <point x="156" y="638"/>
      <point x="52" y="533"/>
      <point x="52" y="392" type="curve" smooth="yes"/>
      <point x="52" y="310" type="line" smooth="yes"/>
      <point x="52" y="144"/>
      <point x="160" y="63"/>
      <point x="348" y="63" type="curve" smooth="yes"/>
      <point x="386" y="63"/>
      <point x="384" y="84"/>
      <point x="350" y="238" type="curve"/>
      <point x="268" y="238"/>
      <point x="242" y="265"/>
      <point x="242" y="326" type="curve" smooth="yes"/>
      <point x="242" y="376" type="line" smooth="yes"/>
      <point x="242" y="446"/>
      <point x="295" y="462"/>
      <point x="350" y="462" type="curve" smooth="yes"/>
      <point x="412" y="462"/>
      <point x="457" y="454"/>
      <point x="510" y="434" type="curve"/>
      <point x="530" y="434" type="line"/>
      <point x="530" y="488"/>
      <point x="530" y="540"/>
      <point x="530" y="594" type="curve" smooth="yes"/>
      <point x="530" y="597"/>
      <point x="529" y="600"/>
      <point x="527" y="602" type="curve" smooth="yes"/>
      <point x="511" y="618"/>
      <point x="436" y="638"/>
    </contour>
    <contour>
      <point x="166" y="310" type="curve"/>
      <point x="120" y="172"/>
      <point x="188" y="63"/>
      <point x="348" y="63" type="curve" smooth="yes"/>
      <point x="434" y="63"/>
      <point x="512" y="82"/>
      <point x="527" y="96" type="curve" smooth="yes"/>
      <point x="529" y="98"/>
      <point x="530" y="102"/>
      <point x="530" y="104" type="curve"/>
      <point x="530" y="158"/>
      <point x="530" y="212"/>
      <point x="530" y="265" type="curve"/>
      <point x="510" y="265" type="line"/>
      <point x="457" y="246"/>
      <point x="412" y="238"/>
      <point x="350" y="238" type="curve" smooth="yes"/>
      <point x="264" y="238"/>
      <point x="214" y="262"/>
    </contour>
  </outline>
</glyph>
<glyph name="sterling" format="1">
  <advance width="600"/>
  <unicode hex="00A3"/>
  <outline>
    <contour>
      <point x="389" y="538" type="curve" smooth="yes"/>
      <point x="442" y="538"/>
      <point x="482" y="530"/>
      <point x="526" y="516" type="curve"/>
      <point x="546" y="516" type="line"/>
      <point x="546" y="568"/>
      <point x="546" y="622"/>
      <point x="546" y="686" type="curve" smooth="yes"/>
      <point x="546" y="688"/>
      <point x="546" y="691"/>
      <point x="544" y="693" type="curve" smooth="yes"/>
      <point x="534" y="702"/>
      <point x="468" y="720"/>
      <point x="370" y="720" type="curve" smooth="yes"/>
      <point x="210" y="720"/>
      <point x="118" y="650"/>
      <point x="118" y="522" type="curve" smooth="yes"/>
      <point x="118" y="500" type="line" smooth="yes"/>
      <point x="118" y="475"/>
      <point x="176" y="468"/>
      <point x="302" y="474" type="curve"/>
      <point x="302" y="520"/>
      <point x="319" y="538"/>
    </contour>
    <contour>
      <point x="118" y="500" type="curve" smooth="yes"/>
      <point x="118" y="409"/>
      <point x="118" y="335"/>
      <point x="118" y="238" type="curve" smooth="yes"/>
      <point x="118" y="192"/>
      <point x="92" y="166"/>
      <point x="52" y="166" type="curve" smooth="yes"/>
      <point x="48" y="166"/>
      <point x="44" y="166"/>
      <point x="39" y="166" type="curve"/>
      <point x="35" y="166" type="line"/>
      <point x="35" y="114"/>
      <point x="35" y="72"/>
      <point x="35" y="11" type="curve" smooth="yes"/>
      <point x="35" y="3"/>
      <point x="39" y="0"/>
      <point x="46" y="0" type="curve" smooth="yes"/>
      <point x="56" y="0" type="line" smooth="yes"/>
      <point x="198" y="0"/>
      <point x="302" y="88"/>
      <point x="302" y="337" type="curve" smooth="yes"/>
      <point x="302" y="392"/>
      <point x="302" y="445"/>
      <point x="302" y="500" type="curve" smooth="yes"/>
      <point x="302" y="541"/>
      <point x="302" y="579"/>
      <point x="302" y="618" type="curve"/>
      <point x="198" y="618"/>
      <point x="118" y="575"/>
    </contour>
    <contour>
      <point x="52" y="0" type="curve"/>
      <point x="231" y="0"/>
      <point x="338" y="0"/>
      <point x="474" y="0" type="curve" smooth="yes"/>
      <point x="554" y="0" type="line" smooth="yes"/>
      <point x="562" y="0"/>
      <point x="565" y="3"/>
      <point x="565" y="11" type="curve"/>
      <point x="565" y="65"/>
      <point x="565" y="117"/>
      <point x="565" y="171" type="curve"/>
      <point x="545" y="171" type="line"/>
      <point x="514" y="171"/>
      <point x="490" y="171"/>
      <point x="451" y="171" type="curve" smooth="yes"/>
      <point x="353" y="171"/>
      <point x="274" y="171"/>
      <point x="138" y="171" type="curve"/>
      <point x="43" y="7"/>
      <point x="47" y="0"/>
    </contour>
    <contour>
      <point x="35" y="425" type="line"/>
      <point x="35" y="374"/>
      <point x="35" y="346"/>
      <point x="35" y="295" type="curve" smooth="yes"/>
      <point x="35" y="292"/>
      <point x="36" y="289"/>
      <point x="38" y="287" type="curve" smooth="yes"/>
      <point x="40" y="285"/>
      <point x="43" y="284"/>
      <point x="46" y="284" type="curve" smooth="yes"/>
      <point x="475" y="284" type="line"/>
      <point x="475" y="336"/>
      <point x="475" y="362"/>
      <point x="475" y="414" type="curve" smooth="yes"/>
      <point x="475" y="420"/>
      <point x="470" y="425"/>
      <point x="464" y="425" type="curve" smooth="yes"/>
    </contour>
  </outline>
</glyph>
<glyph name="currency" format="1">
  <advance width="600"/>
  <unicode hex="00A4"/>
  <outline>
    <contour>
      <point x="258" y="424" type="curve"/>
      <point x="227" y="455"/>
      <point x="191" y="491"/>
      <point x="159" y="523" type="curve" smooth="yes"/>
      <point x="157" y="525"/>
      <point x="155" y="526"/>
      <point x="153" y="526" type="curve" smooth="yes"/>
      <point x="151" y="526"/>
      <point x="149" y="525"/>
      <point x="147" y="523" type="curve" smooth="yes"/>
      <point x="120" y="496"/>
      <point x="91" y="467"/>
      <point x="70" y="446" type="curve"/>
      <point x="101" y="415"/>
      <point x="138" y="378"/>
      <point x="169" y="347" type="curve" smooth="yes"/>
      <point x="173" y="343"/>
      <point x="177" y="343"/>
      <point x="181" y="347" type="curve" smooth="yes"/>
      <point x="205" y="371"/>
      <point x="236" y="402"/>
    </contour>
    <contour>
      <point x="340" y="424" type="curve"/>
      <point x="347" y="417"/>
      <point x="409" y="355"/>
      <point x="417" y="347" type="curve" smooth="yes"/>
      <point x="421" y="343"/>
      <point x="425" y="343"/>
      <point x="429" y="347" type="curve" smooth="yes"/>
      <point x="460" y="378"/>
      <point x="497" y="415"/>
      <point x="528" y="446" type="curve"/>
      <point x="502" y="472"/>
      <point x="477" y="497"/>
      <point x="451" y="523" type="curve" smooth="yes"/>
      <point x="449" y="525"/>
      <point x="447" y="526"/>
      <point x="445" y="526" type="curve" smooth="yes"/>
      <point x="443" y="526"/>
      <point x="441" y="525"/>
      <point x="439" y="523" type="curve" smooth="yes"/>
      <point x="407" y="491"/>
      <point x="371" y="455"/>
    </contour>
    <contour>
      <point x="340" y="174" type="curve"/>
      <point x="371" y="143"/>
      <point x="407" y="107"/>
      <point x="439" y="75" type="curve" smooth="yes"/>
      <point x="441" y="73"/>
      <point x="443" y="72"/>
      <point x="445" y="72" type="curve" smooth="yes"/>
      <point x="447" y="72"/>
      <point x="449" y="73"/>
      <point x="451" y="75" type="curve" smooth="yes"/>
      <point x="478" y="102"/>
      <point x="507" y="131"/>
      <point x="528" y="152" type="curve"/>
      <point x="497" y="183"/>
      <point x="460" y="220"/>
      <point x="429" y="251" type="curve" smooth="yes"/>
      <point x="425" y="255"/>
      <point x="421" y="255"/>
      <point x="417" y="251" type="curve" smooth="yes"/>
      <point x="393" y="227"/>
      <point x="362" y="196"/>
    </contour>
    <contour>
      <point x="258" y="174" type="curve"/>
      <point x="251" y="181"/>
      <point x="189" y="243"/>
      <point x="181" y="251" type="curve" smooth="yes"/>
      <point x="177" y="255"/>
      <point x="173" y="255"/>
      <point x="169" y="251" type="curve" smooth="yes"/>
      <point x="138" y="220"/>
      <point x="101" y="183"/>
      <point x="70" y="152" type="curve"/>
      <point x="96" y="126"/>
      <point x="121" y="101"/>
      <point x="147" y="75" type="curve" smooth="yes"/>
      <point x="149" y="73"/>
      <point x="151" y="72"/>
      <point x="153" y="72" type="curve" smooth="yes"/>
      <point x="155" y="72"/>
      <point x="157" y="73"/>
      <point x="159" y="75" type="curve" smooth="yes"/>
      <point x="191" y="107"/>
      <point x="227" y="143"/>
    </contour>
    <contour>
      <point x="300" y="222" type="curve"/>
      <point x="252" y="222"/>
      <point x="225" y="246"/>
      <point x="225" y="284" type="curve" smooth="yes"/>
      <point x="225" y="318" type="line" smooth="yes"/>
      <point x="225" y="358"/>
      <point x="253" y="380"/>
      <point x="300" y="380" type="curve" smooth="yes"/>
      <point x="330" y="380"/>
      <point x="346" y="378"/>
      <point x="366" y="372" type="curve"/>
      <point x="372" y="412"/>
      <point x="364" y="476"/>
      <point x="300" y="476" type="curve"/>
      <point x="194" y="476"/>
      <point x="126" y="418"/>
      <point x="126" y="328" type="curve" smooth="yes"/>
      <point x="126" y="276" type="line" smooth="yes"/>
      <point x="126" y="184"/>
      <point x="194" y="126"/>
      <point x="300" y="126" type="curve"/>
      <point x="309" y="126"/>
      <point x="309" y="196"/>
    </contour>
    <contour>
      <point x="300" y="380" type="curve"/>
      <point x="348" y="380"/>
      <point x="375" y="358"/>
      <point x="375" y="318" type="curve" smooth="yes"/>
      <point x="375" y="284" type="line" smooth="yes"/>
      <point x="375" y="246"/>
      <point x="347" y="222"/>
      <point x="300" y="222" type="curve" smooth="yes"/>
      <point x="270" y="222"/>
      <point x="255" y="224"/>
      <point x="234" y="231" type="curve"/>
      <point x="228" y="192"/>
      <point x="236" y="126"/>
      <point x="300" y="126" type="curve"/>
      <point x="406" y="126"/>
      <point x="474" y="184"/>
      <point x="474" y="276" type="curve" smooth="yes"/>
      <point x="474" y="328" type="line" smooth="yes"/>
      <point x="474" y="418"/>
      <point x="406" y="476"/>
      <point x="300" y="476" type="curve"/>
      <point x="287" y="476"/>
      <point x="290" y="408"/>
    </contour>
  </outline>
</glyph>
<glyph name="brokenbar" format="1">
  <advance width="600"/>
  <unicode hex="00A6"/>
  <outline>
    <contour>
      <point x="202" y="760" type="curve"/>
      <point x="202" y="727"/>
      <point x="202" y="694"/>
      <point x="202" y="661" type="curve" smooth="yes"/>
      <point x="202" y="380" type="line" smooth="yes"/>
      <point x="202" y="374"/>
      <point x="208" y="369"/>
      <point x="214" y="369" type="curve" smooth="yes"/>
      <point x="274" y="369"/>
      <point x="335" y="369"/>
      <point x="398" y="369" type="curve"/>
      <point x="398" y="749" type="line" smooth="yes"/>
      <point x="398" y="752"/>
      <point x="396" y="755"/>
      <point x="394" y="757" type="curve" smooth="yes"/>
      <point x="392" y="759"/>
      <point x="390" y="760"/>
      <point x="386" y="760" type="curve" smooth="yes"/>
      <point x="324" y="760"/>
      <point x="263" y="760"/>
    </contour>
    <contour>
      <point x="202" y="231" type="curve"/>
      <point x="202" y="-149" type="line"/>
      <point x="202" y="-155"/>
      <point x="208" y="-160"/>
      <point x="214" y="-160" type="curve" smooth="yes"/>
      <point x="274" y="-160"/>
      <point x="335" y="-160"/>
      <point x="398" y="-160" type="curve"/>
      <point x="398" y="220" type="line" smooth="yes"/>
      <point x="398" y="227"/>
      <point x="394" y="231"/>
      <point x="386" y="231" type="curve" smooth="yes"/>
      <point x="324" y="231"/>
      <point x="263" y="231"/>
    </contour>
  </outline>
</glyph>
<glyph name="ordfeminine" format="1">
  <advance width="600"/>
  <unicode hex="00AA"/>
  <outline>
    <contour>
      <point x="263" y="760" type="curve" smooth="yes"/>
      <point x="194" y="760"/>
      <point x="117" y="747"/>
      <point x="106" y="736" type="curve" smooth="yes"/>
      <point x="105" y="735"/>
      <point x="104" y="732"/>
      <point x="104" y="729" type="curve" smooth="yes"/>
      <point x="104" y="695"/>
      <point x="104" y="646"/>
      <point x="104" y="612" type="curve"/>
      <point x="121" y="612" type="line"/>
      <point x="170" y="624"/>
      <point x="209" y="629"/>
      <point x="264" y="629" type="curve" smooth="yes"/>
      <point x="316" y="629"/>
      <point x="342" y="618"/>
      <point x="342" y="582" type="curve"/>
      <point x="483" y="566"/>
      <point x="497" y="564"/>
      <point x="497" y="579" type="curve"/>
      <point x="497" y="704"/>
      <point x="440" y="760"/>
    </contour>
    <contour>
      <point x="342" y="650" type="curve"/>
      <point x="342" y="596"/>
      <point x="342" y="595"/>
      <point x="342" y="560" type="curve" smooth="yes"/>
      <point x="342" y="510"/>
      <point x="342" y="459"/>
      <point x="342" y="404" type="curve" smooth="yes"/>
      <point x="342" y="350"/>
      <point x="448" y="312"/>
      <point x="497" y="322" type="curve"/>
      <point x="497" y="353"/>
      <point x="497" y="378"/>
      <point x="497" y="416" type="curve" smooth="yes"/>
      <point x="497" y="473"/>
      <point x="497" y="509"/>
      <point x="497" y="579" type="curve" smooth="yes"/>
      <point x="497" y="618"/>
      <point x="440" y="650"/>
    </contour>
    <contour>
      <point x="536" y="426" type="line"/>
      <point x="520" y="426" type="line"/>
      <point x="518" y="426"/>
      <point x="516" y="426"/>
      <point x="513" y="426" type="curve" smooth="yes"/>
      <point x="503" y="426"/>
      <point x="498" y="432"/>
      <point x="497" y="446" type="curve"/>
      <point x="352" y="434"/>
      <point x="342" y="421"/>
      <point x="342" y="404" type="curve" smooth="yes"/>
      <point x="342" y="331"/>
      <point x="404" y="286"/>
      <point x="485" y="286" type="curve" smooth="yes"/>
      <point x="528" y="286" type="line" smooth="yes"/>
      <point x="534" y="286"/>
      <point x="536" y="289"/>
      <point x="536" y="294" type="curve"/>
    </contour>
    <contour>
      <point x="236" y="428" type="curve" smooth="yes"/>
      <point x="236" y="447" type="line" smooth="yes"/>
      <point x="236" y="472"/>
      <point x="236" y="492"/>
      <point x="236" y="512" type="curve"/>
      <point x="128" y="512"/>
      <point x="84" y="474"/>
      <point x="84" y="438" type="curve" smooth="yes"/>
      <point x="84" y="408" type="line" smooth="yes"/>
      <point x="84" y="334"/>
      <point x="135" y="284"/>
      <point x="217" y="284" type="curve" smooth="yes"/>
      <point x="284" y="284"/>
      <point x="334" y="312"/>
      <point x="377" y="372" type="curve" smooth="yes"/>
      <point x="385" y="383"/>
      <point x="387" y="414"/>
      <point x="378" y="448" type="curve"/>
      <point x="340" y="414"/>
      <point x="314" y="403"/>
      <point x="268" y="403" type="curve" smooth="yes"/>
      <point x="264" y="403" type="line" smooth="yes"/>
      <point x="245" y="403"/>
      <point x="236" y="414"/>
    </contour>
    <contour>
      <point x="366" y="536" type="curve" smooth="yes"/>
      <point x="348" y="550"/>
      <point x="294" y="562"/>
      <point x="219" y="562" type="curve" smooth="yes"/>
      <point x="138" y="562"/>
      <point x="84" y="512"/>
      <point x="84" y="438" type="curve" smooth="yes"/>
      <point x="84" y="433"/>
      <point x="96" y="420"/>
      <point x="236" y="447" type="curve"/>
      <point x="236" y="464"/>
      <point x="247" y="475"/>
      <point x="266" y="475" type="curve" smooth="yes"/>
      <point x="298" y="475"/>
      <point x="364" y="475"/>
      <point x="388" y="475" type="curve"/>
      <point x="388" y="503"/>
      <point x="385" y="521"/>
    </contour>
  </outline>
</glyph>
<glyph name="logicalnot" format="1">
  <advance width="600"/>
  <unicode hex="00AC"/>
  <outline>
    <contour>
      <point x="60" y="458" type="line"/>
      <point x="60" y="403"/>
      <point x="60" y="356"/>
      <point x="60" y="301" type="curve" smooth="yes"/>
      <point x="60" y="298"/>
      <point x="61" y="295"/>
      <point x="63" y="293" type="curve" smooth="yes"/>
      <point x="65" y="291"/>
      <point x="68" y="290"/>
      <point x="71" y="290" type="curve"/>
      <point x="540" y="290" type="line"/>
      <point x="540" y="447" type="line"/>
      <point x="540" y="453"/>
      <point x="535" y="458"/>
      <point x="529" y="458" type="curve"/>
    </contour>
    <contour>
      <point x="540" y="127" type="curve"/>
      <point x="540" y="350" type="line" smooth="yes"/>
      <point x="540" y="356"/>
      <point x="536" y="361"/>
      <point x="529" y="361" type="curve"/>
      <point x="355" y="361" type="line"/>
      <point x="355" y="138" type="line" smooth="yes"/>
      <point x="355" y="132"/>
      <point x="360" y="127"/>
      <point x="366" y="127" type="curve" smooth="yes"/>
      <point x="429" y="127"/>
      <point x="477" y="127"/>
    </contour>
  </outline>
</glyph>
<glyph name="uni00AD" format="1">
  <advance width="600"/>
  <unicode hex="00AD"/>
  <outline>
    <contour>
      <point x="105" y="388" type="line"/>
      <point x="105" y="332"/>
      <point x="105" y="278"/>
      <point x="105" y="222" type="curve" smooth="yes"/>
      <point x="105" y="220"/>
      <point x="106" y="216"/>
      <point x="108" y="214" type="curve" smooth="yes"/>
      <point x="110" y="212"/>
      <point x="113" y="212"/>
      <point x="116" y="212" type="curve"/>
      <point x="495" y="212" type="line"/>
      <point x="495" y="268"/>
      <point x="495" y="320"/>
      <point x="495" y="377" type="curve" smooth="yes"/>
      <point x="495" y="383"/>
      <point x="490" y="388"/>
      <point x="484" y="388" type="curve"/>
    </contour>
  </outline>
</glyph>
